  0
SECTION
  2
HEADER
  9
$ACADVER
  1
AC1032
  9
$ACADMAINTVER
 90
      327
  9
$DWGCODEPAGE
  3
ANSI_936
  9
$LASTSAVEDBY
  1
molun
  9
$REQUIREDVERSIONS
160
                 0
  9
$INSBASE
 10
0.0
 20
0.0
 30
0.0
  9
$EXTMIN
 10
-718877.4394066114
 20
81.73098301345101
 30
0.0
  9
$EXTMAX
 10
571.3630702352092
 20
110891.6226483776
 30
0.3
  9
$LIMMIN
 10
0.0
 20
0.0
  9
$LIMMAX
 10
210.0
 20
297.0
  9
$ORTHOMODE
 70
     0
  9
$REGENMODE
 70
     1
  9
$FILLMODE
 70
     1
  9
$QTEXTMODE
 70
     0
  9
$MIRRTEXT
 70
     1
  9
$LTSCALE
 40
1.0
  9
$ATTMODE
 70
     1
  9
$TEXTSIZE
 40
3.5
  9
$TRACEWID
 40
1.0
  9
$TEXTSTYLE
  7
STANDARD
  9
$CLAYER
  8
中心线
  9
$CELTYPE
  6
ByLayer
  9
$CECOLOR
 62
   256
  9
$CELTSCALE
 40
1.0
  9
$DISPSILH
 70
     0
  9
$DIMSCALE
 40
1.0
  9
$DIMASZ
 40
2.0
  9
$DIMEXO
 40
0.0
  9
$DIMDLI
 40
1.5
  9
$DIMRND
 40
0.0
  9
$DIMDLE
 40
0.0
  9
$DIMEXE
 40
2.0
  9
$DIMTP
 40
0.0
  9
$DIMTM
 40
0.0
  9
$DIMTXT
 40
3.5
  9
$DIMCEN
 40
0.09
  9
$DIMTSZ
 40
0.0
  9
$DIMTOL
 70
     0
  9
$DIMLIM
 70
     0
  9
$DIMTIH
 70
     0
  9
$DIMTOH
 70
     1
  9
$DIMSE1
 70
     0
  9
$DIMSE2
 70
     0
  9
$DIMTAD
 70
     1
  9
$DIMZIN
 70
     8
  9
$DIMBLK
  1

  9
$DIMASO
 70
     1
  9
$DIMSHO
 70
     1
  9
$DIMPOST
  1

  9
$DIMAPOST
  1

  9
$DIMALT
 70
     0
  9
$DIMALTD
 70
     2
  9
$DIMALTF
 40
25.4
  9
$DIMLFAC
 40
1.0
  9
$DIMTOFL
 70
     1
  9
$DIMTVP
 40
0.0
  9
$DIMTIX
 70
     0
  9
$DIMSOXD
 70
     0
  9
$DIMSAH
 70
     0
  9
$DIMBLK1
  1

  9
$DIMBLK2
  1

  9
$DIMSTYLE
  2
4
  9
$DIMCLRD
 70
     3
  9
$DIMCLRE
 70
     3
  9
$DIMCLRT
 70
     3
  9
$DIMTFAC
 40
1.0
  9
$DIMGAP
 40
1.0
  9
$DIMJUST
 70
     0
  9
$DIMSD1
 70
     0
  9
$DIMSD2
 70
     0
  9
$DIMTOLJ
 70
     1
  9
$DIMTZIN
 70
     0
  9
$DIMALTZ
 70
     0
  9
$DIMALTTZ
 70
     0
  9
$DIMUPT
 70
     0
  9
$DIMDEC
 70
     1
  9
$DIMTDEC
 70
     1
  9
$DIMALTU
 70
     2
  9
$DIMALTTD
 70
     2
  9
$DIMTXSTY
  7
R
  9
$DIMAUNIT
 70
     0
  9
$DIMADEC
 70
     0
  9
$DIMALTRND
 40
0.0
  9
$DIMAZIN
 70
     2
  9
$DIMDSEP
 70
    46
  9
$DIMATFIT
 70
     3
  9
$DIMFRAC
 70
     0
  9
$DIMLDRBLK
  1

  9
$DIMLUNIT
 70
     2
  9
$DIMLWD
 70
    -2
  9
$DIMLWE
 70
    -2
  9
$DIMTMOVE
 70
     0
  9
$DIMFXL
 40
0.18
  9
$DIMFXLON
 70
     0
  9
$DIMJOGANG
 40
0.7853981633974483
  9
$DIMTFILL
 70
     0
  9
$DIMTFILLCLR
 70
     0
  9
$DIMARCSYM
 70
     0
  9
$DIMLTYPE
  6

  9
$DIMLTEX1
  6

  9
$DIMLTEX2
  6

  9
$DIMTXTDIRECTION
 70
     0
  9
$LUNITS
 70
     2
  9
$LUPREC
 70
     2
  9
$SKETCHINC
 40
1.0
  9
$FILLETRAD
 40
2.0
  9
$AUNITS
 70
     0
  9
$AUPREC
 70
     2
  9
$MENU
  1
.
  9
$ELEVATION
 40
0.0
  9
$PELEVATION
 40
0.0
  9
$THICKNESS
 40
0.0
  9
$LIMCHECK
 70
     0
  9
$CHAMFERA
 40
0.0
  9
$CHAMFERB
 40
0.0
  9
$CHAMFERC
 40
0.0
  9
$CHAMFERD
 40
0.0
  9
$SKPOLY
 70
     0
  9
$TDCREATE
 40
2459117.727048611
  9
$TDUCREATE
 40
2459117.393718484
  9
$TDUPDATE
 40
2461044.744212963
  9
$TDUUPDATE
 40
2461044.410879630
  9
$TDINDWG
 40
1.4708734491
  9
$TDUSRTIMER
 40
1.4708734491
  9
$USRTIMER
 70
     1
  9
$ANGBASE
 50
0.0
  9
$ANGDIR
 70
     0
  9
$PDMODE
 70
     0
  9
$PDSIZE
 40
-1.0
  9
$PLINEWID
 40
0.0
  9
$SPLFRAME
 70
     0
  9
$SPLINETYPE
 70
     6
  9
$SPLINESEGS
 70
     8
  9
$HANDSEED
  5
2158
  9
$SURFTAB1
 70
     6
  9
$SURFTAB2
 70
     6
  9
$SURFTYPE
 70
     6
  9
$SURFU
 70
     6
  9
$SURFV
 70
     6
  9
$UCSBASE
  2

  9
$UCSNAME
  2

  9
$UCSORG
 10
0.0
 20
0.0
 30
0.0
  9
$UCSXDIR
 10
1.0
 20
0.0
 30
0.0
  9
$UCSYDIR
 10
0.0
 20
1.0
 30
0.0
  9
$UCSORTHOREF
  2

  9
$UCSORTHOVIEW
 70
     0
  9
$UCSORGTOP
 10
0.0
 20
0.0
 30
0.0
  9
$UCSORGBOTTOM
 10
0.0
 20
0.0
 30
0.0
  9
$UCSORGLEFT
 10
0.0
 20
0.0
 30
0.0
  9
$UCSORGRIGHT
 10
0.0
 20
0.0
 30
0.0
  9
$UCSORGFRONT
 10
0.0
 20
0.0
 30
0.0
  9
$UCSORGBACK
 10
0.0
 20
0.0
 30
0.0
  9
$PUCSBASE
  2

  9
$PUCSNAME
  2

  9
$PUCSORG
 10
0.0
 20
0.0
 30
0.0
  9
$PUCSXDIR
 10
1.0
 20
0.0
 30
0.0
  9
$PUCSYDIR
 10
0.0
 20
1.0
 30
0.0
  9
$PUCSORTHOREF
  2

  9
$PUCSORTHOVIEW
 70
     0
  9
$PUCSORGTOP
 10
0.0
 20
0.0
 30
0.0
  9
$PUCSORGBOTTOM
 10
0.0
 20
0.0
 30
0.0
  9
$PUCSORGLEFT
 10
0.0
 20
0.0
 30
0.0
  9
$PUCSORGRIGHT
 10
0.0
 20
0.0
 30
0.0
  9
$PUCSORGFRONT
 10
0.0
 20
0.0
 30
0.0
  9
$PUCSORGBACK
 10
0.0
 20
0.0
 30
0.0
  9
$USERI1
 70
     0
  9
$USERI2
 70
     0
  9
$USERI3
 70
     0
  9
$USERI4
 70
     0
  9
$USERI5
 70
     0
  9
$USERR1
 40
0.0
  9
$USERR2
 40
0.0
  9
$USERR3
 40
0.0
  9
$USERR4
 40
0.0
  9
$USERR5
 40
0.0
  9
$WORLDVIEW
 70
     1
  9
$SHADEDGE
 70
     3
  9
$SHADEDIF
 70
    70
  9
$TILEMODE
 70
     1
  9
$MAXACTVP
 70
    64
  9
$PINSBASE
 10
0.0
 20
0.0
 30
0.0
  9
$PLIMCHECK
 70
     0
  9
$PEXTMIN
 10
1.000000000000000E+20
 20
1.000000000000000E+20
 30
1.000000000000000E+20
  9
$PEXTMAX
 10
-1.000000000000000E+20
 20
-1.000000000000000E+20
 30
-1.000000000000000E+20
  9
$PLIMMIN
 10
0.0
 20
0.0
  9
$PLIMMAX
 10
420.0
 20
297.0
  9
$UNITMODE
 70
     0
  9
$VISRETAIN
 70
     1
  9
$PLINEGEN
 70
     0
  9
$PSLTSCALE
 70
     1
  9
$TREEDEPTH
 70
  3020
  9
$CMLSTYLE
  2
Standard
  9
$CMLJUST
 70
     0
  9
$CMLSCALE
 40
20.0
  9
$PROXYGRAPHICS
 70
     1
  9
$MEASUREMENT
 70
     1
  9
$CELWEIGHT
370
    -1
  9
$ENDCAPS
280
     0
  9
$JOINSTYLE
280
     0
  9
$LWDISPLAY
290
     1
  9
$INSUNITS
 70
     4
  9
$HYPERLINKBASE
  1

  9
$STYLESHEET
  1

  9
$XEDIT
290
     1
  9
$CEPSNTYPE
380
     0
  9
$PSTYLEMODE
290
     1
  9
$FINGERPRINTGUID
  2
{249DDD44-2E9D-49E1-9F12-4463E221DB12}
  9
$VERSIONGUID
  2
{E9A16872-0470-9640-8C84-8E9431059A5B}
  9
$EXTNAMES
290
     1
  9
$PSVPSCALE
 40
0.0
  9
$OLESTARTUP
290
     0
  9
$SORTENTS
280
   127
  9
$INDEXCTL
280
     0
  9
$HIDETEXT
280
     0
  9
$XCLIPFRAME
280
     0
  9
$HALOGAP
280
     0
  9
$OBSCOLOR
 70
   257
  9
$OBSLTYPE
280
     0
  9
$INTERSECTIONDISPLAY
280
     0
  9
$INTERSECTIONCOLOR
 70
   257
  9
$DIMASSOC
280
     1
  9
$PROJECTNAME
  1

  9
$CAMERADISPLAY
290
     0
  9
$LENSLENGTH
 40
50.0
  9
$CAMERAHEIGHT
 40
0.0
  9
$STEPSPERSEC
 40
2.0
  9
$STEPSIZE
 40
6.0
  9
$3DDWFPREC
 40
2.0
  9
$PSOLWIDTH
 40
0.25
  9
$PSOLHEIGHT
 40
4.0
  9
$LOFTANG1
 40
1.570796326794896
  9
$LOFTANG2
 40
1.570796326794896
  9
$LOFTMAG1
 40
0.0
  9
$LOFTMAG2
 40
0.0
  9
$LOFTPARAM
 70
     7
  9
$LOFTNORMALS
280
     1
  9
$LATITUDE
 40
37.795
  9
$LONGITUDE
 40
-122.394
  9
$NORTHDIRECTION
 40
0.0
  9
$TIMEZONE
 70
 -8000
  9
$LIGHTGLYPHDISPLAY
280
     1
  9
$TILEMODELIGHTSYNCH
280
     1
  9
$CMATERIAL
347
34C
  9
$SOLIDHIST
280
     1
  9
$SHOWHIST
280
     1
  9
$DWFFRAME
280
     2
  9
$DGNFRAME
280
     0
  9
$REALWORLDSCALE
290
     1
  9
$INTERFERECOLOR
 62
     1
  9
$INTERFEREOBJVS
345
36E
  9
$INTERFEREVPVS
346
36B
  9
$CSHADOW
280
     0
  9
$SHADOWPLANELOCATION
 40
0.0
  0
ENDSEC
  0
SECTION
  2
CLASSES
  0
CLASS
  1
ACDBDICTIONARYWDFLT
  2
AcDbDictionaryWithDefault
  3
ObjectDBX Classes
 90
        0
 91
        1
280
     0
281
     0
  0
CLASS
  1
VISUALSTYLE
  2
AcDbVisualStyle
  3
ObjectDBX Classes
 90
     4095
 91
       26
280
     0
281
     0
  0
CLASS
  1
MATERIAL
  2
AcDbMaterial
  3
ObjectDBX Classes
 90
     1153
 91
        3
280
     0
281
     0
  0
CLASS
  1
SCALE
  2
AcDbScale
  3
ObjectDBX Classes
 90
     1153
 91
       33
280
     0
281
     0
  0
CLASS
  1
TABLESTYLE
  2
AcDbTableStyle
  3
ObjectDBX Classes
 90
     4095
 91
        1
280
     0
281
     0
  0
CLASS
  1
MLEADERSTYLE
  2
AcDbMLeaderStyle
  3
ACDB_MLEADERSTYLE_CLASS
 90
     4095
 91
        1
280
     0
281
     0
  0
CLASS
  1
SUN
  2
AcDbSun
  3
SCENEOE
 90
     1153
 91
        0
280
     0
281
     0
  0
CLASS
  1
SORTENTSTABLE
  2
AcDbSortentsTable
  3
ObjectDBX Classes
 90
        0
 91
        2
280
     0
281
     0
  0
CLASS
  1
CELLSTYLEMAP
  2
AcDbCellStyleMap
  3
ObjectDBX Classes
 90
     1152
 91
        1
280
     0
281
     0
  0
CLASS
  1
DICTIONARYVAR
  2
AcDbDictionaryVar
  3
ObjectDBX Classes
 90
        0
 91
        9
280
     0
281
     0
  0
CLASS
  1
DIMASSOC
  2
AcDbDimAssoc
  3
"AcDbDimAssoc|Product Desc:     AcDim ARX App For Dimension|Company:          Autodesk, Inc.|WEB Address:      www.autodesk.com"
 90
        0
 91
        0
280
     0
281
     0
  0
CLASS
  1
ACDBSECTIONVIEWSTYLE
  2
AcDbSectionViewStyle
  3
ObjectDBX Classes
 90
     1025
 91
        1
280
     0
281
     0
  0
CLASS
  1
ACDBDETAILVIEWSTYLE
  2
AcDbDetailViewStyle
  3
ObjectDBX Classes
 90
     1025
 91
        1
280
     0
281
     0
  0
ENDSEC
  0
SECTION
  2
TABLES
  0
TABLE
  2
VPORT
  5
8
330
0
100
AcDbSymbolTable
 70
     1
  0
VPORT
  5
29
330
8
100
AcDbSymbolTableRecord
100
AcDbViewportTableRecord
  2
*Active
 70
     0
 10
0.0
 20
0.0
 11
1.0
 21
1.0
 12
468.8748296969217
 22
133.2469159134059
 13
0.0
 23
0.0
 14
10.0
 24
10.0
 15
10.0
 25
10.0
 16
0.0
 26
0.0
 36
1.0
 17
0.0
 27
0.0
 37
0.0
 40
203.2240264182806
 41
2.18188057652711
 42
50.0
 43
0.0
 44
0.0
 50
0.0
 51
0.0
 71
     0
 72
  2000
 73
     1
 74
     3
 75
     0
 76
     0
 77
     0
 78
     0
281
     0
 65
     1
110
0.0
120
0.0
130
0.0
111
1.0
121
0.0
131
0.0
112
0.0
122
1.0
132
0.0
 79
     0
146
0.0
348
36A
 60
     3
 61
     5
292
     1
282
     1
141
0.0
142
0.0
 63
   250
421
  3355443
1001
ACAD_NAV_VCDISPLAY
1070
     3
  0
ENDTAB
  0
TABLE
  2
LTYPE
  5
5
330
0
100
AcDbSymbolTable
 70
     6
  0
LTYPE
  5
14
330
5
100
AcDbSymbolTableRecord
100
AcDbLinetypeTableRecord
  2
ByBlock
 70
     0
  3

 72
    65
 73
     0
 40
0.0
  0
LTYPE
  5
15
330
5
100
AcDbSymbolTableRecord
100
AcDbLinetypeTableRecord
  2
ByLayer
 70
     0
  3

 72
    65
 73
     0
 40
0.0
  0
LTYPE
  5
16
330
5
100
AcDbSymbolTableRecord
100
AcDbLinetypeTableRecord
  2
Continuous
 70
     0
  3
Solid line
 72
    65
 73
     0
 40
0.0
  0
LTYPE
  5
6E
330
5
100
AcDbSymbolTableRecord
100
AcDbLinetypeTableRecord
  2
HIDDEN
 70
     0
  3
Hidden __ __ __ __ __ __ __ __ __ __ __ __ __ __
 72
    65
 73
     2
 40
1.905
 49
1.27
 74
     0
 49
-0.635
 74
     0
  0
LTYPE
  5
6F
330
5
100
AcDbSymbolTableRecord
100
AcDbLinetypeTableRecord
  2
PHANTOM
 70
     0
  3
Phantom ______  __  __  ______  __  __  ______
 72
    65
 73
     6
 40
12.7
 49
6.349999999999999
 74
     0
 49
-1.27
 74
     0
 49
1.27
 74
     0
 49
-1.27
 74
     0
 49
1.27
 74
     0
 49
-1.27
 74
     0
  0
LTYPE
  5
70
330
5
100
AcDbSymbolTableRecord
100
AcDbLinetypeTableRecord
  2
CENTER
 70
     0
  3
Center ____ _ ____ _ ____ _ ____ _ ____ _ ____
 72
    65
 73
     4
 40
10.16
 49
6.349999999999999
 74
     0
 49
-1.27
 74
     0
 49
1.27
 74
     0
 49
-1.27
 74
     0
  0
LTYPE
  5
71
330
5
100
AcDbSymbolTableRecord
100
AcDbLinetypeTableRecord
  2
CENTERX2
 70
     0
  3
Center (2x) ________  __  ________  __  _____
 72
    65
 73
     4
 40
20.32
 49
12.7
 74
     0
 49
-2.54
 74
     0
 49
2.54
 74
     0
 49
-2.54
 74
     0
  0
LTYPE
  5
72
330
5
100
AcDbSymbolTableRecord
100
AcDbLinetypeTableRecord
  2
DOT2
 70
     0
  3
Dot (.5x) ........................................
 72
    65
 73
     2
 40
0.635
 49
0.0
 74
     0
 49
-0.635
 74
     0
  0
ENDTAB
  0
TABLE
  2
LAYER
  5
2
102
{ACAD_XDICTIONARY
360
3A1
102
}
330
0
100
AcDbSymbolTable
 70
     7
  0
LAYER
  5
10
102
{ACAD_XDICTIONARY
360
3CE
102
}
330
2
100
AcDbSymbolTableRecord
100
AcDbLayerTableRecord
  2
0
 70
     0
 62
     7
  6
Continuous
370
    -3
390
F
347
35C
348
0
  0
LAYER
  5
73
102
{ACAD_XDICTIONARY
360
3D0
102
}
330
2
100
AcDbSymbolTableRecord
100
AcDbLayerTableRecord
  2
粗实线
 70
     0
 62
     7
  6
Continuous
370
    35
390
F
347
35C
348
0
  0
LAYER
  5
74
102
{ACAD_XDICTIONARY
360
3D2
102
}
330
2
100
AcDbSymbolTableRecord
100
AcDbLayerTableRecord
  2
细实线
 70
     0
 62
     7
  6
Continuous
370
    25
390
F
347
35C
348
0
  0
LAYER
  5
75
102
{ACAD_XDICTIONARY
360
3D4
102
}
330
2
100
AcDbSymbolTableRecord
100
AcDbLayerTableRecord
  2
虚线
 70
     0
 62
     7
  6
HIDDEN
370
    25
390
F
347
35C
348
0
  0
LAYER
  5
76
102
{ACAD_XDICTIONARY
360
3D6
102
}
330
2
100
AcDbSymbolTableRecord
100
AcDbLayerTableRecord
  2
中心线
 70
     0
 62
     7
  6
CENTER
370
    25
390
F
347
35C
348
0
  0
LAYER
  5
38C
330
2
100
AcDbSymbolTableRecord
100
AcDbLayerTableRecord
  2
Defpoints
 70
     0
 62
     7
  6
Continuous
290
     0
370
    -3
390
F
347
35C
348
0
1001
_LayerManage
1070
     0
1070
     0
1070
     0
  0
LAYER
  5
38D
102
{ACAD_XDICTIONARY
360
38E
102
}
330
2
100
AcDbSymbolTableRecord
100
AcDbLayerTableRecord
  2
3
 70
     0
 62
     3
  6
Continuous
370
     9
390
F
347
35C
348
0
1001
AcAecLayerStandard
1000

1000

1001
_LayerManage
1070
     0
1070
     0
1070
     0
  0
ENDTAB
  0
TABLE
  2
STYLE
  5
3
330
0
100
AcDbSymbolTable
 70
    12
  0
STYLE
  5
11
330
3
100
AcDbSymbolTableRecord
100
AcDbTextStyleTableRecord
  2
STANDARD
 70
     0
 40
0.0
 41
1.0
 50
0.0
 71
     0
 42
3.5
  3
SimSun.ttf
  4

1001
ACAD
1000
宋体
1071
    34306
  0
STYLE
  5
9F
330
3
100
AcDbSymbolTableRecord
100
AcDbTextStyleTableRecord
  2
SLDTEXTSTYLE0
 70
     0
 40
0.0
 41
1.0
 50
0.0
 71
     0
 42
3.5
  3
SimSun.ttf
  4
bigfont
1001
ACAD
1000
宋体
1071
      258
  0
STYLE
  5
A8
330
3
100
AcDbSymbolTableRecord
100
AcDbTextStyleTableRecord
  2
SLDTEXTSTYLE1
 70
     0
 40
0.0
 41
1.0
 50
0.0
 71
     0
 42
3.5
  3
SimSun.ttf
  4

1001
ACAD
1000
宋体
1071
      258
  0
STYLE
  5
AF
330
3
100
AcDbSymbolTableRecord
100
AcDbTextStyleTableRecord
  2
SLDTEXTSTYLE2
 70
     0
 40
0.0
 41
1.0
 50
0.0
 71
     0
 42
3.5
  3
simfang.ttf
  4
bigfont
1001
ACAD
1000
仿宋
1071
      305
  0
STYLE
  5
B4
330
3
100
AcDbSymbolTableRecord
100
AcDbTextStyleTableRecord
  2
SLDTEXTSTYLE3
 70
     0
 40
0.0
 41
0.9673282175817119
 50
0.0
 71
     0
 42
3.5
  3
simfang.ttf
  4
bigfont
1001
ACAD
1000
仿宋
1071
      305
  0
STYLE
  5
C4
330
3
100
AcDbSymbolTableRecord
100
AcDbTextStyleTableRecord
  2
SLDTEXTSTYLE4
 70
     0
 40
0.0
 41
1.0
 50
0.0
 71
     0
 42
3.5
  3
simfang.ttf
  4

1001
ACAD
1000
仿宋
1071
      305
  0
STYLE
  5
38F
330
3
100
AcDbSymbolTableRecord
100
AcDbTextStyleTableRecord
  2
R
 70
     0
 40
0.0
 41
0.6667
 50
0.0
 71
     0
 42
0.2
  3
romans.shx
  4

  0
STYLE
  5
9D8
330
3
100
AcDbSymbolTableRecord
100
AcDbTextStyleTableRecord
  2
宋体高3
 70
     0
 40
3.0
 41
0.8
 50
0.0
 71
     0
 42
3.0
  3
SimSun.ttf
  4

1001
ACAD
1000
SimSun
1071
    34306
  0
STYLE
  5
9D9
330
3
100
AcDbSymbolTableRecord
100
AcDbTextStyleTableRecord
  2
宋体高
 70
     0
 40
0.0
 41
1.0
 50
0.0
 71
     0
 42
3.0
  3
SimSun.ttf
  4

1001
ACAD
1000
SimSun
1071
    34306
  0
STYLE
  5
9DA
330
3
100
AcDbSymbolTableRecord
100
AcDbTextStyleTableRecord
  2
雄业样式
 70
     0
 40
0.0
 41
1.0
 50
0.0
 71
     0
 42
2.5
  3
txt.shx
  4

  0
STYLE
  5
9DB
330
3
100
AcDbSymbolTableRecord
100
AcDbTextStyleTableRecord
  2
宋体
 70
     0
 40
0.0
 41
1.0
 50
0.0
 71
     0
 42
2.5
  3
SimSun.ttf
  4

1001
ACAD
1000
SimSun
1071
    34306
  0
STYLE
  5
100C
330
3
100
AcDbSymbolTableRecord
100
AcDbTextStyleTableRecord
  2
BomFont
 70
     0
 40
0.0
 41
1.0
 50
0.0
 71
     0
 42
0.2
  3
gbenor.shx
  4
gbcbig.shx
  0
ENDTAB
  0
TABLE
  2
VIEW
  5
6
330
0
100
AcDbSymbolTable
 70
     0
  0
ENDTAB
  0
TABLE
  2
UCS
  5
7
330
0
100
AcDbSymbolTable
 70
     0
  0
ENDTAB
  0
TABLE
  2
APPID
  5
9
330
0
100
AcDbSymbolTable
 70
    13
  0
APPID
  5
12
330
9
100
AcDbSymbolTableRecord
100
AcDbRegAppTableRecord
  2
ACAD
 70
     0
  0
APPID
  5
37A
330
9
100
AcDbSymbolTableRecord
100
AcDbRegAppTableRecord
  2
ACAD_MLEADERVER
 70
     0
  0
APPID
  5
396
330
9
100
AcDbSymbolTableRecord
100
AcDbRegAppTableRecord
  2
AcAecLayerStandard
 70
     0
  0
APPID
  5
397
330
9
100
AcDbSymbolTableRecord
100
AcDbRegAppTableRecord
  2
_LayerManage
 70
     0
  0
APPID
  5
398
330
9
100
AcDbSymbolTableRecord
100
AcDbRegAppTableRecord
  2
ACAD_DSTYLE_DIMJAG
 70
     0
  0
APPID
  5
399
330
9
100
AcDbSymbolTableRecord
100
AcDbRegAppTableRecord
  2
ACAD_DSTYLE_DIMTALN
 70
     0
  0
APPID
  5
39A
330
9
100
AcDbSymbolTableRecord
100
AcDbRegAppTableRecord
  2
ACAD_NAV_VCDISPLAY
 70
     0
  0
APPID
  5
39B
330
9
100
AcDbSymbolTableRecord
100
AcDbRegAppTableRecord
  2
ACAD_DSTYLE_DIMJOGGED_JOGANGLE_SYMBOL
 70
     0
  0
APPID
  5
39C
330
9
100
AcDbSymbolTableRecord
100
AcDbRegAppTableRecord
  2
ACAD_DSTYLE_DIMBREAK
 70
     0
  0
APPID
  5
39D
330
9
100
AcDbSymbolTableRecord
100
AcDbRegAppTableRecord
  2
ACAD_PSEXT
 70
     0
  0
APPID
  5
DF0
330
9
100
AcDbSymbolTableRecord
100
AcDbRegAppTableRecord
  2
ACAD_EXEMPT_FROM_CAD_STANDARDS
 70
     0
  0
APPID
  5
1093
330
9
100
AcDbSymbolTableRecord
100
AcDbRegAppTableRecord
  2
ACAD_DSTYLE_DIMRADIAL_EXTENSION
 70
     0
  0
APPID
  5
20E4
330
9
100
AcDbSymbolTableRecord
100
AcDbRegAppTableRecord
  2
Acad_TC
 70
     0
  0
ENDTAB
  0
TABLE
  2
DIMSTYLE
  5
A
330
0
100
AcDbSymbolTable
 70
    13
100
AcDbDimStyleTable
 71
     2
340
395
340
100D
  0
DIMSTYLE
105
27
330
A
100
AcDbSymbolTableRecord
100
AcDbDimStyleTableRecord
  2
ISO-25
 70
     0
 41
2.5
 42
0.625
 43
3.75
 44
1.25
 73
     0
 74
     0
 77
     1
 78
     8
140
2.5
141
2.5
143
0.03937007874016
147
0.625
171
     3
172
     1
271
     2
272
     2
274
     3
278
    44
283
     0
284
     8
340
11
  0
DIMSTYLE
105
390
330
A
100
AcDbSymbolTableRecord
100
AcDbDimStyleTableRecord
  2
30
 70
     0
 40
30.0
 41
2.0
 42
0.0
 43
1.5
 44
2.0
 49
0.18
 73
     0
 77
     1
 78
     8
 79
     2
140
3.5
147
1.0
172
     1
176
     3
177
     3
178
     3
271
     1
272
     1
340
38F
1001
ACAD_DSTYLE_DIMBREAK
1070
   391
1040
3.75
1001
ACAD_DSTYLE_DIMJAG
1070
   388
1040
1.5
1001
ACAD_DSTYLE_DIMTALN
1070
   392
1070
     0
  0
DIMSTYLE
105
391
330
A
100
AcDbSymbolTableRecord
100
AcDbDimStyleTableRecord
  2
100
 70
     0
 40
100.0
 41
2.0
 42
0.0
 43
1.5
 44
2.0
 49
0.18
 73
     0
 74
     0
 77
     1
 78
     8
 79
     2
140
3.5
147
1.0
172
     1
176
     3
177
     3
178
     3
271
     1
272
     1
340
38F
1001
ACAD_DSTYLE_DIMJOGGED_JOGANGLE_SYMBOL
1070
   384
1040
0.7853981633974483
  0
DIMSTYLE
105
392
330
A
100
AcDbSymbolTableRecord
100
AcDbDimStyleTableRecord
  2
10
 70
     0
 40
10.0
 41
2.0
 42
0.0
 43
1.5
 44
2.0
 49
0.18
 73
     0
 74
     0
 77
     1
 78
     8
 79
     2
140
3.5
147
1.0
172
     1
176
     3
177
     3
178
     3
271
     1
272
     1
340
38F
1001
ACAD_DSTYLE_DIMJOGGED_JOGANGLE_SYMBOL
1070
   384
1040
0.7853981633974483
  0
DIMSTYLE
105
393
330
A
100
AcDbSymbolTableRecord
100
AcDbDimStyleTableRecord
  2
8
 70
     0
 40
8.0
 41
2.0
 42
0.0
 43
1.5
 44
2.0
 49
0.18
 73
     0
 74
     0
 77
     1
 78
     8
 79
     2
140
3.5
147
1.0
172
     1
176
     3
177
     3
178
     3
271
     2
272
     2
340
38F
1001
ACAD_DSTYLE_DIMBREAK
1070
   391
1040
3.75
1001
ACAD_DSTYLE_DIMJAG
1070
   388
1040
1.5
1001
ACAD_DSTYLE_DIMTALN
1070
   392
1070
     0
  0
DIMSTYLE
105
394
102
{ACAD_REACTORS
330
3AB
102
}
330
A
100
AcDbSymbolTableRecord
100
AcDbDimStyleTableRecord
  2
6
 70
     0
 40
6.0
 41
2.0
 42
0.0
 43
1.5
 44
2.0
 49
0.18
 73
     0
 77
     1
 78
     8
 79
     2
140
3.5
147
1.0
172
     1
176
     3
177
     3
178
     3
271
     1
272
     1
340
38F
1001
ACAD_DSTYLE_DIMBREAK
1070
   391
1040
3.75
1001
ACAD_DSTYLE_DIMJAG
1070
   388
1040
1.5
1001
ACAD_DSTYLE_DIMTALN
1070
   392
1070
     0
  0
DIMSTYLE
105
395
102
{ACAD_REACTORS
330
17D0
330
17D1
330
17D2
330
1BCE
330
1C7D
330
1C8A
330
1D15
330
200B
330
200C
330
20E5
330
20F2
330
20FF
330
210C
330
2126
102
}
330
A
100
AcDbSymbolTableRecord
100
AcDbDimStyleTableRecord
  2
4
 70
     0
 41
2.0
 42
0.0
 43
1.5
 44
2.0
 49
0.18
 73
     0
 77
     1
 78
     8
 79
     2
140
3.5
147
1.0
172
     1
176
     3
177
     3
178
     3
271
     1
272
     1
340
38F
1001
ACAD_DSTYLE_DIMJOGGED_JOGANGLE_SYMBOL
1070
   384
1040
0.7853981633974483
1001
ACAD_DSTYLE_DIMJAG
1070
   388
1040
1.5
1001
ACAD_DSTYLE_DIMTALN
1070
   392
1070
     0
  0
DIMSTYLE
105
9DC
330
A
100
AcDbSymbolTableRecord
100
AcDbDimStyleTableRecord
  2
Standard
 70
     0
340
11
  0
DIMSTYLE
105
9DD
330
A
100
AcDbSymbolTableRecord
100
AcDbDimStyleTableRecord
  2
2-1
 70
     0
 40
0.0
 41
1.0
 42
0.5
 43
1.0
 44
1.0
 73
     0
 74
     0
 77
     1
 78
     8
 79
     2
140
2.5
141
2.0
143
0.0394
144
0.5
147
0.8
172
     1
176
     6
177
     6
178
     7
179
     2
271
     2
272
     2
273
     8
285
     8
340
9DB
341
90D
342
90D
1001
ACAD_DSTYLE_DIMBREAK
1070
   391
1040
3.75
1001
ACAD_DSTYLE_DIMJAG
1070
   388
1040
1.5
1001
ACAD_DSTYLE_DIMTALN
1070
   392
1070
     0
  0
DIMSTYLE
105
9DE
330
A
100
AcDbSymbolTableRecord
100
AcDbDimStyleTableRecord
  2
2比1
 70
     0
 41
1.5
 42
0.625
 43
3.75
 44
1.25
 73
     0
 74
     0
 77
     1
 78
     8
 79
     2
140
3.0
141
1.5
143
0.03937007874016
144
0.5
147
1.0
171
     3
172
     1
176
     6
177
     6
178
     4
179
     2
271
     2
272
     2
274
     3
283
     0
284
     8
340
9DA
341
90D
342
90D
371
    18
372
    18
  0
DIMSTYLE
105
9DF
330
A
100
AcDbSymbolTableRecord
100
AcDbDimStyleTableRecord
  2
1-1
 70
     0
 41
1.0
 42
0.625
 43
1.0
 44
0.5
 73
     0
 74
     0
 77
     1
 78
     8
 79
     2
140
2.5
141
1.0
143
0.03937007874016
147
0.625
171
     3
176
     7
177
     7
179
     2
271
     2
272
     2
274
     3
278
    44
283
     0
284
     8
288
     1
340
9D9
341
90D
342
90D
  0
DIMSTYLE
105
100D
330
A
100
AcDbSymbolTableRecord
100
AcDbDimStyleTableRecord
  2
1
 70
     0
 40
0.5
 41
2.0
 42
0.0
 43
1.5
 44
2.0
 49
0.18
 73
     0
 74
     0
 77
     1
 78
     8
 79
     2
140
3.5
147
1.0
172
     1
176
     3
177
     3
178
     3
271
     2
272
     2
340
38F
1001
ACAD_DSTYLE_DIMJOGGED_JOGANGLE_SYMBOL
1070
   384
1040
0.7853981633974483
1001
ACAD_DSTYLE_DIMJAG
1070
   388
1040
1.5
1001
ACAD_DSTYLE_DIMTALN
1070
   392
1070
     0
  0
DIMSTYLE
105
100E
330
A
100
AcDbSymbolTableRecord
100
AcDbDimStyleTableRecord
  2
2
 70
     0
 40
2.0
 41
2.0
 42
0.0
 43
1.5
 44
2.0
 73
     0
 74
     0
 77
     1
 78
     8
 79
     2
140
3.5
147
1.0
172
     1
176
     3
177
     3
178
     3
271
     1
272
     1
340
38F
1001
ACAD_DSTYLE_DIMBREAK
1070
   391
1040
3.75
1001
ACAD_DSTYLE_DIMJAG
1070
   388
1040
1.5
1001
ACAD_DSTYLE_DIMTALN
1070
   392
1070
     0
  0
ENDTAB
  0
TABLE
  2
BLOCK_RECORD
  5
1
330
0
100
AcDbSymbolTable
 70
    39
  0
BLOCK_RECORD
  5
1F
102
{ACAD_XDICTIONARY
360
1000
102
}
330
1
100
AcDbSymbolTableRecord
100
AcDbBlockTableRecord
  2
*Model_Space
340
22
 70
     0
280
     1
281
     0
  0
BLOCK_RECORD
  5
1B
330
1
100
AcDbSymbolTableRecord
100
AcDbBlockTableRecord
  2
*Paper_Space
340
1E
 70
     0
280
     1
281
     0
  0
BLOCK_RECORD
  5
23
330
1
100
AcDbSymbolTableRecord
100
AcDbBlockTableRecord
  2
*Paper_Space0
340
26
 70
     0
280
     1
281
     0
  0
BLOCK_RECORD
  5
9C
330
1
100
AcDbSymbolTableRecord
100
AcDbBlockTableRecord
  2
SW_NOTE_0
340
0
 70
     0
280
     1
281
     0
  0
BLOCK_RECORD
  5
A4
330
1
100
AcDbSymbolTableRecord
100
AcDbBlockTableRecord
  2
SW_NOTE_1
340
0
 70
     0
280
     1
281
     0
  0
BLOCK_RECORD
  5
C7
330
1
100
AcDbSymbolTableRecord
100
AcDbBlockTableRecord
  2
SW_SFSYMBOL_0
340
0
 70
     0
280
     1
281
     0
  0
BLOCK_RECORD
  5
3AC
330
1
100
AcDbSymbolTableRecord
100
AcDbBlockTableRecord
  2
*D4
340
0
 70
     0
280
     1
281
     0
  0
BLOCK_RECORD
  5
3F3
330
1
100
AcDbSymbolTableRecord
100
AcDbBlockTableRecord
  2
SW_CENTERMARKSYMBOL_0
340
0
102
{BLKREFS
331
17BB
102
}
 70
     0
280
     1
281
     0
  0
BLOCK_RECORD
  5
3FE
330
1
100
AcDbSymbolTableRecord
100
AcDbBlockTableRecord
  2
SW_CENTERMARKSYMBOL_1
340
0
102
{BLKREFS
331
17BC
102
}
 70
     0
280
     1
281
     0
  0
BLOCK_RECORD
  5
409
330
1
100
AcDbSymbolTableRecord
100
AcDbBlockTableRecord
  2
SW_CENTERMARKSYMBOL_2
340
0
102
{BLKREFS
331
17BD
102
}
 70
     0
280
     1
281
     0
  0
BLOCK_RECORD
  5
414
330
1
100
AcDbSymbolTableRecord
100
AcDbBlockTableRecord
  2
SW_CENTERMARKSYMBOL_3
340
0
102
{BLKREFS
331
17BE
102
}
 70
     0
280
     1
281
     0
  0
BLOCK_RECORD
  5
41F
330
1
100
AcDbSymbolTableRecord
100
AcDbBlockTableRecord
  2
SW_CENTERMARKSYMBOL_4
340
0
102
{BLKREFS
331
17BF
102
}
 70
     0
280
     1
281
     0
  0
BLOCK_RECORD
  5
42A
330
1
100
AcDbSymbolTableRecord
100
AcDbBlockTableRecord
  2
SW_CENTERMARKSYMBOL_5
340
0
102
{BLKREFS
331
17C0
102
}
 70
     0
280
     1
281
     0
  0
BLOCK_RECORD
  5
4A4
330
1
100
AcDbSymbolTableRecord
100
AcDbBlockTableRecord
  2
SW_CENTERMARKSYMBOL_6
340
0
102
{BLKREFS
331
17C1
102
}
 70
     0
280
     1
281
     0
  0
BLOCK_RECORD
  5
4AF
330
1
100
AcDbSymbolTableRecord
100
AcDbBlockTableRecord
  2
SW_CENTERMARKSYMBOL_7
340
0
102
{BLKREFS
331
17C2
102
}
 70
     0
280
     1
281
     0
  0
BLOCK_RECORD
  5
4BA
330
1
100
AcDbSymbolTableRecord
100
AcDbBlockTableRecord
  2
SW_CENTERMARKSYMBOL_8
340
0
102
{BLKREFS
331
17C3
102
}
 70
     0
280
     1
281
     0
  0
BLOCK_RECORD
  5
4C5
330
1
100
AcDbSymbolTableRecord
100
AcDbBlockTableRecord
  2
SW_CENTERMARKSYMBOL_9
340
0
102
{BLKREFS
331
17C4
331
2007
102
}
 70
     0
280
     1
281
     0
  0
BLOCK_RECORD
  5
4D0
330
1
100
AcDbSymbolTableRecord
100
AcDbBlockTableRecord
  2
SW_CENTERMARKSYMBOL_10
340
0
102
{BLKREFS
331
17C5
331
2008
102
}
 70
     0
280
     1
281
     0
  0
BLOCK_RECORD
  5
4DB
330
1
100
AcDbSymbolTableRecord
100
AcDbBlockTableRecord
  2
SW_CENTERMARKSYMBOL_11
340
0
102
{BLKREFS
331
17C6
331
2009
102
}
 70
     0
280
     1
281
     0
  0
BLOCK_RECORD
  5
4E6
330
1
100
AcDbSymbolTableRecord
100
AcDbBlockTableRecord
  2
SW_CENTERMARKSYMBOL_12
340
0
102
{BLKREFS
331
17C7
331
200A
331
213A
331
213B
102
}
 70
     0
280
     1
281
     0
  0
BLOCK_RECORD
  5
90D
102
{ACAD_XDICTIONARY
360
90E
102
}
330
1
100
AcDbSymbolTableRecord
100
AcDbBlockTableRecord
  2
_OBLIQUE
340
0
 70
     0
280
     1
281
     0
  0
BLOCK_RECORD
  5
1008
330
1
100
AcDbSymbolTableRecord
100
AcDbBlockTableRecord
  2
_ArchTick
340
0
310
2800000020000000200000000100080000000000000400000000000000000000000000000000000000000000000080000080000000808000800000008000800080800000C0C0C000C0DCC000F0CAA6000020400000206000002080000020A0000020C0000020E00000400000004020000040400000406000004080000040A0
310
000040C0000040E00000600000006020000060400000606000006080000060A0000060C0000060E00000800000008020000080400000806000008080000080A0000080C0000080E00000A0000000A0200000A0400000A0600000A0800000A0A00000A0C00000A0E00000C0000000C0200000C0400000C0600000C0800000C0
310
A00000C0C00000C0E00000E0000000E0200000E0400000E0600000E0800000E0A00000E0C00000E0E00040000000400020004000400040006000400080004000A0004000C0004000E00040200000402020004020400040206000402080004020A0004020C0004020E000404000004040200040404000404060004040800040
310
40A0004040C0004040E00040600000406020004060400040606000406080004060A0004060C0004060E00040800000408020004080400040806000408080004080A0004080C0004080E00040A0000040A0200040A0400040A0600040A0800040A0A00040A0C00040A0E00040C0000040C0200040C0400040C0600040C08000
310
40C0A00040C0C00040C0E00040E0000040E0200040E0400040E0600040E0800040E0A00040E0C00040E0E00080000000800020008000400080006000800080008000A0008000C0008000E00080200000802020008020400080206000802080008020A0008020C0008020E00080400000804020008040400080406000804080
310
008040A0008040C0008040E00080600000806020008060400080606000806080008060A0008060C0008060E00080800000808020008080400080806000808080008080A0008080C0008080E00080A0000080A0200080A0400080A0600080A0800080A0A00080A0C00080A0E00080C0000080C0200080C0400080C0600080C0
310
800080C0A00080C0C00080C0E00080E0000080E0200080E0400080E0600080E0800080E0A00080E0C00080E0E000C0000000C0002000C0004000C0006000C0008000C000A000C000C000C000E000C0200000C0202000C0204000C0206000C0208000C020A000C020C000C020E000C0400000C0402000C0404000C0406000C0
310
408000C040A000C040C000C040E000C0600000C0602000C0604000C0606000C0608000C060A000C060C000C060E000C0800000C0802000C0804000C0806000C0808000C080A000C080C000C080E000C0A00000C0A02000C0A04000C0A06000C0A08000C0A0A000C0A0C000C0A0E000C0C00000C0C02000C0C04000C0C06000
310
C0C08000C0C0A000F0FBFF00A4A0A000808080000000FF0000FF000000FFFF00FF000000FF00FF00FFFF0000FFFFFF000000FF0000000000FF000000000000000000000000000000000000000000000000FF00000000000000FF00000000000000000000000000000000000000000000FF000000000000000000FF00000000
310
00000000000000000000000000000000000000000000000000000000FF0000000000000000000000000000000000000000000000000000000000000000FF0000000000000000000000000000000000000000000000000000000000000000FF0000000000000000000000000000000000000000000000000000000000000000
310
FF0000000000000000000000000000000000000000000000000000000000000000FF00000000000000000000000000000000FF000000000000000000000000000000FF00000000000000000000000000000000FF000000000000000000000000000000FF00000000000000000000000000000000FF00000000000000000000
310
0000000000FF00000000000000000000000000000000FF000000000000000000000000000000FF00000000000000000000000000000000FF000000000000000000000000000000FF00000000000000000000000000000000FF000000000000000000000000000000FF00000000000000000000000000000000FF0000000000
310
00000000000000000000FF00000000000000000000000000000000FF000000000000000000000000000000FF00000000000000000000000000000000FF000000000000000000000000000000FF00000000000000000000000000000000FF000000000000000000000000000000FF00000000000000000000000000000000FF
310
000000000000000000000000000000FF00000000000000000000000000000000FF000000000000000000000000000000FF00000000000000000000000000000000FF000000000000000000000000000000FF00000000000000000000000000000000FF000000000000000000000000000000FF000000000000000000000000
310
00000000FF000000000000000000000000000000FF00000000000000000000000000000000FF000000000000000000000000000000FF00000000000000000000000000000000FF0000000000000000000000000000000000000000000000000000000000000000FF0000000000000000000000000000000000000000000000
310
000000000000000000FF0000000000000000000000000000000000000000000000000000000000000000FF0000000000000000000000000000000000000000000000000000000000000000FF0000000000000000000000000000000000000000000000000000000000000000FF000000000000000000FF0000000000000000
310
0000000000000000000000000000FF00000000000000FF000000000000000000000000000000000000000000000000FF0000000000FF0000
 70
     0
280
     1
281
     0
  0
BLOCK_RECORD
  5
17E4
330
1
100
AcDbSymbolTableRecord
100
AcDbBlockTableRecord
  2
*D20
340
0
 70
     0
280
     1
281
     0
  0
BLOCK_RECORD
  5
17F3
330
1
100
AcDbSymbolTableRecord
100
AcDbBlockTableRecord
  2
*D21
340
0
 70
     0
280
     1
281
     0
  0
BLOCK_RECORD
  5
17FF
330
1
100
AcDbSymbolTableRecord
100
AcDbBlockTableRecord
  2
*D22
340
0
 70
     0
280
     1
281
     0
  0
BLOCK_RECORD
  5
1BCF
330
1
100
AcDbSymbolTableRecord
100
AcDbBlockTableRecord
  2
*D23
340
0
 70
     0
280
     1
281
     0
  0
BLOCK_RECORD
  5
1C7E
330
1
100
AcDbSymbolTableRecord
100
AcDbBlockTableRecord
  2
*D24
340
0
 70
     0
280
     1
281
     0
  0
BLOCK_RECORD
  5
1C8B
330
1
100
AcDbSymbolTableRecord
100
AcDbBlockTableRecord
  2
*D25
340
0
 70
     0
280
     1
281
     0
  0
BLOCK_RECORD
  5
1D16
330
1
100
AcDbSymbolTableRecord
100
AcDbBlockTableRecord
  2
*D26
340
0
 70
     0
280
     1
281
     0
  0
BLOCK_RECORD
  5
2022
330
1
100
AcDbSymbolTableRecord
100
AcDbBlockTableRecord
  2
*D27
340
0
 70
     0
280
     1
281
     0
  0
BLOCK_RECORD
  5
202E
330
1
100
AcDbSymbolTableRecord
100
AcDbBlockTableRecord
  2
*D28
340
0
 70
     0
280
     1
281
     0
  0
BLOCK_RECORD
  5
20E6
330
1
100
AcDbSymbolTableRecord
100
AcDbBlockTableRecord
  2
*D33
340
0
 70
     0
280
     1
281
     0
  0
BLOCK_RECORD
  5
20F3
330
1
100
AcDbSymbolTableRecord
100
AcDbBlockTableRecord
  2
*D34
340
0
 70
     0
280
     1
281
     0
  0
BLOCK_RECORD
  5
2100
330
1
100
AcDbSymbolTableRecord
100
AcDbBlockTableRecord
  2
*D35
340
0
 70
     0
280
     1
281
     0
  0
BLOCK_RECORD
  5
210D
330
1
100
AcDbSymbolTableRecord
100
AcDbBlockTableRecord
  2
*D36
340
0
 70
     0
280
     1
281
     0
  0
BLOCK_RECORD
  5
2127
330
1
100
AcDbSymbolTableRecord
100
AcDbBlockTableRecord
  2
*D38
340
0
 70
     0
280
     1
281
     0
  0
ENDTAB
  0
ENDSEC
  0
SECTION
  2
BLOCKS
  0
BLOCK
  5
20
330
1F
100
AcDbEntity
  8
0
100
AcDbBlockBegin
  2
*Model_Space
 70
     0
 10
0.0
 20
0.0
 30
0.0
  3
*Model_Space
  1

  0
ENDBLK
  5
21
330
1F
100
AcDbEntity
  8
0
100
AcDbBlockEnd
  0
BLOCK
  5
1C
330
1B
100
AcDbEntity
 67
     1
  8
0
100
AcDbBlockBegin
  2
*Paper_Space
 70
     0
 10
0.0
 20
0.0
 30
0.0
  3
*Paper_Space
  1

  0
ENDBLK
  5
1D
330
1B
100
AcDbEntity
 67
     1
  8
0
100
AcDbBlockEnd
  0
BLOCK
  5
24
330
23
100
AcDbEntity
 67
     1
  8
0
100
AcDbBlockBegin
  2
*Paper_Space0
 70
     0
 10
0.0
 20
0.0
 30
0.0
  3
*Paper_Space0
  1

  0
ENDBLK
  5
25
330
23
100
AcDbEntity
 67
     1
  8
0
100
AcDbBlockEnd
  0
BLOCK
  5
9D
330
9C
100
AcDbEntity
  8
0
100
AcDbBlockBegin
  2
SW_NOTE_0
 70
     0
 10
0.0
 20
0.0
 30
0.0
  3
SW_NOTE_0
  1

  0
MTEXT
  5
A0
330
9C
100
AcDbEntity
  8
中心线
 62
     0
100
AcDbMText
 10
0.0
 20
4.072727272727269
 30
0.0
 40
3.5
 41
0.0
 46
0.0
 71
     1
 72
     1
  1
技术要求
  7
SLDTEXTSTYLE0
 73
     1
 44
1.0
  0
MTEXT
  5
A1
330
9C
100
AcDbEntity
  8
中心线
 62
     0
100
AcDbMText
 10
0.0
 20
-0.9272726155140215
 30
0.0
 40
3.5
 41
0.0
 46
0.0
 71
     1
 72
     1
  1
1、锯切断面去除毛刺；
  7
SLDTEXTSTYLE0
 73
     1
 44
1.0
  0
MTEXT
  5
A2
330
9C
100
AcDbEntity
  8
中心线
 62
     0
100
AcDbMText
 10
0.0
 20
-5.927272503755312
 30
0.0
 40
3.5
 41
0.0
 46
0.0
 71
     1
 72
     1
  1
2、长度误差<2mm，直线度误差<2mm。
  7
SLDTEXTSTYLE0
 73
     1
 44
1.0
  0
ENDBLK
  5
9E
330
9C
100
AcDbEntity
  8
0
100
AcDbBlockEnd
  0
BLOCK
  5
A5
330
A4
100
AcDbEntity
  8
0
100
AcDbBlockBegin
  2
SW_NOTE_1
 70
     0
 10
0.0
 20
0.0
 30
0.0
  3
SW_NOTE_1
  1

  0
MTEXT
  5
A7
330
A4
100
AcDbEntity
  8
中心线
 62
     0
100
AcDbMText
 10
0.0
 20
4.072727272727269
 30
0.0
 40
3.5
 41
0.0
 46
0.0
 71
     1
 72
     1
  1
技术要求
  7
SLDTEXTSTYLE0
 73
     1
 44
1.0
  0
MTEXT
  5
A9
330
A4
100
AcDbEntity
  8
中心线
 62
     0
100
AcDbMText
 10
0.0
 20
-0.9272726155140215
 30
0.0
 40
3.5
 41
0.0
 46
0.0
 71
     1
 72
     1
  1
1.
  7
SLDTEXTSTYLE1
 73
     1
 44
1.0
  0
MTEXT
  5
AA
330
A4
100
AcDbEntity
  8
中心线
 62
     0
100
AcDbMText
 10
4.073610994964838
 20
-0.9272726155140215
 30
0.0
 40
3.5
 41
0.0
 46
0.0
 71
     1
 72
     1
  1
所有焊缝为连续焊缝，焊缝高为 3～10 mm ；
  7
SLDTEXTSTYLE0
 73
     1
 44
1.0
  0
MTEXT
  5
AB
330
A4
100
AcDbEntity
  8
中心线
 62
     0
100
AcDbMText
 10
0.0
 20
-5.927272503755312
 30
0.0
 40
3.5
 41
0.0
 46
0.0
 71
     1
 72
     1
  1
2.焊接牢固，焊缝美观，无气孔、裂纹等缺陷；
  7
SLDTEXTSTYLE0
 73
     1
 44
1.0
  0
MTEXT
  5
AC
330
A4
100
AcDbEntity
  8
中心线
 62
     0
100
AcDbMText
 10
0.0
 20
-10.9272723919966
 30
0.0
 40
3.5
 41
0.0
 46
0.0
 71
     1
 72
     1
  1
3.焊后退火，消除变形；
  7
SLDTEXTSTYLE0
 73
     1
 44
1.0
  0
MTEXT
  5
AD
330
A4
100
AcDbEntity
  8
中心线
 62
     0
100
AcDbMText
 10
0.0
 20
-15.92727228023789
 30
0.0
 40
3.5
 41
0.0
 46
0.0
 71
     1
 72
     1
  1
4.长度误差<2mm，直线度误差<2mm.
  7
SLDTEXTSTYLE0
 73
     1
 44
1.0
  0
ENDBLK
  5
A6
330
A4
100
AcDbEntity
  8
0
100
AcDbBlockEnd
  0
BLOCK
  5
C8
330
C7
100
AcDbEntity
  8
0
100
AcDbBlockBegin
  2
SW_SFSYMBOL_0
 70
     0
 10
0.0
 20
0.0
 30
0.0
  3
SW_SFSYMBOL_0
  1

  0
LINE
  5
CA
330
C7
100
AcDbEntity
  8
中心线
 62
     0
100
AcDbLine
 10
-6.544999999999995
 20
-9.99949976716935
 30
0.0
 11
-9.494449999999988
 21
-4.999749767169325
 31
0.0
  0
LINE
  5
CB
330
C7
100
AcDbEntity
  8
中心线
 62
     0
100
AcDbLine
 10
-3.595550000000002
 20
-4.999749767169325
 30
0.0
 11
-9.494449999999988
 21
-4.999749767169325
 31
0.0
  0
LINE
  5
CC
330
C7
100
AcDbEntity
  8
中心线
 62
     0
100
AcDbLine
 10
-6.544999999999995
 20
-9.99949976716935
 30
0.0
 11
-0.6460999999999828
 21
0.0000002328306437
 31
0.0
  0
LINE
  5
CD
330
C7
100
AcDbEntity
  8
中心线
 62
     0
100
AcDbLine
 10
-0.6460999999999828
 20
0.0000002328306437
 30
0.0
 11
6.109914735658056
 21
0.0000002328306437
 31
0.0
  0
MTEXT
  5
CE
330
C7
100
AcDbEntity
  8
中心线
 62
     0
100
AcDbMText
 10
0.0
 20
4.072727272727282
 30
0.0
 40
3.5
 41
0.0
 46
0.0
 71
     1
 72
     1
  1
6.3
  7
SLDTEXTSTYLE1
 73
     1
 44
1.0
  0
MTEXT
  5
CF
330
C7
100
AcDbEntity
  8
中心线
 62
     0
100
AcDbMText
 10
-18.88928121484815
 20
-5.926772727272711
 30
0.0
 40
3.5
 41
0.0
 46
0.0
 71
     1
 72
     1
  1
其他
  7
SLDTEXTSTYLE0
 73
     1
 44
1.0
  0
ENDBLK
  5
C9
330
C7
100
AcDbEntity
  8
0
100
AcDbBlockEnd
  0
BLOCK
  5
3AD
330
3AC
100
AcDbEntity
  8
0
100
AcDbBlockBegin
  2
*D4
 70
     1
 10
0.0
 20
0.0
 30
0.0
  3
*D4
  1

  0
LINE
  5
3B8
330
3AC
100
AcDbEntity
  8
3
 62
     3
440
 16777216
370
    -2
100
AcDbLine
 10
-718877.4394066114
 20
110891.6226483776
 30
0.0
 11
-718877.4394066114
 21
110787.1467171762
 31
0.0
  0
LINE
  5
3B9
330
3AC
100
AcDbEntity
  8
3
 62
     3
440
 16777216
370
    -2
100
AcDbLine
 10
-718807.4394066115
 20
110891.6226483776
 30
0.0
 11
-718807.4394066115
 21
110787.1467171762
 31
0.0
  0
LINE
  5
3BA
330
3AC
100
AcDbEntity
  8
3
 62
     3
440
 16777216
370
    -2
100
AcDbLine
 10
-718865.4394066114
 20
110799.1467171762
 30
0.0
 11
-718819.4394066115
 21
110799.1467171762
 31
0.0
  0
SOLID
  5
3BB
330
3AC
100
AcDbEntity
  8
3
 62
     3
440
 16777216
100
AcDbTrace
 10
-718865.4394066114
 20
110801.1467171762
 30
0.0
 11
-718865.4394066114
 21
110797.1467171762
 31
0.0
 12
-718877.4394066114
 22
110799.1467171762
 32
0.0
 13
-718877.4394066114
 23
110799.1467171762
 33
0.0
  0
SOLID
  5
3BC
330
3AC
100
AcDbEntity
  8
3
 62
     3
440
 16777216
100
AcDbTrace
 10
-718819.4394066115
 20
110801.1467171762
 30
0.0
 11
-718819.4394066115
 21
110797.1467171762
 31
0.0
 12
-718807.4394066115
 22
110799.1467171762
 32
0.0
 13
-718807.4394066115
 23
110799.1467171762
 33
0.0
  0
MTEXT
  5
3BD
330
3AC
100
AcDbEntity
  8
3
 62
     3
440
 16777216
100
AcDbMText
 10
-718842.4394066114
 20
110815.6467171762
 30
0.0
 40
21.0
 41
0.0
 46
0.0
 71
     5
 72
     1
  1
\A1;70
  7
R
 73
     1
 44
1.0
  0
POINT
  5
3BE
330
3AC
100
AcDbEntity
  8
Defpoints
 62
     0
440
 16777216
100
AcDbPoint
 10
-718877.4394066114
 20
110891.6226483776
 30
0.0
  0
POINT
  5
3BF
330
3AC
100
AcDbEntity
  8
Defpoints
 62
     0
440
 16777216
100
AcDbPoint
 10
-718807.4394066115
 20
110891.6226483776
 30
0.0
  0
POINT
  5
3C0
330
3AC
100
AcDbEntity
  8
Defpoints
 62
     0
440
 16777216
100
AcDbPoint
 10
-718807.4394066115
 20
110799.1467171762
 30
0.0
  0
ENDBLK
  5
3AE
330
3AC
100
AcDbEntity
  8
0
100
AcDbBlockEnd
  0
BLOCK
  5
3F4
330
3F3
100
AcDbEntity
  8
0
100
AcDbBlockBegin
  2
SW_CENTERMARKSYMBOL_0
 70
     0
 10
0.0
 20
0.0
 30
0.0
  3
SW_CENTERMARKSYMBOL_0
  1

  0
LINE
  5
3F5
330
3F3
100
AcDbEntity
  8
中心线
 62
     0
100
AcDbLine
 10
0.0
 20
0.0
 30
0.0
 11
0.0
 21
2.500000000000002
 31
0.0
  0
LINE
  5
3F6
330
3F3
100
AcDbEntity
  8
中心线
 62
     0
100
AcDbLine
 10
0.0
 20
0.0
 30
0.0
 11
-2.500000000000002
 21
0.0
 31
0.0
  0
LINE
  5
3F7
330
3F3
100
AcDbEntity
  8
中心线
 62
     0
100
AcDbLine
 10
0.0
 20
0.0
 30
0.0
 11
0.0
 21
-2.500000000000002
 31
0.0
  0
LINE
  5
3F8
330
3F3
100
AcDbEntity
  8
中心线
 62
     0
100
AcDbLine
 10
0.0
 20
0.0
 30
0.0
 11
2.500000000000002
 21
0.0
 31
0.0
  0
LINE
  5
3F9
330
3F3
100
AcDbEntity
  8
中心线
 62
     0
100
AcDbLine
 10
0.0
 20
2.500000000000002
 30
0.0
 11
0.0
 21
4.000000000000003
 31
0.0
  0
LINE
  5
3FA
330
3F3
100
AcDbEntity
  8
中心线
 62
     0
100
AcDbLine
 10
-2.500000000000002
 20
0.0
 30
0.0
 11
-4.000000000000003
 21
0.0
 31
0.0
  0
LINE
  5
3FB
330
3F3
100
AcDbEntity
  8
中心线
 62
     0
100
AcDbLine
 10
0.0
 20
-2.500000000000002
 30
0.0
 11
0.0
 21
-4.000000000000003
 31
0.0
  0
LINE
  5
3FC
330
3F3
100
AcDbEntity
  8
中心线
 62
     0
100
AcDbLine
 10
2.500000000000002
 20
0.0
 30
0.0
 11
4.000000000000003
 21
0.0
 31
0.0
  0
ENDBLK
  5
3FD
330
3F3
100
AcDbEntity
  8
0
100
AcDbBlockEnd
  0
BLOCK
  5
3FF
330
3FE
100
AcDbEntity
  8
0
100
AcDbBlockBegin
  2
SW_CENTERMARKSYMBOL_1
 70
     0
 10
0.0
 20
0.0
 30
0.0
  3
SW_CENTERMARKSYMBOL_1
  1

  0
LINE
  5
400
330
3FE
100
AcDbEntity
  8
中心线
 62
     0
100
AcDbLine
 10
0.0
 20
0.0
 30
0.0
 11
0.0
 21
2.500000000000002
 31
0.0
  0
LINE
  5
401
330
3FE
100
AcDbEntity
  8
中心线
 62
     0
100
AcDbLine
 10
0.0
 20
0.0
 30
0.0
 11
-2.500000000000002
 21
0.0
 31
0.0
  0
LINE
  5
402
330
3FE
100
AcDbEntity
  8
中心线
 62
     0
100
AcDbLine
 10
0.0
 20
0.0
 30
0.0
 11
0.0
 21
-2.500000000000002
 31
0.0
  0
LINE
  5
403
330
3FE
100
AcDbEntity
  8
中心线
 62
     0
100
AcDbLine
 10
0.0
 20
0.0
 30
0.0
 11
2.500000000000002
 21
0.0
 31
0.0
  0
LINE
  5
404
330
3FE
100
AcDbEntity
  8
中心线
 62
     0
100
AcDbLine
 10
0.0
 20
2.500000000000002
 30
0.0
 11
0.0
 21
4.000000000000003
 31
0.0
  0
LINE
  5
405
330
3FE
100
AcDbEntity
  8
中心线
 62
     0
100
AcDbLine
 10
-2.500000000000002
 20
0.0
 30
0.0
 11
-4.000000000000003
 21
0.0
 31
0.0
  0
LINE
  5
406
330
3FE
100
AcDbEntity
  8
中心线
 62
     0
100
AcDbLine
 10
0.0
 20
-2.500000000000002
 30
0.0
 11
0.0
 21
-4.000000000000003
 31
0.0
  0
LINE
  5
407
330
3FE
100
AcDbEntity
  8
中心线
 62
     0
100
AcDbLine
 10
2.500000000000002
 20
0.0
 30
0.0
 11
4.000000000000003
 21
0.0
 31
0.0
  0
ENDBLK
  5
408
330
3FE
100
AcDbEntity
  8
0
100
AcDbBlockEnd
  0
BLOCK
  5
40A
330
409
100
AcDbEntity
  8
0
100
AcDbBlockBegin
  2
SW_CENTERMARKSYMBOL_2
 70
     0
 10
0.0
 20
0.0
 30
0.0
  3
SW_CENTERMARKSYMBOL_2
  1

  0
LINE
  5
40B
330
409
100
AcDbEntity
  8
中心线
 62
     0
100
AcDbLine
 10
0.0
 20
0.0
 30
0.0
 11
0.0
 21
2.500000000000002
 31
0.0
  0
LINE
  5
40C
330
409
100
AcDbEntity
  8
中心线
 62
     0
100
AcDbLine
 10
0.0
 20
0.0
 30
0.0
 11
-2.500000000000002
 21
0.0
 31
0.0
  0
LINE
  5
40D
330
409
100
AcDbEntity
  8
中心线
 62
     0
100
AcDbLine
 10
0.0
 20
0.0
 30
0.0
 11
0.0
 21
-2.500000000000002
 31
0.0
  0
LINE
  5
40E
330
409
100
AcDbEntity
  8
中心线
 62
     0
100
AcDbLine
 10
0.0
 20
0.0
 30
0.0
 11
2.500000000000002
 21
0.0
 31
0.0
  0
LINE
  5
40F
330
409
100
AcDbEntity
  8
中心线
 62
     0
100
AcDbLine
 10
0.0
 20
2.500000000000002
 30
0.0
 11
0.0
 21
4.000000000000003
 31
0.0
  0
LINE
  5
410
330
409
100
AcDbEntity
  8
中心线
 62
     0
100
AcDbLine
 10
-2.500000000000002
 20
0.0
 30
0.0
 11
-4.000000000000003
 21
0.0
 31
0.0
  0
LINE
  5
411
330
409
100
AcDbEntity
  8
中心线
 62
     0
100
AcDbLine
 10
0.0
 20
-2.500000000000002
 30
0.0
 11
0.0
 21
-4.000000000000003
 31
0.0
  0
LINE
  5
412
330
409
100
AcDbEntity
  8
中心线
 62
     0
100
AcDbLine
 10
2.500000000000002
 20
0.0
 30
0.0
 11
4.000000000000003
 21
0.0
 31
0.0
  0
ENDBLK
  5
413
330
409
100
AcDbEntity
  8
0
100
AcDbBlockEnd
  0
BLOCK
  5
415
330
414
100
AcDbEntity
  8
0
100
AcDbBlockBegin
  2
SW_CENTERMARKSYMBOL_3
 70
     0
 10
0.0
 20
0.0
 30
0.0
  3
SW_CENTERMARKSYMBOL_3
  1

  0
LINE
  5
416
330
414
100
AcDbEntity
  8
中心线
 62
     0
100
AcDbLine
 10
0.0
 20
0.0
 30
0.0
 11
0.0
 21
2.500000000000002
 31
0.0
  0
LINE
  5
417
330
414
100
AcDbEntity
  8
中心线
 62
     0
100
AcDbLine
 10
0.0
 20
0.0
 30
0.0
 11
-2.500000000000002
 21
0.0
 31
0.0
  0
LINE
  5
418
330
414
100
AcDbEntity
  8
中心线
 62
     0
100
AcDbLine
 10
0.0
 20
0.0
 30
0.0
 11
0.0
 21
-2.500000000000002
 31
0.0
  0
LINE
  5
419
330
414
100
AcDbEntity
  8
中心线
 62
     0
100
AcDbLine
 10
0.0
 20
0.0
 30
0.0
 11
2.500000000000002
 21
0.0
 31
0.0
  0
LINE
  5
41A
330
414
100
AcDbEntity
  8
中心线
 62
     0
100
AcDbLine
 10
0.0
 20
2.500000000000002
 30
0.0
 11
0.0
 21
4.000000000000003
 31
0.0
  0
LINE
  5
41B
330
414
100
AcDbEntity
  8
中心线
 62
     0
100
AcDbLine
 10
-2.500000000000002
 20
0.0
 30
0.0
 11
-4.000000000000003
 21
0.0
 31
0.0
  0
LINE
  5
41C
330
414
100
AcDbEntity
  8
中心线
 62
     0
100
AcDbLine
 10
0.0
 20
-2.500000000000002
 30
0.0
 11
0.0
 21
-4.000000000000003
 31
0.0
  0
LINE
  5
41D
330
414
100
AcDbEntity
  8
中心线
 62
     0
100
AcDbLine
 10
2.500000000000002
 20
0.0
 30
0.0
 11
4.000000000000003
 21
0.0
 31
0.0
  0
ENDBLK
  5
41E
330
414
100
AcDbEntity
  8
0
100
AcDbBlockEnd
  0
BLOCK
  5
420
330
41F
100
AcDbEntity
  8
0
100
AcDbBlockBegin
  2
SW_CENTERMARKSYMBOL_4
 70
     0
 10
0.0
 20
0.0
 30
0.0
  3
SW_CENTERMARKSYMBOL_4
  1

  0
LINE
  5
421
330
41F
100
AcDbEntity
  8
中心线
 62
     0
100
AcDbLine
 10
0.0
 20
0.0
 30
0.0
 11
0.0
 21
2.500000000000002
 31
0.0
  0
LINE
  5
422
330
41F
100
AcDbEntity
  8
中心线
 62
     0
100
AcDbLine
 10
0.0
 20
0.0
 30
0.0
 11
-2.500000000000002
 21
0.0
 31
0.0
  0
LINE
  5
423
330
41F
100
AcDbEntity
  8
中心线
 62
     0
100
AcDbLine
 10
0.0
 20
0.0
 30
0.0
 11
0.0
 21
-2.500000000000002
 31
0.0
  0
LINE
  5
424
330
41F
100
AcDbEntity
  8
中心线
 62
     0
100
AcDbLine
 10
0.0
 20
0.0
 30
0.0
 11
2.500000000000002
 21
0.0
 31
0.0
  0
LINE
  5
425
330
41F
100
AcDbEntity
  8
中心线
 62
     0
100
AcDbLine
 10
0.0
 20
5.000000000000004
 30
0.0
 11
0.0
 21
6.599999999999994
 31
0.0
  0
LINE
  5
426
330
41F
100
AcDbEntity
  8
中心线
 62
     0
100
AcDbLine
 10
-5.000000000000004
 20
0.0
 30
0.0
 11
-6.600000000000022
 21
0.0
 31
0.0
  0
LINE
  5
427
330
41F
100
AcDbEntity
  8
中心线
 62
     0
100
AcDbLine
 10
0.0
 20
-5.000000000000004
 30
0.0
 11
0.0
 21
-6.600000000000022
 31
0.0
  0
LINE
  5
428
330
41F
100
AcDbEntity
  8
中心线
 62
     0
100
AcDbLine
 10
4.999999999999976
 20
0.0
 30
0.0
 11
6.599999999999994
 21
0.0
 31
0.0
  0
ENDBLK
  5
429
330
41F
100
AcDbEntity
  8
0
100
AcDbBlockEnd
  0
BLOCK
  5
42B
330
42A
100
AcDbEntity
  8
0
100
AcDbBlockBegin
  2
SW_CENTERMARKSYMBOL_5
 70
     0
 10
0.0
 20
0.0
 30
0.0
  3
SW_CENTERMARKSYMBOL_5
  1

  0
LINE
  5
42C
330
42A
100
AcDbEntity
  8
中心线
 62
     0
100
AcDbLine
 10
0.0
 20
0.0
 30
0.0
 11
0.0
 21
2.500000000000002
 31
0.0
  0
LINE
  5
42D
330
42A
100
AcDbEntity
  8
中心线
 62
     0
100
AcDbLine
 10
0.0
 20
0.0
 30
0.0
 11
-2.500000000000002
 21
0.0
 31
0.0
  0
LINE
  5
42E
330
42A
100
AcDbEntity
  8
中心线
 62
     0
100
AcDbLine
 10
0.0
 20
0.0
 30
0.0
 11
0.0
 21
-2.500000000000002
 31
0.0
  0
LINE
  5
42F
330
42A
100
AcDbEntity
  8
中心线
 62
     0
100
AcDbLine
 10
0.0
 20
0.0
 30
0.0
 11
2.500000000000002
 21
0.0
 31
0.0
  0
LINE
  5
430
330
42A
100
AcDbEntity
  8
中心线
 62
     0
100
AcDbLine
 10
0.0
 20
5.000000000000004
 30
0.0
 11
0.0
 21
6.600000000000022
 31
0.0
  0
LINE
  5
431
330
42A
100
AcDbEntity
  8
中心线
 62
     0
100
AcDbLine
 10
-5.000000000000004
 20
0.0
 30
0.0
 11
-6.600000000000022
 21
0.0
 31
0.0
  0
LINE
  5
432
330
42A
100
AcDbEntity
  8
中心线
 62
     0
100
AcDbLine
 10
0.0
 20
-5.000000000000004
 30
0.0
 11
0.0
 21
-6.599999999999994
 31
0.0
  0
LINE
  5
433
330
42A
100
AcDbEntity
  8
中心线
 62
     0
100
AcDbLine
 10
4.999999999999976
 20
0.0
 30
0.0
 11
6.599999999999994
 21
0.0
 31
0.0
  0
ENDBLK
  5
434
330
42A
100
AcDbEntity
  8
0
100
AcDbBlockEnd
  0
BLOCK
  5
4A5
330
4A4
100
AcDbEntity
  8
0
100
AcDbBlockBegin
  2
SW_CENTERMARKSYMBOL_6
 70
     0
 10
0.0
 20
0.0
 30
0.0
  3
SW_CENTERMARKSYMBOL_6
  1

  0
LINE
  5
4A6
330
4A4
100
AcDbEntity
  8
中心线
 62
     0
100
AcDbLine
 10
0.0
 20
0.0
 30
0.0
 11
0.0
 21
2.500000000000002
 31
0.0
  0
LINE
  5
4A7
330
4A4
100
AcDbEntity
  8
中心线
 62
     0
100
AcDbLine
 10
0.0
 20
0.0
 30
0.0
 11
-2.500000000000002
 21
0.0
 31
0.0
  0
LINE
  5
4A8
330
4A4
100
AcDbEntity
  8
中心线
 62
     0
100
AcDbLine
 10
0.0
 20
0.0
 30
0.0
 11
0.0
 21
-2.499999999999974
 31
0.0
  0
LINE
  5
4A9
330
4A4
100
AcDbEntity
  8
中心线
 62
     0
100
AcDbLine
 10
0.0
 20
0.0
 30
0.0
 11
2.500000000000002
 21
0.0
 31
0.0
  0
LINE
  5
4AA
330
4A4
100
AcDbEntity
  8
中心线
 62
     0
100
AcDbLine
 10
0.0
 20
5.000000000000004
 30
0.0
 11
0.0
 21
6.000000000000005
 31
0.0
  0
LINE
  5
4AB
330
4A4
100
AcDbEntity
  8
中心线
 62
     0
100
AcDbLine
 10
-5.000000000000004
 20
0.0
 30
0.0
 11
-6.000000000000005
 21
0.0
 31
0.0
  0
LINE
  5
4AC
330
4A4
100
AcDbEntity
  8
中心线
 62
     0
100
AcDbLine
 10
0.0
 20
-4.999999999999976
 30
0.0
 11
0.0
 21
-6.000000000000005
 31
0.0
  0
LINE
  5
4AD
330
4A4
100
AcDbEntity
  8
中心线
 62
     0
100
AcDbLine
 10
5.000000000000004
 20
0.0
 30
0.0
 11
6.000000000000005
 21
0.0
 31
0.0
  0
ENDBLK
  5
4AE
330
4A4
100
AcDbEntity
  8
0
100
AcDbBlockEnd
  0
BLOCK
  5
4B0
330
4AF
100
AcDbEntity
  8
0
100
AcDbBlockBegin
  2
SW_CENTERMARKSYMBOL_7
 70
     0
 10
0.0
 20
0.0
 30
0.0
  3
SW_CENTERMARKSYMBOL_7
  1

  0
LINE
  5
4B1
330
4AF
100
AcDbEntity
  8
中心线
 62
     0
100
AcDbLine
 10
0.0
 20
0.0
 30
0.0
 11
0.0
 21
2.500000000000002
 31
0.0
  0
LINE
  5
4B2
330
4AF
100
AcDbEntity
  8
中心线
 62
     0
100
AcDbLine
 10
0.0
 20
0.0
 30
0.0
 11
-2.500000000000002
 21
0.0
 31
0.0
  0
LINE
  5
4B3
330
4AF
100
AcDbEntity
  8
中心线
 62
     0
100
AcDbLine
 10
0.0
 20
0.0
 30
0.0
 11
0.0
 21
-2.500000000000002
 31
0.0
  0
LINE
  5
4B4
330
4AF
100
AcDbEntity
  8
中心线
 62
     0
100
AcDbLine
 10
0.0
 20
0.0
 30
0.0
 11
2.500000000000002
 21
0.0
 31
0.0
  0
LINE
  5
4B5
330
4AF
100
AcDbEntity
  8
中心线
 62
     0
100
AcDbLine
 10
0.0
 20
2.500000000000002
 30
0.0
 11
0.0
 21
4.000000000000003
 31
0.0
  0
LINE
  5
4B6
330
4AF
100
AcDbEntity
  8
中心线
 62
     0
100
AcDbLine
 10
-2.500000000000002
 20
0.0
 30
0.0
 11
-4.000000000000003
 21
0.0
 31
0.0
  0
LINE
  5
4B7
330
4AF
100
AcDbEntity
  8
中心线
 62
     0
100
AcDbLine
 10
0.0
 20
-2.500000000000002
 30
0.0
 11
0.0
 21
-4.000000000000003
 31
0.0
  0
LINE
  5
4B8
330
4AF
100
AcDbEntity
  8
中心线
 62
     0
100
AcDbLine
 10
2.500000000000002
 20
0.0
 30
0.0
 11
4.000000000000003
 21
0.0
 31
0.0
  0
ENDBLK
  5
4B9
330
4AF
100
AcDbEntity
  8
0
100
AcDbBlockEnd
  0
BLOCK
  5
4BB
330
4BA
100
AcDbEntity
  8
0
100
AcDbBlockBegin
  2
SW_CENTERMARKSYMBOL_8
 70
     0
 10
0.0
 20
0.0
 30
0.0
  3
SW_CENTERMARKSYMBOL_8
  1

  0
LINE
  5
4BC
330
4BA
100
AcDbEntity
  8
中心线
 62
     0
100
AcDbLine
 10
0.0
 20
0.0
 30
0.0
 11
0.0
 21
2.500000000000002
 31
0.0
  0
LINE
  5
4BD
330
4BA
100
AcDbEntity
  8
中心线
 62
     0
100
AcDbLine
 10
0.0
 20
0.0
 30
0.0
 11
-2.500000000000002
 21
0.0
 31
0.0
  0
LINE
  5
4BE
330
4BA
100
AcDbEntity
  8
中心线
 62
     0
100
AcDbLine
 10
0.0
 20
0.0
 30
0.0
 11
0.0
 21
-2.500000000000002
 31
0.0
  0
LINE
  5
4BF
330
4BA
100
AcDbEntity
  8
中心线
 62
     0
100
AcDbLine
 10
0.0
 20
0.0
 30
0.0
 11
2.500000000000002
 21
0.0
 31
0.0
  0
LINE
  5
4C0
330
4BA
100
AcDbEntity
  8
中心线
 62
     0
100
AcDbLine
 10
0.0
 20
2.500000000000002
 30
0.0
 11
0.0
 21
4.249999999999976
 31
0.0
  0
LINE
  5
4C1
330
4BA
100
AcDbEntity
  8
中心线
 62
     0
100
AcDbLine
 10
-2.500000000000002
 20
0.0
 30
0.0
 11
-4.250000000000003
 21
0.0
 31
0.0
  0
LINE
  5
4C2
330
4BA
100
AcDbEntity
  8
中心线
 62
     0
100
AcDbLine
 10
0.0
 20
-2.500000000000002
 30
0.0
 11
0.0
 21
-4.250000000000003
 31
0.0
  0
LINE
  5
4C3
330
4BA
100
AcDbEntity
  8
中心线
 62
     0
100
AcDbLine
 10
2.500000000000002
 20
0.0
 30
0.0
 11
4.250000000000003
 21
0.0
 31
0.0
  0
ENDBLK
  5
4C4
330
4BA
100
AcDbEntity
  8
0
100
AcDbBlockEnd
  0
BLOCK
  5
4C6
330
4C5
100
AcDbEntity
  8
0
100
AcDbBlockBegin
  2
SW_CENTERMARKSYMBOL_9
 70
     0
 10
0.0
 20
0.0
 30
0.0
  3
SW_CENTERMARKSYMBOL_9
  1

  0
LINE
  5
4C7
330
4C5
100
AcDbEntity
  8
中心线
 62
     0
100
AcDbLine
 10
0.0
 20
0.0
 30
0.0
 11
0.0
 21
2.500000000000002
 31
0.0
  0
LINE
  5
4C8
330
4C5
100
AcDbEntity
  8
中心线
 62
     0
100
AcDbLine
 10
0.0
 20
0.0
 30
0.0
 11
-2.500000000000002
 21
0.0
 31
0.0
  0
LINE
  5
4C9
330
4C5
100
AcDbEntity
  8
中心线
 62
     0
100
AcDbLine
 10
0.0
 20
0.0
 30
0.0
 11
0.0
 21
-2.500000000000002
 31
0.0
  0
LINE
  5
4CA
330
4C5
100
AcDbEntity
  8
中心线
 62
     0
100
AcDbLine
 10
0.0
 20
0.0
 30
0.0
 11
2.500000000000002
 21
0.0
 31
0.0
  0
LINE
  5
4CB
330
4C5
100
AcDbEntity
  8
中心线
 62
     0
100
AcDbLine
 10
0.0
 20
2.500000000000002
 30
0.0
 11
0.0
 21
3.999999999999976
 31
0.0
  0
LINE
  5
4CC
330
4C5
100
AcDbEntity
  8
中心线
 62
     0
100
AcDbLine
 10
-2.500000000000002
 20
0.0
 30
0.0
 11
-3.999999999999976
 21
0.0
 31
0.0
  0
LINE
  5
4CD
330
4C5
100
AcDbEntity
  8
中心线
 62
     0
100
AcDbLine
 10
0.0
 20
-2.500000000000002
 30
0.0
 11
0.0
 21
-4.000000000000003
 31
0.0
  0
LINE
  5
4CE
330
4C5
100
AcDbEntity
  8
中心线
 62
     0
100
AcDbLine
 10
2.500000000000002
 20
0.0
 30
0.0
 11
4.000000000000003
 21
0.0
 31
0.0
  0
ENDBLK
  5
4CF
330
4C5
100
AcDbEntity
  8
0
100
AcDbBlockEnd
  0
BLOCK
  5
4D1
330
4D0
100
AcDbEntity
  8
0
100
AcDbBlockBegin
  2
SW_CENTERMARKSYMBOL_10
 70
     0
 10
0.0
 20
0.0
 30
0.0
  3
SW_CENTERMARKSYMBOL_10
  1

  0
LINE
  5
4D2
330
4D0
100
AcDbEntity
  8
中心线
 62
     0
100
AcDbLine
 10
0.0
 20
0.0
 30
0.0
 11
0.0
 21
2.500000000000002
 31
0.0
  0
LINE
  5
4D3
330
4D0
100
AcDbEntity
  8
中心线
 62
     0
100
AcDbLine
 10
0.0
 20
0.0
 30
0.0
 11
-2.500000000000002
 21
0.0
 31
0.0
  0
LINE
  5
4D4
330
4D0
100
AcDbEntity
  8
中心线
 62
     0
100
AcDbLine
 10
0.0
 20
0.0
 30
0.0
 11
0.0
 21
-2.500000000000002
 31
0.0
  0
LINE
  5
4D5
330
4D0
100
AcDbEntity
  8
中心线
 62
     0
100
AcDbLine
 10
0.0
 20
0.0
 30
0.0
 11
2.500000000000002
 21
0.0
 31
0.0
  0
LINE
  5
4D6
330
4D0
100
AcDbEntity
  8
中心线
 62
     0
100
AcDbLine
 10
0.0
 20
2.500000000000002
 30
0.0
 11
0.0
 21
3.999999999999976
 31
0.0
  0
LINE
  5
4D7
330
4D0
100
AcDbEntity
  8
中心线
 62
     0
100
AcDbLine
 10
-2.500000000000002
 20
0.0
 30
0.0
 11
-3.999999999999976
 21
0.0
 31
0.0
  0
LINE
  5
4D8
330
4D0
100
AcDbEntity
  8
中心线
 62
     0
100
AcDbLine
 10
0.0
 20
-2.500000000000002
 30
0.0
 11
0.0
 21
-4.000000000000003
 31
0.0
  0
LINE
  5
4D9
330
4D0
100
AcDbEntity
  8
中心线
 62
     0
100
AcDbLine
 10
2.500000000000002
 20
0.0
 30
0.0
 11
4.000000000000003
 21
0.0
 31
0.0
  0
ENDBLK
  5
4DA
330
4D0
100
AcDbEntity
  8
0
100
AcDbBlockEnd
  0
BLOCK
  5
4DC
330
4DB
100
AcDbEntity
  8
0
100
AcDbBlockBegin
  2
SW_CENTERMARKSYMBOL_11
 70
     0
 10
0.0
 20
0.0
 30
0.0
  3
SW_CENTERMARKSYMBOL_11
  1

  0
LINE
  5
4DD
330
4DB
100
AcDbEntity
  8
中心线
 62
     0
100
AcDbLine
 10
0.0
 20
0.0
 30
0.0
 11
0.0
 21
2.500000000000002
 31
0.0
  0
LINE
  5
4DE
330
4DB
100
AcDbEntity
  8
中心线
 62
     0
100
AcDbLine
 10
0.0
 20
0.0
 30
0.0
 11
-2.500000000000002
 21
0.0
 31
0.0
  0
LINE
  5
4DF
330
4DB
100
AcDbEntity
  8
中心线
 62
     0
100
AcDbLine
 10
0.0
 20
0.0
 30
0.0
 11
0.0
 21
-2.500000000000002
 31
0.0
  0
LINE
  5
4E0
330
4DB
100
AcDbEntity
  8
中心线
 62
     0
100
AcDbLine
 10
0.0
 20
0.0
 30
0.0
 11
2.500000000000002
 21
0.0
 31
0.0
  0
LINE
  5
4E1
330
4DB
100
AcDbEntity
  8
中心线
 62
     0
100
AcDbLine
 10
0.0
 20
2.500000000000002
 30
0.0
 11
0.0
 21
4.000000000000003
 31
0.0
  0
LINE
  5
4E2
330
4DB
100
AcDbEntity
  8
中心线
 62
     0
100
AcDbLine
 10
-2.500000000000002
 20
0.0
 30
0.0
 11
-3.999999999999976
 21
0.0
 31
0.0
  0
LINE
  5
4E3
330
4DB
100
AcDbEntity
  8
中心线
 62
     0
100
AcDbLine
 10
0.0
 20
-2.500000000000002
 30
0.0
 11
0.0
 21
-3.999999999999976
 31
0.0
  0
LINE
  5
4E4
330
4DB
100
AcDbEntity
  8
中心线
 62
     0
100
AcDbLine
 10
2.500000000000002
 20
0.0
 30
0.0
 11
4.000000000000003
 21
0.0
 31
0.0
  0
ENDBLK
  5
4E5
330
4DB
100
AcDbEntity
  8
0
100
AcDbBlockEnd
  0
BLOCK
  5
4E7
330
4E6
100
AcDbEntity
  8
0
100
AcDbBlockBegin
  2
SW_CENTERMARKSYMBOL_12
 70
     0
 10
0.0
 20
0.0
 30
0.0
  3
SW_CENTERMARKSYMBOL_12
  1

  0
LINE
  5
4E8
330
4E6
100
AcDbEntity
  8
中心线
 62
     0
100
AcDbLine
 10
0.0
 20
0.0
 30
0.0
 11
0.0
 21
2.500000000000002
 31
0.0
  0
LINE
  5
4E9
330
4E6
100
AcDbEntity
  8
中心线
 62
     0
100
AcDbLine
 10
0.0
 20
0.0
 30
0.0
 11
-2.500000000000002
 21
0.0
 31
0.0
  0
LINE
  5
4EA
330
4E6
100
AcDbEntity
  8
中心线
 62
     0
100
AcDbLine
 10
0.0
 20
0.0
 30
0.0
 11
0.0
 21
-2.500000000000002
 31
0.0
  0
LINE
  5
4EB
330
4E6
100
AcDbEntity
  8
中心线
 62
     0
100
AcDbLine
 10
0.0
 20
0.0
 30
0.0
 11
2.500000000000002
 21
0.0
 31
0.0
  0
LINE
  5
4EC
330
4E6
100
AcDbEntity
  8
中心线
 62
     0
100
AcDbLine
 10
0.0
 20
2.500000000000002
 30
0.0
 11
0.0
 21
4.000000000000003
 31
0.0
  0
LINE
  5
4ED
330
4E6
100
AcDbEntity
  8
中心线
 62
     0
100
AcDbLine
 10
-2.500000000000002
 20
0.0
 30
0.0
 11
-3.999999999999989
 21
0.0
 31
0.0
  0
LINE
  5
4EE
330
4E6
100
AcDbEntity
  8
中心线
 62
     0
100
AcDbLine
 10
0.0
 20
-2.500000000000002
 30
0.0
 11
0.0
 21
-3.999999999999976
 31
0.0
  0
LINE
  5
4EF
330
4E6
100
AcDbEntity
  8
中心线
 62
     0
100
AcDbLine
 10
2.500000000000002
 20
0.0
 30
0.0
 11
3.999999999999989
 21
0.0
 31
0.0
  0
ENDBLK
  5
4F0
330
4E6
100
AcDbEntity
  8
0
100
AcDbBlockEnd
  0
BLOCK
  5
910
330
90D
100
AcDbEntity
  8
0
100
AcDbBlockBegin
  2
_OBLIQUE
 70
     0
 10
0.0
 20
0.0
 30
0.0
  3
_OBLIQUE
  1

  0
LINE
  5
911
330
90D
100
AcDbEntity
  8
0
  6
ByBlock
 62
     0
100
AcDbLine
 10
-0.5
 20
-0.5
 30
0.0
 11
0.5
 21
0.5
 31
0.0
  0
ENDBLK
  5
912
330
90D
100
AcDbEntity
  8
0
100
AcDbBlockEnd
  0
BLOCK
  5
1009
330
1008
100
AcDbEntity
  8
0
100
AcDbBlockBegin
  2
_ArchTick
 70
     0
 10
0.0
 20
0.0
 30
0.0
  3
_ArchTick
  1

  0
LWPOLYLINE
  5
100A
330
1008
100
AcDbEntity
  8
0
  6
ByBlock
 62
     0
100
AcDbPolyline
 90
        2
 70
     0
 43
0.4
 10
-0.5
 20
-0.5
 10
0.5
 20
0.5
  0
ENDBLK
  5
100B
330
1008
100
AcDbEntity
  8
0
100
AcDbBlockEnd
  0
BLOCK
  5
17E5
330
17E4
100
AcDbEntity
  8
0
100
AcDbBlockBegin
  2
*D20
 70
     1
 10
0.0
 20
0.0
 30
0.0
  3
*D20
  1

  0
LINE
  5
188A
330
17E4
100
AcDbEntity
  8
0
 62
     3
440
 16777216
370
    -2
100
AcDbLine
 10
318.748250072822
 20
87.23098302648953
 30
0.0
 11
311.6737700140244
 21
87.23098302648953
 31
0.0
  0
LINE
  5
188B
330
17E4
100
AcDbEntity
  8
0
 62
     3
440
 16777216
370
    -2
100
AcDbLine
 10
318.748250072822
 20
85.73098301345101
 30
0.0
 11
311.6737700140244
 21
85.73098301345101
 31
0.0
  0
LINE
  5
188C
330
17E4
100
AcDbEntity
  8
0
 62
     3
440
 16777216
370
    -2
100
AcDbLine
 10
313.6737700140244
 20
89.23098302648952
 30
0.0
 11
313.6737700140244
 21
91.23098302648953
 31
0.0
  0
LINE
  5
188D
330
17E4
100
AcDbEntity
  8
0
 62
     3
440
 16777216
370
    -2
100
AcDbLine
 10
313.6737700140244
 20
83.730983013451
 30
0.0
 11
313.6737700140244
 21
81.73098301345101
 31
0.0
  0
LINE
  5
188E
330
17E4
100
AcDbEntity
  8
0
 62
     3
440
 16777216
370
    -2
100
AcDbLine
 10
313.6737700140244
 20
81.73098301345101
 30
0.0
 11
308.117986680691
 21
81.73098301345101
 31
0.0
  0
LINE
  5
188F
330
17E4
100
AcDbEntity
  8
0
 62
     3
440
 16777216
370
    -2
100
AcDbLine
 10
313.6737700140244
 20
87.23098302648953
 30
0.0
 11
313.6737700140244
 21
85.73098301345101
 31
0.0
  0
SOLID
  5
1890
330
17E4
100
AcDbEntity
  8
0
 62
     3
440
 16777216
100
AcDbTrace
 10
313.3404366806911
 20
89.23098302648952
 30
0.0
 11
314.0071033473577
 21
89.23098302648952
 31
0.0
 12
313.6737700140244
 22
87.23098302648953
 32
0.0
 13
313.6737700140244
 23
87.23098302648953
 33
0.0
  0
SOLID
  5
1891
330
17E4
100
AcDbEntity
  8
0
 62
     3
440
 16777216
100
AcDbTrace
 10
313.3404366806911
 20
83.730983013451
 30
0.0
 11
314.0071033473577
 21
83.730983013451
 31
0.0
 12
313.6737700140244
 22
85.73098301345101
 32
0.0
 13
313.6737700140244
 23
85.73098301345101
 33
0.0
  0
MTEXT
  5
1892
330
17E4
100
AcDbEntity
  8
0
 62
     3
440
 16777216
100
AcDbMText
 10
310.3958783473577
 20
84.48098301345106
 30
0.0
 40
3.5
 41
0.0
 46
0.0
 71
     5
 72
     1
  1
\A1;1.5
  7
R
 73
     1
 44
1.0
  0
POINT
  5
1893
330
17E4
100
AcDbEntity
  8
Defpoints
 62
     0
440
 16777216
100
AcDbPoint
 10
318.748250072822
 20
87.23098302648953
 30
0.0
  0
POINT
  5
1894
330
17E4
100
AcDbEntity
  8
Defpoints
 62
     0
440
 16777216
100
AcDbPoint
 10
318.748250072822
 20
85.73098301345101
 30
0.0
  0
POINT
  5
1895
330
17E4
100
AcDbEntity
  8
Defpoints
 62
     0
440
 16777216
100
AcDbPoint
 10
313.6737700140244
 20
85.73098301345101
 30
0.0
  0
ENDBLK
  5
17E6
330
17E4
100
AcDbEntity
  8
0
100
AcDbBlockEnd
  0
BLOCK
  5
17F4
330
17F3
100
AcDbEntity
  8
0
100
AcDbBlockBegin
  2
*D21
 70
     1
 10
0.0
 20
0.0
 30
0.0
  3
*D21
  1

  0
LINE
  5
1896
330
17F3
100
AcDbEntity
  8
0
 62
     3
440
 16777216
370
    -2
100
AcDbLine
 10
318.748250072822
 20
151.8663923293725
 30
0.0
 11
318.748250072822
 21
169.5579677900941
 31
0.0
  0
LINE
  5
1897
330
17F3
100
AcDbEntity
  8
0
 62
     3
440
 16777216
370
    -2
100
AcDbLine
 10
427.7482474502176
 20
151.8663923293725
 30
0.0
 11
427.7482474502176
 21
169.5579677900941
 31
0.0
  0
LINE
  5
1898
330
17F3
100
AcDbEntity
  8
0
 62
     3
440
 16777216
370
    -2
100
AcDbLine
 10
320.748250072822
 20
167.5579677900941
 30
0.0
 11
425.7482474502175
 21
167.5579677900941
 31
0.0
  0
SOLID
  5
1899
330
17F3
100
AcDbEntity
  8
0
 62
     3
440
 16777216
100
AcDbTrace
 10
320.748250072822
 20
167.8913011234275
 30
0.0
 11
320.748250072822
 21
167.2246344567608
 31
0.0
 12
318.748250072822
 22
167.5579677900941
 32
0.0
 13
318.748250072822
 23
167.5579677900941
 33
0.0
  0
SOLID
  5
189A
330
17F3
100
AcDbEntity
  8
0
 62
     3
440
 16777216
100
AcDbTrace
 10
425.7482474502175
 20
167.8913011234275
 30
0.0
 11
425.7482474502175
 21
167.2246344567608
 31
0.0
 12
427.7482474502176
 22
167.5579677900941
 32
0.0
 13
427.7482474502176
 23
167.5579677900941
 33
0.0
  0
MTEXT
  5
189B
330
17F3
100
AcDbEntity
  8
0
 62
     3
440
 16777216
100
AcDbMText
 10
373.2482487615198
 20
170.3079677900942
 30
0.0
 40
3.5
 41
0.0
 46
0.0
 71
     5
 72
     1
  1
\A1;109
  7
R
 73
     1
 44
1.0
  0
POINT
  5
189C
330
17F3
100
AcDbEntity
  8
Defpoints
 62
     0
440
 16777216
100
AcDbPoint
 10
318.748250072822
 20
151.8663923293725
 30
0.0
  0
POINT
  5
189D
330
17F3
100
AcDbEntity
  8
Defpoints
 62
     0
440
 16777216
100
AcDbPoint
 10
427.7482474502176
 20
151.8663923293725
 30
0.0
  0
POINT
  5
189E
330
17F3
100
AcDbEntity
  8
Defpoints
 62
     0
440
 16777216
100
AcDbPoint
 10
427.7482474502176
 20
167.5579677900941
 30
0.0
  0
ENDBLK
  5
17F5
330
17F3
100
AcDbEntity
  8
0
100
AcDbBlockEnd
  0
BLOCK
  5
1800
330
17FF
100
AcDbEntity
  8
0
100
AcDbBlockBegin
  2
*D22
 70
     1
 10
0.0
 20
0.0
 30
0.0
  3
*D22
  1

  0
LINE
  5
189F
330
17FF
100
AcDbEntity
  8
0
 62
     3
440
 16777216
370
    -2
100
AcDbLine
 10
321.2482476886362
 20
154.3663918078319
 30
0.0
 11
303.611842928861
 21
154.3663918078319
 31
0.0
  0
LINE
  5
18A0
330
17FF
100
AcDbEntity
  8
0
 62
     3
440
 16777216
370
    -2
100
AcDbLine
 10
321.2482476886362
 20
101.3663924336807
 30
0.0
 11
303.611842928861
 21
101.3663924336807
 31
0.0
  0
LINE
  5
18A1
330
17FF
100
AcDbEntity
  8
0
 62
     3
440
 16777216
370
    -2
100
AcDbLine
 10
305.611842928861
 20
152.3663918078319
 30
0.0
 11
305.611842928861
 21
103.3663924336807
 31
0.0
  0
SOLID
  5
18A2
330
17FF
100
AcDbEntity
  8
0
 62
     3
440
 16777216
100
AcDbTrace
 10
305.2785095955277
 20
152.3663918078319
 30
0.0
 11
305.9451762621943
 21
152.3663918078319
 31
0.0
 12
305.611842928861
 22
154.3663918078319
 32
0.0
 13
305.611842928861
 23
154.3663918078319
 33
0.0
  0
SOLID
  5
18A3
330
17FF
100
AcDbEntity
  8
0
 62
     3
440
 16777216
100
AcDbTrace
 10
305.2785095955276
 20
103.3663924336807
 30
0.0
 11
305.9451762621943
 21
103.3663924336807
 31
0.0
 12
305.611842928861
 22
101.3663924336807
 32
0.0
 13
305.611842928861
 23
101.3663924336807
 33
0.0
  0
MTEXT
  5
18A4
330
17FF
100
AcDbEntity
  8
0
 62
     3
440
 16777216
100
AcDbMText
 10
302.8618429288609
 20
127.8663921207563
 30
0.0
 40
3.5
 41
0.0
 46
0.0
 71
     5
 72
     1
  1
\A1;53
  7
R
 11
0.0000000000000001
 21
1.0
 31
0.0
 73
     1
 44
1.0
  0
POINT
  5
18A5
330
17FF
100
AcDbEntity
  8
Defpoints
 62
     0
440
 16777216
100
AcDbPoint
 10
321.2482476886362
 20
154.3663918078319
 30
0.0
  0
POINT
  5
18A6
330
17FF
100
AcDbEntity
  8
Defpoints
 62
     0
440
 16777216
100
AcDbPoint
 10
321.2482476886362
 20
101.3663924336807
 30
0.0
  0
POINT
  5
18A7
330
17FF
100
AcDbEntity
  8
Defpoints
 62
     0
440
 16777216
100
AcDbPoint
 10
305.611842928861
 20
101.3663924336807
 30
0.0
  0
ENDBLK
  5
1801
330
17FF
100
AcDbEntity
  8
0
100
AcDbBlockEnd
  0
BLOCK
  5
1BD0
330
1BCF
100
AcDbEntity
  8
0
100
AcDbBlockBegin
  2
*D23
 70
     1
 10
0.0
 20
0.0
 30
0.0
  3
*D23
  1

  0
LINE
  5
1BD2
330
1BCF
100
AcDbEntity
  8
0
 62
     3
440
 16777216
370
    -2
100
AcDbLine
 10
385.604634918603
 20
143.3671145903215
 30
0.0
 11
390.271484918603
 21
143.3671145903215
 31
0.0
  0
LINE
  5
1BD3
330
1BCF
100
AcDbEntity
  8
0
 62
     3
440
 16777216
370
    -2
100
AcDbLine
 10
390.271484918603
 20
143.3671145903215
 30
0.0
 11
391.9566430241158
 21
142.2899692150707
 31
0.0
  0
LINE
  5
1BD4
330
1BCF
100
AcDbEntity
  8
0
 62
     3
440
 16777216
370
    -2
100
AcDbLine
 10
399.5398544989237
 20
137.4428150264417
 30
0.0
 11
401.2250126044365
 21
136.3656696511909
 31
0.0
  0
MTEXT
  5
1BD5
330
1BCF
100
AcDbEntity
  8
0
 62
     3
440
 16777216
100
AcDbMText
 10
387.438059918603
 20
146.1171145903216
 30
0.0
 40
3.5
 41
0.0
 46
0.0
 71
     5
 72
     1
  1
\A1;∅5
  7
R
 73
     1
 44
1.0
  0
LINE
  5
1BD6
330
1BCF
100
AcDbEntity
  8
0
 62
     3
440
 16777216
370
    -2
100
AcDbLine
 10
397.8546963934108
 20
138.5199604016926
 30
0.0
 11
393.6418011296287
 21
141.2128238398198
 31
0.0
  0
SOLID
  5
1BD7
330
1BCF
100
AcDbEntity
  8
0
 62
     3
440
 16777216
100
AcDbTrace
 10
399.7193787281322
 20
137.7236747106939
 30
0.0
 11
399.3603302697152
 21
137.1619553421896
 31
0.0
 12
397.8546963934108
 22
138.5199604016926
 32
0.0
 13
397.8546963934108
 23
138.5199604016926
 33
0.0
  0
SOLID
  5
1BD8
330
1BCF
100
AcDbEntity
  8
0
 62
     3
440
 16777216
100
AcDbTrace
 10
392.1361672533243
 20
142.5708288993228
 30
0.0
 11
391.7771187949073
 21
142.0091095308186
 31
0.0
 12
393.6418011296287
 22
141.2128238398198
 32
0.0
 13
393.6418011296287
 23
141.2128238398198
 33
0.0
  0
POINT
  5
1BD9
330
1BCF
100
AcDbEntity
  8
Defpoints
 62
     0
440
 16777216
100
AcDbPoint
 10
393.6418011296287
 20
141.2128238398198
 30
0.0
  0
POINT
  5
1BDA
330
1BCF
100
AcDbEntity
  8
Defpoints
 62
     0
440
 16777216
100
AcDbPoint
 10
397.8546963934108
 20
138.5199604016926
 30
0.0
  0
ENDBLK
  5
1BD1
330
1BCF
100
AcDbEntity
  8
0
100
AcDbBlockEnd
  0
BLOCK
  5
1C7F
330
1C7E
100
AcDbEntity
  8
0
100
AcDbBlockBegin
  2
*D24
 70
     1
 10
0.0
 20
0.0
 30
0.0
  3
*D24
  1

  0
LINE
  5
1C81
330
1C7E
100
AcDbEntity
  8
0
 62
     3
440
 16777216
370
    -2
100
AcDbLine
 10
428.0618177068029
 20
119.9836048835501
 30
0.0
 11
423.394967706803
 21
119.9836048835501
 31
0.0
  0
LINE
  5
1C82
330
1C7E
100
AcDbEntity
  8
0
 62
     3
440
 16777216
370
    -2
100
AcDbLine
 10
423.394967706803
 20
119.9836048835501
 30
0.0
 11
422.0688880903363
 21
118.4864366061705
 31
0.0
  0
LINE
  5
1C83
330
1C7E
100
AcDbEntity
  8
0
 62
     3
440
 16777216
370
    -2
100
AcDbLine
 10
417.4276094327032
 20
113.246347635342
 30
0.0
 11
416.1015298162366
 21
111.7491793579624
 31
0.0
  0
MTEXT
  5
1C84
330
1C7E
100
AcDbEntity
  8
0
 62
     3
440
 16777216
100
AcDbMText
 10
426.2283927068029
 20
122.7336048835501
 30
0.0
 40
3.5
 41
0.0
 46
0.0
 71
     5
 72
     1
  1
\A1;∅3
  7
R
 73
     1
 44
1.0
  0
LINE
  5
1C85
330
1C7E
100
AcDbEntity
  8
0
 62
     3
440
 16777216
370
    -2
100
AcDbLine
 10
418.7536890491698
 20
114.7435159127216
 30
0.0
 11
420.7428084738698
 21
116.9892683287909
 31
0.0
  0
SOLID
  5
1C86
330
1C7E
100
AcDbEntity
  8
0
 62
     3
440
 16777216
100
AcDbTrace
 10
417.1780813864732
 20
113.4673609047531
 30
0.0
 11
417.6771374789332
 21
113.0253343659309
 31
0.0
 12
418.7536890491698
 22
114.7435159127216
 32
0.0
 13
418.7536890491698
 23
114.7435159127216
 33
0.0
  0
SOLID
  5
1C87
330
1C7E
100
AcDbEntity
  8
0
 62
     3
440
 16777216
100
AcDbTrace
 10
421.8193600441064
 20
118.7074498755816
 30
0.0
 11
422.3184161365662
 21
118.2654233367594
 31
0.0
 12
420.7428084738698
 22
116.9892683287909
 32
0.0
 13
420.7428084738698
 23
116.9892683287909
 33
0.0
  0
POINT
  5
1C88
330
1C7E
100
AcDbEntity
  8
Defpoints
 62
     0
440
 16777216
100
AcDbPoint
 10
420.7428084738698
 20
116.9892683287909
 30
0.0
  0
POINT
  5
1C89
330
1C7E
100
AcDbEntity
  8
Defpoints
 62
     0
440
 16777216
100
AcDbPoint
 10
418.7536890491698
 20
114.7435159127216
 30
0.0
  0
ENDBLK
  5
1C80
330
1C7E
100
AcDbEntity
  8
0
100
AcDbBlockEnd
  0
BLOCK
  5
1C8C
330
1C8B
100
AcDbEntity
  8
0
100
AcDbBlockBegin
  2
*D25
 70
     1
 10
0.0
 20
0.0
 30
0.0
  3
*D25
  1

  0
LINE
  5
1C8E
330
1C8B
100
AcDbEntity
  8
0
 62
     3
440
 16777216
370
    -2
100
AcDbLine
 10
434.3525349891407
 20
114.7495388528794
 30
0.0
 11
429.6856849891407
 21
114.7495388528794
 31
0.0
  0
LINE
  5
1C8F
330
1C8B
100
AcDbEntity
  8
0
 62
     3
440
 16777216
370
    -2
100
AcDbLine
 10
429.6856849891407
 20
114.7495388528794
 30
0.0
 11
424.2200950639491
 21
115.3638081502116
 31
0.0
  0
LINE
  5
1C90
330
1C8B
100
AcDbEntity
  8
0
 62
     3
440
 16777216
370
    -2
100
AcDbLine
 10
415.2764024590902
 20
116.3689760913008
 30
0.0
 11
413.2889152135661
 21
116.5923467448762
 31
0.0
  0
MTEXT
  5
1C91
330
1C8B
100
AcDbEntity
  8
0
 62
     3
440
 16777216
100
AcDbMText
 10
432.5191099891407
 20
117.4995388528794
 30
0.0
 40
3.5
 41
0.0
 46
0.0
 71
     5
 72
     1
  1
\A1;∅5
  7
R
 73
     1
 44
1.0
  0
LINE
  5
1C92
330
1C8B
100
AcDbEntity
  8
0
 62
     3
440
 16777216
370
    -2
100
AcDbLine
 10
417.2638897046144
 20
116.1456054377255
 30
0.0
 11
422.232607818425
 21
115.587178803787
 31
0.0
  0
SOLID
  5
1C93
330
1C8B
100
AcDbEntity
  8
0
 62
     3
440
 16777216
100
AcDbTrace
 10
415.3136309013529
 20
116.7002239655549
 30
0.0
 11
415.2391740168277
 21
116.0377282170468
 31
0.0
 12
417.2638897046144
 22
116.1456054377255
 32
0.0
 13
417.2638897046144
 23
116.1456054377255
 33
0.0
  0
SOLID
  5
1C94
330
1C8B
100
AcDbEntity
  8
0
 62
     3
440
 16777216
100
AcDbTrace
 10
424.2573235062117
 20
115.6950560244657
 30
0.0
 11
424.1828666216866
 21
115.0325602759576
 31
0.0
 12
422.232607818425
 22
115.587178803787
 32
0.0
 13
422.232607818425
 23
115.587178803787
 33
0.0
  0
POINT
  5
1C95
330
1C8B
100
AcDbEntity
  8
Defpoints
 62
     0
440
 16777216
100
AcDbPoint
 10
422.232607818425
 20
115.587178803787
 30
0.0
  0
POINT
  5
1C96
330
1C8B
100
AcDbEntity
  8
Defpoints
 62
     0
440
 16777216
100
AcDbPoint
 10
417.2638897046144
 20
116.1456054377255
 30
0.0
  0
ENDBLK
  5
1C8D
330
1C8B
100
AcDbEntity
  8
0
100
AcDbBlockEnd
  0
BLOCK
  5
1D17
330
1D16
100
AcDbEntity
  8
0
100
AcDbBlockBegin
  2
*D26
 70
     1
 10
0.0
 20
0.0
 30
0.0
  3
*D26
  1

  0
LINE
  5
1D19
330
1D16
100
AcDbEntity
  8
0
 62
     3
440
 16777216
370
    -2
100
AcDbLine
 10
343.3750023475484
 20
125.2525029589641
 30
0.0
 11
335.3746523475484
 21
125.2525029589642
 31
0.0
  0
LINE
  5
1D1A
330
1D16
100
AcDbEntity
  8
0
 62
     3
440
 16777216
370
    -2
100
AcDbLine
 10
335.3746523475484
 20
125.2525029589642
 30
0.0
 11
333.5844635130297
 21
124.360749665298
 31
0.0
  0
LINE
  5
1D1B
330
1D16
100
AcDbEntity
  8
0
 62
     3
440
 16777216
370
    -2
100
AcDbLine
 10
327.676840359118
 20
121.4179637961997
 30
0.0
 11
325.8866515245992
 21
120.5262105025335
 31
0.0
  0
MTEXT
  5
1D1C
330
1D16
100
AcDbEntity
  8
0
 62
     3
440
 16777216
100
AcDbMText
 10
339.8748273475484
 20
128.0025029589642
 30
0.0
 40
3.5
 41
0.0
 46
0.0
 71
     5
 72
     1
  1
\A1;∅2.6
  7
R
 73
     1
 44
1.0
  0
LINE
  5
1D1D
330
1D16
100
AcDbEntity
  8
0
 62
     3
440
 16777216
370
    -2
100
AcDbLine
 10
329.4670291936367
 20
122.3097170898658
 30
0.0
 11
331.794274678511
 21
123.4689963716318
 31
0.0
  0
SOLID
  5
1D1E
330
1D16
100
AcDbEntity
  8
0
 62
     3
440
 16777216
100
AcDbTrace
 10
327.5282148101736
 20
121.7163286019528
 30
0.0
 11
327.8254659080624
 21
121.1195989904465
 31
0.0
 12
329.4670291936367
 22
122.3097170898658
 32
0.0
 13
329.4670291936367
 23
122.3097170898658
 33
0.0
  0
SOLID
  5
1D1F
330
1D16
100
AcDbEntity
  8
0
 62
     3
440
 16777216
100
AcDbTrace
 10
333.4358379640854
 20
124.6591144710511
 30
0.0
 11
333.7330890619741
 21
124.0623848595449
 31
0.0
 12
331.794274678511
 22
123.4689963716318
 32
0.0
 13
331.794274678511
 23
123.4689963716318
 33
0.0
  0
POINT
  5
1D20
330
1D16
100
AcDbEntity
  8
Defpoints
 62
     0
440
 16777216
100
AcDbPoint
 10
331.794274678511
 20
123.4689963716318
 30
0.0
  0
POINT
  5
1D21
330
1D16
100
AcDbEntity
  8
Defpoints
 62
     0
440
 16777216
100
AcDbPoint
 10
329.4670291936367
 20
122.3097170898658
 30
0.0
  0
ENDBLK
  5
1D18
330
1D16
100
AcDbEntity
  8
0
100
AcDbBlockEnd
  0
BLOCK
  5
2023
330
2022
100
AcDbEntity
  8
0
100
AcDbBlockBegin
  2
*D27
 70
     1
 10
0.0
 20
0.0
 30
0.0
  3
*D27
  1

  0
LINE
  5
20DB
330
2022
100
AcDbEntity
  8
3
 62
     3
440
 16777216
370
    -2
100
AcDbLine
 10
461.3630715465113
 20
151.8663923293725
 30
0.0
 11
461.3630715465113
 21
169.5579677900941
 31
0.0
  0
LINE
  5
20DC
330
2022
100
AcDbEntity
  8
3
 62
     3
440
 16777216
370
    -2
100
AcDbLine
 10
570.3630689239069
 20
151.8663923293725
 30
0.0
 11
570.3630689239069
 21
169.5579677900941
 31
0.0
  0
LINE
  5
20DD
330
2022
100
AcDbEntity
  8
3
 62
     3
440
 16777216
370
    -2
100
AcDbLine
 10
463.3630715465113
 20
167.5579677900941
 30
0.0
 11
568.363068923907
 21
167.5579677900941
 31
0.0
  0
SOLID
  5
20DE
330
2022
100
AcDbEntity
  8
3
 62
     3
440
 16777216
100
AcDbTrace
 10
463.3630715465113
 20
167.8913011234275
 30
0.0
 11
463.3630715465113
 21
167.2246344567608
 31
0.0
 12
461.3630715465113
 22
167.5579677900941
 32
0.0
 13
461.3630715465113
 23
167.5579677900941
 33
0.0
  0
SOLID
  5
20DF
330
2022
100
AcDbEntity
  8
3
 62
     3
440
 16777216
100
AcDbTrace
 10
568.363068923907
 20
167.8913011234275
 30
0.0
 11
568.363068923907
 21
167.2246344567608
 31
0.0
 12
570.3630689239069
 22
167.5579677900941
 32
0.0
 13
570.3630689239069
 23
167.5579677900941
 33
0.0
  0
MTEXT
  5
20E0
330
2022
100
AcDbEntity
  8
3
 62
     3
440
 16777216
100
AcDbMText
 10
515.8630702352091
 20
170.3079677900942
 30
0.0
 40
3.5
 41
0.0
 46
0.0
 71
     5
 72
     1
  1
\A1;109
  7
R
 73
     1
 44
1.0
  0
POINT
  5
20E1
330
2022
100
AcDbEntity
  8
Defpoints
 62
     0
440
 16777216
100
AcDbPoint
 10
461.3630715465113
 20
151.8663923293725
 30
0.0
  0
POINT
  5
20E2
330
2022
100
AcDbEntity
  8
Defpoints
 62
     0
440
 16777216
100
AcDbPoint
 10
570.3630689239069
 20
151.8663923293725
 30
0.0
  0
POINT
  5
20E3
330
2022
100
AcDbEntity
  8
Defpoints
 62
     0
440
 16777216
100
AcDbPoint
 10
570.3630689239069
 20
167.5579677900941
 30
0.0
  0
ENDBLK
  5
2024
330
2022
100
AcDbEntity
  8
0
100
AcDbBlockEnd
  0
BLOCK
  5
202F
330
202E
100
AcDbEntity
  8
0
100
AcDbBlockBegin
  2
*D28
 70
     1
 10
0.0
 20
0.0
 30
0.0
  3
*D28
  1

  0
LINE
  5
2073
330
202E
100
AcDbEntity
  8
0
 62
     3
440
 16777216
370
    -2
100
AcDbLine
 10
463.8630691623258
 20
154.366391807832
 30
0.0
 11
446.2266644025506
 21
154.3663918078319
 31
0.0
  0
LINE
  5
2074
330
202E
100
AcDbEntity
  8
0
 62
     3
440
 16777216
370
    -2
100
AcDbLine
 10
463.8630691623258
 20
101.3663924336807
 30
0.0
 11
446.2266644025507
 21
101.3663924336807
 31
0.0
  0
LINE
  5
2075
330
202E
100
AcDbEntity
  8
0
 62
     3
440
 16777216
370
    -2
100
AcDbLine
 10
448.2266644025506
 20
152.366391807832
 30
0.0
 11
448.2266644025506
 21
103.3663924336807
 31
0.0
  0
SOLID
  5
2076
330
202E
100
AcDbEntity
  8
0
 62
     3
440
 16777216
100
AcDbTrace
 10
447.8933310692172
 20
152.3663918078319
 30
0.0
 11
448.5599977358839
 21
152.366391807832
 31
0.0
 12
448.2266644025506
 22
154.366391807832
 32
0.0
 13
448.2266644025506
 23
154.366391807832
 33
0.0
  0
SOLID
  5
2077
330
202E
100
AcDbEntity
  8
0
 62
     3
440
 16777216
100
AcDbTrace
 10
447.8933310692173
 20
103.3663924336807
 30
0.0
 11
448.5599977358839
 21
103.3663924336807
 31
0.0
 12
448.2266644025506
 22
101.3663924336807
 32
0.0
 13
448.2266644025506
 23
101.3663924336807
 33
0.0
  0
MTEXT
  5
2078
330
202E
100
AcDbEntity
  8
0
 62
     3
440
 16777216
100
AcDbMText
 10
445.4766644025506
 20
127.8663921207562
 30
0.0
 40
3.5
 41
0.0
 46
0.0
 71
     5
 72
     1
  1
\A1;53
  7
R
 11
0.0000000000000001
 21
1.0
 31
0.0
 73
     1
 44
1.0
  0
POINT
  5
2079
330
202E
100
AcDbEntity
  8
Defpoints
 62
     0
440
 16777216
100
AcDbPoint
 10
463.8630691623258
 20
154.366391807832
 30
0.0
  0
POINT
  5
207A
330
202E
100
AcDbEntity
  8
Defpoints
 62
     0
440
 16777216
100
AcDbPoint
 10
463.8630691623258
 20
101.3663924336807
 30
0.0
  0
POINT
  5
207B
330
202E
100
AcDbEntity
  8
Defpoints
 62
     0
440
 16777216
100
AcDbPoint
 10
448.2266644025506
 20
101.3663924336807
 30
0.0
  0
ENDBLK
  5
2030
330
202E
100
AcDbEntity
  8
0
100
AcDbBlockEnd
  0
BLOCK
  5
20E7
330
20E6
100
AcDbEntity
  8
0
100
AcDbBlockBegin
  2
*D33
 70
     1
 10
0.0
 20
0.0
 30
0.0
  3
*D33
  1

  0
LINE
  5
20E9
330
20E6
100
AcDbEntity
  8
中心线
 62
     3
440
 16777216
370
    -2
100
AcDbLine
 10
486.3177582956852
 20
147.3663921207563
 30
0.0
 11
475.800570131105
 21
147.3663921207563
 31
0.0
  0
LINE
  5
20EA
330
20E6
100
AcDbEntity
  8
中心线
 62
     3
440
 16777216
370
    -2
100
AcDbLine
 10
486.3177582956852
 20
108.3663921207563
 30
0.0
 11
475.8005701311051
 21
108.3663921207563
 31
0.0
  0
LINE
  5
20EB
330
20E6
100
AcDbEntity
  8
中心线
 62
     3
440
 16777216
370
    -2
100
AcDbLine
 10
477.8005701311051
 20
145.3663921207563
 30
0.0
 11
477.8005701311051
 21
110.3663921207563
 31
0.0
  0
SOLID
  5
20EC
330
20E6
100
AcDbEntity
  8
中心线
 62
     3
440
 16777216
100
AcDbTrace
 10
477.4672367977717
 20
145.3663921207563
 30
0.0
 11
478.1339034644384
 21
145.3663921207563
 31
0.0
 12
477.8005701311051
 22
147.3663921207563
 32
0.0
 13
477.8005701311051
 23
147.3663921207563
 33
0.0
  0
SOLID
  5
20ED
330
20E6
100
AcDbEntity
  8
中心线
 62
     3
440
 16777216
100
AcDbTrace
 10
477.4672367977718
 20
110.3663921207563
 30
0.0
 11
478.1339034644384
 21
110.3663921207563
 31
0.0
 12
477.8005701311051
 22
108.3663921207563
 32
0.0
 13
477.8005701311051
 23
108.3663921207563
 33
0.0
  0
MTEXT
  5
20EE
330
20E6
100
AcDbEntity
  8
中心线
 62
     3
440
 16777216
100
AcDbMText
 10
475.050570131105
 20
127.8663921207562
 30
0.0
 40
3.5
 41
0.0
 46
0.0
 71
     5
 72
     1
  1
\A1;39
  7
R
 11
0.0000000000000001
 21
1.0
 31
0.0
 73
     1
 44
1.0
  0
POINT
  5
20EF
330
20E6
100
AcDbEntity
  8
Defpoints
 62
     0
440
 16777216
100
AcDbPoint
 10
486.3177582956852
 20
147.3663921207563
 30
0.0
  0
POINT
  5
20F0
330
20E6
100
AcDbEntity
  8
Defpoints
 62
     0
440
 16777216
100
AcDbPoint
 10
486.3177582956852
 20
108.3663921207563
 30
0.0
  0
POINT
  5
20F1
330
20E6
100
AcDbEntity
  8
Defpoints
 62
     0
440
 16777216
100
AcDbPoint
 10
477.8005701311051
 20
108.3663921207563
 30
0.0
  0
ENDBLK
  5
20E8
330
20E6
100
AcDbEntity
  8
0
100
AcDbBlockEnd
  0
BLOCK
  5
20F4
330
20F3
100
AcDbEntity
  8
0
100
AcDbBlockBegin
  2
*D34
 70
     1
 10
0.0
 20
0.0
 30
0.0
  3
*D34
  1

  0
LINE
  5
20F6
330
20F3
100
AcDbEntity
  8
中心线
 62
     3
440
 16777216
370
    -2
100
AcDbLine
 10
482.8152863766884
 20
133.8663921207563
 30
0.0
 11
491.129917341663
 21
133.8663921207563
 31
0.0
  0
LINE
  5
20F7
330
20F3
100
AcDbEntity
  8
中心线
 62
     3
440
 16777216
370
    -2
100
AcDbLine
 10
482.8152863766884
 20
121.8663921207563
 30
0.0
 11
491.129917341663
 21
121.8663921207563
 31
0.0
  0
LINE
  5
20F8
330
20F3
100
AcDbEntity
  8
中心线
 62
     3
440
 16777216
370
    -2
100
AcDbLine
 10
489.1299173416629
 20
131.8663921207563
 30
0.0
 11
489.129917341663
 21
123.8663921207563
 31
0.0
  0
SOLID
  5
20F9
330
20F3
100
AcDbEntity
  8
中心线
 62
     3
440
 16777216
100
AcDbTrace
 10
488.7965840083296
 20
131.8663921207563
 30
0.0
 11
489.4632506749963
 21
131.8663921207563
 31
0.0
 12
489.1299173416629
 22
133.8663921207563
 32
0.0
 13
489.1299173416629
 23
133.8663921207563
 33
0.0
  0
SOLID
  5
20FA
330
20F3
100
AcDbEntity
  8
中心线
 62
     3
440
 16777216
100
AcDbTrace
 10
488.7965840083297
 20
123.8663921207563
 30
0.0
 11
489.4632506749963
 21
123.8663921207563
 31
0.0
 12
489.129917341663
 22
121.8663921207563
 32
0.0
 13
489.129917341663
 23
121.8663921207563
 33
0.0
  0
MTEXT
  5
20FB
330
20F3
100
AcDbEntity
  8
中心线
 62
     3
440
 16777216
100
AcDbMText
 10
486.3799173416629
 20
127.8663921207562
 30
0.0
 40
3.5
 41
0.0
 46
0.0
 71
     5
 72
     1
  1
\A1;12
  7
R
 11
0.0000000000000001
 21
1.0
 31
0.0
 73
     1
 44
1.0
  0
POINT
  5
20FC
330
20F3
100
AcDbEntity
  8
Defpoints
 62
     0
440
 16777216
100
AcDbPoint
 10
482.8152863766884
 20
133.8663921207563
 30
0.0
  0
POINT
  5
20FD
330
20F3
100
AcDbEntity
  8
Defpoints
 62
     0
440
 16777216
100
AcDbPoint
 10
482.8152863766884
 20
121.8663921207563
 30
0.0
  0
POINT
  5
20FE
330
20F3
100
AcDbEntity
  8
Defpoints
 62
     0
440
 16777216
100
AcDbPoint
 10
489.129917341663
 20
121.8663921207563
 30
0.0
  0
ENDBLK
  5
20F5
330
20F3
100
AcDbEntity
  8
0
100
AcDbBlockEnd
  0
BLOCK
  5
2101
330
2100
100
AcDbEntity
  8
0
100
AcDbBlockBegin
  2
*D35
 70
     1
 10
0.0
 20
0.0
 30
0.0
  3
*D35
  1

  0
LINE
  5
2103
330
2100
100
AcDbEntity
  8
中心线
 62
     3
440
 16777216
370
    -2
100
AcDbLine
 10
486.317758295685
 20
108.3663921207563
 30
0.0
 11
486.317758295685
 21
100.7137553451321
 31
0.0
  0
LINE
  5
2104
330
2100
100
AcDbEntity
  8
中心线
 62
     3
440
 16777216
370
    -2
100
AcDbLine
 10
557.617758295685
 20
108.3663921207563
 30
0.0
 11
557.617758295685
 21
100.7137553451321
 31
0.0
  0
LINE
  5
2105
330
2100
100
AcDbEntity
  8
中心线
 62
     3
440
 16777216
370
    -2
100
AcDbLine
 10
488.317758295685
 20
102.7137553451321
 30
0.0
 11
555.6177582956849
 21
102.7137553451321
 31
0.0
  0
SOLID
  5
2106
330
2100
100
AcDbEntity
  8
中心线
 62
     3
440
 16777216
100
AcDbTrace
 10
488.317758295685
 20
103.0470886784654
 30
0.0
 11
488.317758295685
 21
102.3804220117987
 31
0.0
 12
486.317758295685
 22
102.7137553451321
 32
0.0
 13
486.317758295685
 23
102.7137553451321
 33
0.0
  0
SOLID
  5
2107
330
2100
100
AcDbEntity
  8
中心线
 62
     3
440
 16777216
100
AcDbTrace
 10
555.6177582956849
 20
103.0470886784654
 30
0.0
 11
555.6177582956849
 21
102.3804220117987
 31
0.0
 12
557.617758295685
 22
102.7137553451321
 32
0.0
 13
557.617758295685
 23
102.7137553451321
 33
0.0
  0
MTEXT
  5
2108
330
2100
100
AcDbEntity
  8
中心线
 62
     3
440
 16777216
100
AcDbMText
 10
521.967758295685
 20
105.4637553451321
 30
0.0
 40
3.5
 41
0.0
 46
0.0
 71
     5
 72
     1
  1
\A1;71.3
  7
R
 73
     1
 44
1.0
  0
POINT
  5
2109
330
2100
100
AcDbEntity
  8
Defpoints
 62
     0
440
 16777216
100
AcDbPoint
 10
486.317758295685
 20
108.3663921207563
 30
0.0
  0
POINT
  5
210A
330
2100
100
AcDbEntity
  8
Defpoints
 62
     0
440
 16777216
100
AcDbPoint
 10
557.617758295685
 20
108.3663921207563
 30
0.0
  0
POINT
  5
210B
330
2100
100
AcDbEntity
  8
Defpoints
 62
     0
440
 16777216
100
AcDbPoint
 10
557.617758295685
 20
102.7137553451321
 30
0.0
  0
ENDBLK
  5
2102
330
2100
100
AcDbEntity
  8
0
100
AcDbBlockEnd
  0
BLOCK
  5
210E
330
210D
100
AcDbEntity
  8
0
100
AcDbBlockBegin
  2
*D36
 70
     1
 10
0.0
 20
0.0
 30
0.0
  3
*D36
  1

  0
LINE
  5
2110
330
210D
100
AcDbEntity
  8
中心线
 62
     3
440
 16777216
370
    -2
100
AcDbLine
 10
482.8152863766881
 20
121.8663921207563
 30
0.0
 11
482.8152863766881
 21
93.99562615611648
 31
0.0
  0
LINE
  5
2111
330
210D
100
AcDbEntity
  8
中心线
 62
     3
440
 16777216
370
    -2
100
AcDbLine
 10
560.8152863766881
 20
121.8663921207563
 30
0.0
 11
560.8152863766881
 21
93.99562615611648
 31
0.0
  0
LINE
  5
2112
330
210D
100
AcDbEntity
  8
中心线
 62
     3
440
 16777216
370
    -2
100
AcDbLine
 10
484.8152863766881
 20
95.99562615611649
 30
0.0
 11
558.8152863766882
 21
95.99562615611649
 31
0.0
  0
SOLID
  5
2113
330
210D
100
AcDbEntity
  8
中心线
 62
     3
440
 16777216
100
AcDbTrace
 10
484.8152863766881
 20
96.32895948944982
 30
0.0
 11
484.8152863766881
 21
95.66229282278316
 31
0.0
 12
482.8152863766881
 22
95.99562615611649
 32
0.0
 13
482.8152863766881
 23
95.99562615611649
 33
0.0
  0
SOLID
  5
2114
330
210D
100
AcDbEntity
  8
中心线
 62
     3
440
 16777216
100
AcDbTrace
 10
558.8152863766882
 20
96.32895948944982
 30
0.0
 11
558.8152863766882
 21
95.66229282278316
 31
0.0
 12
560.8152863766881
 22
95.99562615611649
 32
0.0
 13
560.8152863766881
 23
95.99562615611649
 33
0.0
  0
MTEXT
  5
2115
330
210D
100
AcDbEntity
  8
中心线
 62
     3
440
 16777216
100
AcDbMText
 10
521.8152863766881
 20
98.74562615611649
 30
0.0
 40
3.5
 41
0.0
 46
0.0
 71
     5
 72
     1
  1
\A1;78
  7
R
 73
     1
 44
1.0
  0
POINT
  5
2116
330
210D
100
AcDbEntity
  8
Defpoints
 62
     0
440
 16777216
100
AcDbPoint
 10
482.8152863766881
 20
121.8663921207563
 30
0.0
  0
POINT
  5
2117
330
210D
100
AcDbEntity
  8
Defpoints
 62
     0
440
 16777216
100
AcDbPoint
 10
560.8152863766881
 20
121.8663921207563
 30
0.0
  0
POINT
  5
2118
330
210D
100
AcDbEntity
  8
Defpoints
 62
     0
440
 16777216
100
AcDbPoint
 10
560.8152863766881
 20
95.99562615611649
 30
0.0
  0
ENDBLK
  5
210F
330
210D
100
AcDbEntity
  8
0
100
AcDbBlockEnd
  0
BLOCK
  5
2128
330
2127
100
AcDbEntity
  8
0
100
AcDbBlockBegin
  2
*D38
 70
     1
 10
0.0
 20
0.0
 30
0.0
  3
*D38
  1

  0
LINE
  5
212A
330
2127
100
AcDbEntity
  8
中心线
 62
     3
440
 16777216
370
    -2
100
AcDbLine
 10
463.6804294873352
 20
122.1873318266581
 30
0.0
 11
468.3472794873352
 21
122.1873318266581
 31
0.0
  0
LINE
  5
212B
330
2127
100
AcDbEntity
  8
中心线
 62
     3
440
 16777216
370
    -2
100
AcDbLine
 10
468.3472794873352
 20
122.1873318266581
 30
0.0
 11
469.2827543559014
 21
120.4195969001827
 31
0.0
  0
LINE
  5
212C
330
2127
100
AcDbEntity
  8
中心线
 62
     3
440
 16777216
370
    -2
100
AcDbLine
 10
474.8956035672982
 20
109.8131873413299
 30
0.0
 11
475.8310784358643
 21
108.0454524148545
 31
0.0
  0
MTEXT
  5
212D
330
2127
100
AcDbEntity
  8
中心线
 62
     3
440
 16777216
100
AcDbMText
 10
465.5138544873352
 20
124.9373318266582
 30
0.0
 40
3.5
 41
0.0
 46
0.0
 71
     5
 72
     1
  1
\A1;∅8
  7
R
 73
     1
 44
1.0
  0
LINE
  5
212E
330
2127
100
AcDbEntity
  8
中心线
 62
     3
440
 16777216
370
    -2
100
AcDbLine
 10
473.9601286987321
 20
111.5809222678054
 30
0.0
 11
470.2182292244676
 21
118.6518619737072
 31
0.0
  0
SOLID
  5
212F
330
2127
100
AcDbEntity
  8
中心线
 62
     3
440
 16777216
100
AcDbTrace
 10
475.1902260550441
 20
109.9690998194243
 30
0.0
 11
474.6009810795523
 21
109.6572748632356
 31
0.0
 12
473.9601286987321
 22
111.5809222678054
 32
0.0
 13
473.9601286987321
 23
111.5809222678054
 33
0.0
  0
SOLID
  5
2130
330
2127
100
AcDbEntity
  8
中心线
 62
     3
440
 16777216
100
AcDbTrace
 10
469.5773768436473
 20
120.575509378277
 30
0.0
 11
468.9881318681555
 21
120.2636844220883
 31
0.0
 12
470.2182292244676
 22
118.6518619737072
 32
0.0
 13
470.2182292244676
 23
118.6518619737072
 33
0.0
  0
POINT
  5
2131
330
2127
100
AcDbEntity
  8
Defpoints
 62
     0
440
 16777216
100
AcDbPoint
 10
470.2182292244676
 20
118.6518619737072
 30
0.0
  0
POINT
  5
2132
330
2127
100
AcDbEntity
  8
Defpoints
 62
     0
440
 16777216
100
AcDbPoint
 10
473.9601286987321
 20
111.5809222678054
 30
0.0
  0
ENDBLK
  5
2129
330
2127
100
AcDbEntity
  8
0
100
AcDbBlockEnd
  0
ENDSEC
  0
SECTION
  2
ENTITIES
  0
DIMENSION
  5
3AB
330
1F
100
AcDbEntity
  8
3
100
AcDbDimension
280
     0
  2
*D4
 10
-718807.4394066115
 20
110799.1467171762
 30
0.0
 11
-718842.4394066114
 21
110815.6467171762
 31
0.0
 70
    32
 71
     5
 42
70.0
 73
     0
 74
     0
 75
     0
  3
6
100
AcDbAlignedDimension
 13
-718877.4394066114
 23
110891.6226483776
 33
0.0
 14
-718807.4394066115
 24
110891.6226483776
 34
0.0
100
AcDbRotatedDimension
  0
CIRCLE
  5
1779
330
1F
100
AcDbEntity
  8
0
  6
Continuous
 62
     7
370
    35
100
AcDbCircle
 10
330.6306519360739
 20
122.8893567307488
 30
0.0
 40
1.3
  0
CIRCLE
  5
177A
330
1F
100
AcDbEntity
  8
0
  6
Continuous
 62
     7
370
    35
100
AcDbCircle
 10
330.6306519360739
 20
142.8893567307488
 30
0.0
 40
1.3
  0
CIRCLE
  5
177B
330
1F
100
AcDbEntity
  8
0
  6
Continuous
 62
     7
370
    35
100
AcDbCircle
 10
321.7482487615199
 20
151.3663921207563
 30
0.0
 40
2.5
  0
CIRCLE
  5
177C
330
1F
100
AcDbEntity
  8
0
  6
Continuous
 62
     7
370
    35
100
AcDbCircle
 10
424.7482487615197
 20
151.3663921207563
 30
0.0
 40
2.5
  0
CIRCLE
  5
177D
330
1F
100
AcDbEntity
  8
0
  6
Continuous
 62
     7
370
    35
100
AcDbCircle
 10
424.7482487615197
 20
104.3663921207563
 30
0.0
 40
2.5
  0
CIRCLE
  5
177E
330
1F
100
AcDbEntity
  8
0
  6
Continuous
 62
     7
370
    35
100
AcDbCircle
 10
321.7482487615199
 20
104.3663921207563
 30
0.0
 40
2.5
  0
ARC
  5
177F
330
1F
100
AcDbEntity
  8
0
  6
Continuous
 62
     7
370
    35
100
AcDbCircle
 10
329.5300354460366
 20
137.8393569207386
 30
0.0
 40
3.0
100
AcDbArc
 50
90.0
 51
180.0
  0
LINE
  5
1780
330
1F
100
AcDbEntity
  8
0
  6
Continuous
 62
     7
370
    35
100
AcDbLine
 10
326.5300355540698
 20
124.939356540759
 30
0.0
 11
326.5300355540698
 21
137.8393568529383
 31
0.0
  0
LINE
  5
1781
330
1F
100
AcDbEntity
  8
0
  6
Continuous
 62
     7
370
    35
100
AcDbLine
 10
334.7300354683881
 20
137.8393568529383
 30
0.0
 11
334.7300354683881
 21
124.939356540759
 31
0.0
  0
ARC
  5
1782
330
1F
100
AcDbEntity
  8
0
  6
Continuous
 62
     7
370
    35
100
AcDbCircle
 10
331.7300354460364
 20
137.8393569207386
 30
0.0
 40
3.000000000000028
100
AcDbArc
 50
0.0
 51
90.0
  0
CIRCLE
  5
1783
330
1F
100
AcDbEntity
  8
0
  6
Continuous
 62
     7
370
    35
100
AcDbCircle
 10
419.7482487615197
 20
139.8663921207562
 30
0.0
 40
2.5
  0
CIRCLE
  5
1784
330
1F
100
AcDbEntity
  8
0
  6
Continuous
 62
     7
370
    35
100
AcDbCircle
 10
395.7482487615198
 20
115.8663921207562
 30
0.0
 40
2.5
  0
CIRCLE
  5
1785
330
1F
100
AcDbEntity
  8
0
  6
Continuous
 62
     7
370
    35
100
AcDbCircle
 10
377.3482485704124
 20
115.366392400153
 30
0.0
 40
2.5
  0
ARC
  5
1786
330
1F
100
AcDbEntity
  8
0
  6
Continuous
 62
     7
370
    35
100
AcDbCircle
 10
321.2482487615199
 20
103.8663921207563
 30
0.0
 40
2.5
100
AcDbArc
 50
180.0
 51
270.0
  0
LINE
  5
1787
330
1F
100
AcDbEntity
  8
0
  6
Continuous
 62
     7
370
    35
100
AcDbLine
 10
318.748250072822
 20
103.86639191214
 30
0.0
 11
318.748250072822
 21
151.8663923293725
 31
0.0
  0
ARC
  5
1788
330
1F
100
AcDbEntity
  8
0
  6
Continuous
 62
     7
370
    35
100
AcDbCircle
 10
321.2482487615199
 20
151.8663921207563
 30
0.0
 40
2.5
100
AcDbArc
 50
90.0
 51
180.0
  0
LINE
  5
1789
330
1F
100
AcDbEntity
  8
0
  6
Continuous
 62
     7
370
    35
100
AcDbLine
 10
321.2482476886362
 20
154.3663918078319
 30
0.0
 11
425.2482498344034
 21
154.3663918078319
 31
0.0
  0
ARC
  5
178A
330
1F
100
AcDbEntity
  8
0
  6
Continuous
 62
     7
370
    35
100
AcDbCircle
 10
425.2482487615197
 20
151.8663921207563
 30
0.0
 40
2.5
100
AcDbArc
 50
0.0
 51
90.0
  0
LINE
  5
178B
330
1F
100
AcDbEntity
  8
0
  6
Continuous
 62
     7
370
    35
100
AcDbLine
 10
427.7482474502176
 20
151.8663923293725
 30
0.0
 11
427.7482474502176
 21
103.86639191214
 31
0.0
  0
ARC
  5
178C
330
1F
100
AcDbEntity
  8
0
  6
Continuous
 62
     7
370
    35
100
AcDbCircle
 10
425.2482487615197
 20
103.8663921207563
 30
0.0
 40
2.5
100
AcDbArc
 50
270.0
 51
0.0
  0
LINE
  5
178D
330
1F
100
AcDbEntity
  8
0
  6
Continuous
 62
     7
370
    35
100
AcDbLine
 10
425.2482498344034
 20
101.3663924336807
 30
0.0
 11
321.2482476886362
 21
101.3663924336807
 31
0.0
  0
ARC
  5
178E
330
1F
100
AcDbEntity
  8
0
  6
Continuous
 62
     7
370
    35
100
AcDbCircle
 10
405.5323983370435
 20
118.6284266035902
 30
0.0
 40
1.500000000000005
100
AcDbArc
 50
76.51166373558372
 51
149.9999999999985
  0
LINE
  5
178F
330
1F
100
AcDbEntity
  8
0
  6
Continuous
 62
     7
370
    35
100
AcDbLine
 10
402.9413264784961
 20
117.1405595094338
 30
0.0
 11
404.2333602979779
 21
119.3784270733968
 31
0.0
  0
ARC
  5
1790
330
1F
100
AcDbEntity
  8
0
  6
Continuous
 62
     7
370
    35
100
AcDbCircle
 10
404.2403647707662
 20
116.3905588217137
 30
0.0
 40
1.50000000000001
100
AcDbArc
 50
149.9999999999985
 51
253.0028781629153
  0
ARC
  5
1791
330
1F
100
AcDbEntity
  8
0
  6
Continuous
 62
     7
370
    35
100
AcDbCircle
 10
407.7482487615197
 20
127.8663921207563
 30
0.0
 40
13.49999999999994
100
AcDbArc
 50
253.0028781629153
 51
346.9971218370853
  0
ARC
  5
1792
330
1F
100
AcDbEntity
  8
0
  6
Continuous
 62
     7
370
    35
100
AcDbCircle
 10
419.4405539234627
 20
125.1663921207562
 30
0.0
 40
1.500000000000003
100
AcDbArc
 50
346.9971218370853
 51
90.0
  0
LINE
  5
1793
330
1F
100
AcDbEntity
  8
0
  6
Continuous
 62
     7
370
    35
100
AcDbLine
 10
416.8564866837114
 20
126.6663912982121
 30
0.0
 11
419.4405538570135
 21
126.6663912982121
 31
0.0
  0
ARC
  5
1794
330
1F
100
AcDbEntity
  8
0
  6
Continuous
 62
     7
370
    35
100
AcDbCircle
 10
416.8564867909083
 20
125.1663921207562
 30
0.0
 40
1.5
100
AcDbArc
 50
90.0
 51
163.4883362644218
  0
ARC
  5
1795
330
1F
100
AcDbEntity
  8
0
  6
Continuous
 62
     7
370
    35
100
AcDbCircle
 10
407.7482487615197
 20
127.8663921207563
 30
0.0
 40
7.999999999999961
100
AcDbArc
 50
256.5116637355837
 51
343.4883362644218
  0
ARC
  5
1796
330
1F
100
AcDbEntity
  8
0
  6
Continuous
 62
     7
370
    35
100
AcDbCircle
 10
416.8564867909084
 20
130.5663921207562
 30
0.0
 40
1.5
100
AcDbArc
 50
196.5116637355782
 51
270.0
  0
LINE
  5
1797
330
1F
100
AcDbEntity
  8
0
  6
Continuous
 62
     7
370
    35
100
AcDbLine
 10
419.4405538570135
 20
129.0663909465447
 30
0.0
 11
416.8564866837114
 21
129.0663909465447
 31
0.0
  0
ARC
  5
1798
330
1F
100
AcDbEntity
  8
0
  6
Continuous
 62
     7
370
    35
100
AcDbCircle
 10
419.4405539234628
 20
130.5663921207562
 30
0.0
 40
1.500000000000003
100
AcDbArc
 50
270.0
 51
13.00287816291462
  0
ARC
  5
1799
330
1F
100
AcDbEntity
  8
0
  6
Continuous
 62
     7
370
    35
100
AcDbCircle
 10
407.7482487615197
 20
127.8663921207563
 30
0.0
 40
13.50000000000005
100
AcDbArc
 50
13.00287816291462
 51
106.9971218370847
  0
ARC
  5
179A
330
1F
100
AcDbEntity
  8
0
  6
Continuous
 62
     7
370
    35
100
AcDbCircle
 10
404.2403647707663
 20
139.342225419799
 30
0.0
 40
1.500000000000028
100
AcDbArc
 50
106.9971218370847
 51
210.0000000000015
  0
LINE
  5
179B
330
1F
100
AcDbEntity
  8
0
  6
Continuous
 62
     7
370
    35
100
AcDbLine
 10
404.2333602979779
 20
136.3543570340053
 30
0.0
 11
402.9413264784961
 21
138.5922245979682
 31
0.0
  0
ARC
  5
179C
330
1F
100
AcDbEntity
  8
0
  6
Continuous
 62
     7
370
    35
100
AcDbCircle
 10
405.5323983370437
 20
137.1043576379223
 30
0.0
 40
1.500000000000024
100
AcDbArc
 50
210.0000000000015
 51
283.4883362644163
  0
ARC
  5
179D
330
1F
100
AcDbEntity
  8
0
  6
Continuous
 62
     7
370
    35
100
AcDbCircle
 10
407.7482487615197
 20
127.8663921207563
 30
0.0
 40
8.000000000000078
100
AcDbArc
 50
16.51166373557815
 51
103.4883362644163
  0
ARC
  5
179E
330
1F
100
AcDbEntity
  8
0
  6
Continuous
 62
     7
370
    35
100
AcDbCircle
 10
400.8558611566075
 20
134.4043576379223
 30
0.0
 40
1.500000000000028
100
AcDbArc
 50
316.511663735578
 51
30.00000000000148
  0
LINE
  5
179F
330
1F
100
AcDbEntity
  8
0
  6
Continuous
 62
     7
370
    35
100
AcDbLine
 10
400.8628654833882
 20
137.3922247738019
 30
0.0
 11
402.1548990700393
 21
135.154357209839
 31
0.0
  0
ARC
  5
17A0
330
1F
100
AcDbEntity
  8
0
  6
Continuous
 62
     7
370
    35
100
AcDbCircle
 10
399.5638275903305
 20
136.6422254197989
 30
0.0
 40
1.500000000000013
100
AcDbArc
 50
30.00000000000148
 51
133.0028781629175
  0
ARC
  5
17A1
330
1F
100
AcDbEntity
  8
0
  6
Continuous
 62
     7
370
    35
100
AcDbCircle
 10
407.7482487615197
 20
127.8663921207563
 30
0.0
 40
13.49999999999998
100
AcDbArc
 50
133.0028781629175
 51
226.9971218370825
  0
ARC
  5
17A2
330
1F
100
AcDbEntity
  8
0
  6
Continuous
 62
     7
370
    35
100
AcDbCircle
 10
399.5638275903303
 20
119.0905588217137
 30
0.0
 40
1.500000000000032
100
AcDbArc
 50
226.9971218370825
 51
329.9999999999985
  0
LINE
  5
17A3
330
1F
100
AcDbEntity
  8
0
  6
Continuous
 62
     7
370
    35
100
AcDbLine
 10
402.1548990700393
 20
120.5784250349179
 30
0.0
 11
400.8628654833882
 21
118.340557470955
 31
0.0
  0
ARC
  5
17A4
330
1F
100
AcDbEntity
  8
0
  6
Continuous
 62
     7
370
    35
100
AcDbCircle
 10
400.8558611566074
 20
121.3284266035903
 30
0.0
 40
1.5
100
AcDbArc
 50
329.9999999999985
 51
43.48833626441233
  0
ARC
  5
17A5
330
1F
100
AcDbEntity
  8
0
  6
Continuous
 62
     7
370
    35
100
AcDbCircle
 10
407.7482487615197
 20
127.8663921207563
 30
0.0
 40
7.999999999999982
100
AcDbArc
 50
136.511663735578
 51
223.4883362644217
  0
CIRCLE
  5
17A6
330
1F
100
AcDbEntity
  8
0
  6
Continuous
 62
     7
370
    35
100
AcDbCircle
 10
379.6221803298619
 20
140.3663921207563
 30
0.0
 40
4.099999999999994
  0
LINE
  5
17A7
330
1F
100
AcDbEntity
  8
0
  6
Continuous
 62
     7
370
    35
100
AcDbLine
 10
375.6221815934803
 20
125.8663920257614
 30
0.0
 11
375.6221815934803
 21
129.8663922157512
 31
0.0
  0
LINE
  5
17A8
330
1F
100
AcDbEntity
  8
0
  6
Continuous
 62
     7
370
    35
100
AcDbLine
 10
383.6221791794922
 20
125.8663920257614
 30
0.0
 11
375.6221815934803
 21
125.8663920257614
 31
0.0
  0
LINE
  5
17A9
330
1F
100
AcDbEntity
  8
0
  6
Continuous
 62
     7
370
    35
100
AcDbLine
 10
383.6221791794922
 20
129.8663922157512
 30
0.0
 11
383.6221791794922
 21
125.8663920257614
 31
0.0
  0
LINE
  5
17AA
330
1F
100
AcDbEntity
  8
0
  6
Continuous
 62
     7
370
    35
100
AcDbLine
 10
375.6221815934803
 20
129.8663922157512
 30
0.0
 11
383.6221791794922
 21
129.8663922157512
 31
0.0
  0
CIRCLE
  5
17AB
330
1F
100
AcDbEntity
  8
0
  6
Continuous
 62
     7
370
    35
100
AcDbCircle
 10
343.9482487615197
 20
115.3663921207563
 30
0.0
 40
5.25
  0
LINE
  5
17AC
330
1F
100
AcDbEntity
  8
0
  6
Continuous
 62
     7
370
    35
100
AcDbLine
 10
356.5220680027943
 20
110.8663925499097
 30
0.0
 11
356.5220680027943
 21
121.3663922503964
 31
0.0
  0
LINE
  5
17AD
330
1F
100
AcDbEntity
  8
0
  6
Continuous
 62
     7
370
    35
100
AcDbLine
 10
367.5220684967679
 20
110.8663925499097
 30
0.0
 11
356.5220680027943
 21
110.8663925499097
 31
0.0
  0
LINE
  5
17AE
330
1F
100
AcDbEntity
  8
0
  6
Continuous
 62
     7
370
    35
100
AcDbLine
 10
356.5220680027943
 20
121.3663922503964
 30
0.0
 11
367.5220684967679
 21
121.3663922503964
 31
0.0
  0
CIRCLE
  5
17AF
330
1F
100
AcDbEntity
  8
0
  6
Continuous
 62
     7
370
    35
100
AcDbCircle
 10
395.7482487615198
 20
139.8663921207562
 30
0.0
 40
2.5
  0
CIRCLE
  5
17B0
330
1F
100
AcDbEntity
  8
0
  6
Continuous
 62
     7
370
    35
100
AcDbCircle
 10
419.7482487615197
 20
115.8663921207562
 30
0.0
 40
2.5
  0
LINE
  5
17B1
330
1F
100
AcDbEntity
  8
0
  6
Continuous
 62
     7
370
    35
100
AcDbLine
 10
334.7300354683881
 20
124.939356540759
 30
0.0
 11
326.5300355540698
 21
124.939356540759
 31
0.0
  0
CIRCLE
  5
17B2
330
1F
100
AcDbEntity
  8
0
  6
Continuous
 62
     7
370
    35
100
AcDbCircle
 10
321.7482487615199
 20
151.3663921207563
 30
0.0
 40
1.5
  0
CIRCLE
  5
17B3
330
1F
100
AcDbEntity
  8
0
  6
Continuous
 62
     7
370
    35
100
AcDbCircle
 10
321.7482487615199
 20
104.3663921207563
 30
0.0
 40
1.5
  0
CIRCLE
  5
17B4
330
1F
100
AcDbEntity
  8
0
  6
Continuous
 62
     7
370
    35
100
AcDbCircle
 10
424.7482487615197
 20
151.3663921207563
 30
0.0
 40
1.5
  0
CIRCLE
  5
17B5
330
1F
100
AcDbEntity
  8
0
  6
Continuous
 62
     7
370
    35
100
AcDbCircle
 10
424.7482487615197
 20
104.3663921207563
 30
0.0
 40
1.5
  0
CIRCLE
  5
17B6
330
1F
100
AcDbEntity
  8
0
  6
Continuous
 62
     7
370
    35
100
AcDbCircle
 10
377.3482485704124
 20
115.366392400153
 30
0.0
 40
1.5
  0
CIRCLE
  5
17B7
330
1F
100
AcDbEntity
  8
0
  6
Continuous
 62
     7
370
    35
100
AcDbCircle
 10
419.7482487615197
 20
115.8663921207562
 30
0.0
 40
1.5
  0
CIRCLE
  5
17B8
330
1F
100
AcDbEntity
  8
0
  6
Continuous
 62
     7
370
    35
100
AcDbCircle
 10
419.7482487615197
 20
139.8663921207562
 30
0.0
 40
1.5
  0
CIRCLE
  5
17B9
330
1F
100
AcDbEntity
  8
0
  6
Continuous
 62
     7
370
    35
100
AcDbCircle
 10
395.7482487615198
 20
139.8663921207562
 30
0.0
 40
1.5
  0
CIRCLE
  5
17BA
330
1F
100
AcDbEntity
  8
0
  6
Continuous
 62
     7
370
    35
100
AcDbCircle
 10
395.7482487615198
 20
115.8663921207562
 30
0.0
 40
1.5
  0
INSERT
  5
17BB
330
1F
100
AcDbEntity
  8
中心线
 62
     1
100
AcDbBlockReference
  2
SW_CENTERMARKSYMBOL_0
 10
419.7482487615197
 20
115.8663921207562
 30
0.0
 50
270.0
  0
INSERT
  5
17BC
330
1F
100
AcDbEntity
  8
中心线
 62
     1
100
AcDbBlockReference
  2
SW_CENTERMARKSYMBOL_1
 10
395.7482487615198
 20
115.8663921207562
 30
0.0
 50
270.0
  0
INSERT
  5
17BD
330
1F
100
AcDbEntity
  8
中心线
 62
     1
100
AcDbBlockReference
  2
SW_CENTERMARKSYMBOL_2
 10
395.7482487615198
 20
139.8663921207562
 30
0.0
 50
270.0
  0
INSERT
  5
17BE
330
1F
100
AcDbEntity
  8
中心线
 62
     1
100
AcDbBlockReference
  2
SW_CENTERMARKSYMBOL_3
 10
419.7482487615197
 20
139.8663921207562
 30
0.0
 50
270.0
  0
INSERT
  5
17BF
330
1F
100
AcDbEntity
  8
中心线
 62
     1
100
AcDbBlockReference
  2
SW_CENTERMARKSYMBOL_4
 10
330.6306519360739
 20
142.8893567307488
 30
0.0
  0
INSERT
  5
17C0
330
1F
100
AcDbEntity
  8
中心线
 62
     1
100
AcDbBlockReference
  2
SW_CENTERMARKSYMBOL_5
 10
379.6221803298619
 20
140.3663921207563
 30
0.0
  0
INSERT
  5
17C1
330
1F
100
AcDbEntity
  8
中心线
 62
     1
100
AcDbBlockReference
  2
SW_CENTERMARKSYMBOL_6
 10
343.9482487615197
 20
115.3663921207563
 30
0.0
  0
INSERT
  5
17C2
330
1F
100
AcDbEntity
  8
中心线
 62
     1
100
AcDbBlockReference
  2
SW_CENTERMARKSYMBOL_7
 10
330.6306519360739
 20
122.8893567307488
 30
0.0
  0
INSERT
  5
17C3
330
1F
100
AcDbEntity
  8
中心线
 62
     1
100
AcDbBlockReference
  2
SW_CENTERMARKSYMBOL_8
 10
377.3482485704124
 20
115.366392400153
 30
0.0
  0
INSERT
  5
17C4
330
1F
100
AcDbEntity
  8
中心线
 62
     1
100
AcDbBlockReference
  2
SW_CENTERMARKSYMBOL_9
 10
321.7482487615199
 20
104.3663921207563
 30
0.0
  0
INSERT
  5
17C5
330
1F
100
AcDbEntity
  8
中心线
 62
     1
100
AcDbBlockReference
  2
SW_CENTERMARKSYMBOL_10
 10
424.7482487615197
 20
104.3663921207563
 30
0.0
  0
INSERT
  5
17C6
330
1F
100
AcDbEntity
  8
中心线
 62
     1
100
AcDbBlockReference
  2
SW_CENTERMARKSYMBOL_11
 10
424.7482487615197
 20
151.3663921207563
 30
0.0
  0
INSERT
  5
17C7
330
1F
100
AcDbEntity
  8
中心线
 62
     1
100
AcDbBlockReference
  2
SW_CENTERMARKSYMBOL_12
 10
321.7482487615199
 20
151.3663921207563
 30
0.0
  0
LINE
  5
17C8
330
1F
100
AcDbEntity
  8
0
  6
Continuous
 62
     7
370
    35
100
AcDbLine
 10
321.2482476886362
 20
85.73098301345101
 30
0.0
 11
318.748250072822
 21
85.73098301345101
 31
0.0
  0
LINE
  5
17C9
330
1F
100
AcDbEntity
  8
0
  6
Continuous
 62
     7
370
    35
100
AcDbLine
 10
318.748250072822
 20
85.73098301345101
 30
0.0
 11
318.748250072822
 21
87.23098302648953
 31
0.0
  0
LINE
  5
17CA
330
1F
100
AcDbEntity
  8
0
  6
Continuous
 62
     7
370
    35
100
AcDbLine
 10
318.748250072822
 20
87.23098302648953
 30
0.0
 11
321.2482476886362
 21
87.23098302648953
 31
0.0
  0
LINE
  5
17CB
330
1F
100
AcDbEntity
  8
0
  6
Continuous
 62
     7
370
    35
100
AcDbLine
 10
321.2482476886362
 20
85.73098301345101
 30
0.0
 11
425.2482498344034
 21
85.73098301345101
 31
0.0
  0
LINE
  5
17CC
330
1F
100
AcDbEntity
  8
0
  6
Continuous
 62
     7
370
    35
100
AcDbLine
 10
321.2482476886362
 20
87.23098302648953
 30
0.0
 11
425.2482498344034
 21
87.23098302648953
 31
0.0
  0
LINE
  5
17CD
330
1F
100
AcDbEntity
  8
0
  6
Continuous
 62
     7
370
    35
100
AcDbLine
 10
427.7482474502176
 20
87.23098302648953
 30
0.0
 11
427.7482474502176
 21
85.73098301345101
 31
0.0
  0
LINE
  5
17CE
330
1F
100
AcDbEntity
  8
0
  6
Continuous
 62
     7
370
    35
100
AcDbLine
 10
427.7482474502176
 20
85.73098301345101
 30
0.0
 11
425.2482498344034
 21
85.73098301345101
 31
0.0
  0
LINE
  5
17CF
330
1F
100
AcDbEntity
  8
0
  6
Continuous
 62
     7
370
    35
100
AcDbLine
 10
425.2482498344034
 20
87.23098302648953
 30
0.0
 11
427.7482474502176
 21
87.23098302648953
 31
0.0
  0
DIMENSION
  5
17D0
330
1F
100
AcDbEntity
  8
0
100
AcDbDimension
280
     0
  2
*D20
 10
313.6737700140244
 20
85.73098301345101
 30
0.0
 11
310.3958783473577
 21
84.48098301345106
 31
0.0
 70
    32
 71
     5
 42
1.500000013038516
 73
     0
 74
     0
 75
     0
  3
4
100
AcDbAlignedDimension
 13
318.748250072822
 23
87.23098302648953
 33
0.0
 14
318.748250072822
 24
85.73098301345101
 34
0.0
 50
90.0
100
AcDbRotatedDimension
  0
DIMENSION
  5
17D1
330
1F
100
AcDbEntity
  8
0
100
AcDbDimension
280
     0
  2
*D21
 10
427.7482474502176
 20
167.5579677900941
 30
0.0
 11
373.2482487615198
 21
170.3079677900942
 31
0.0
 70
    32
 71
     5
 42
108.9999973773956
 73
     0
 74
     0
 75
     0
  3
4
100
AcDbAlignedDimension
 13
318.748250072822
 23
151.8663923293725
 33
0.0
 14
427.7482474502176
 24
151.8663923293725
 34
0.0
100
AcDbRotatedDimension
  0
DIMENSION
  5
17D2
330
1F
100
AcDbEntity
  8
0
100
AcDbDimension
280
     0
  2
*D22
 10
305.611842928861
 20
101.3663924336807
 30
0.0
 11
302.8618429288609
 21
127.8663921207563
 31
0.0
 70
    32
 71
     5
 42
52.99999937415124
 73
     0
 74
     0
 75
     0
  3
4
100
AcDbAlignedDimension
 13
321.2482476886362
 23
154.3663918078319
 33
0.0
 14
321.2482476886362
 24
101.3663924336807
 34
0.0
 50
90.0
100
AcDbRotatedDimension
  0
LINE
  5
17D6
330
1F
100
AcDbEntity
  8
中心线
 62
     1
100
AcDbLine
 10
330.6306519360739
 20
142.8893567307488
 30
0.0
 11
330.6306519360739
 21
122.8893567307488
 31
0.0
  0
LINE
  5
17D7
330
1F
100
AcDbEntity
  8
中心线
 62
     1
100
AcDbLine
 10
362.0220682497811
 20
121.3663922503964
 30
0.0
 11
362.0220682497811
 21
110.8663925499097
 31
0.0
  0
CIRCLE
  5
17D8
330
1F
100
AcDbEntity
  8
0
100
AcDbCircle
 10
330.6306519360739
 20
142.8893567307488
 30
0.0
 40
2.0
  0
CIRCLE
  5
17D9
330
1F
100
AcDbEntity
  8
0
100
AcDbCircle
 10
330.6306519360739
 20
122.8893567307488
 30
0.0
 40
2.0
  0
LINE
  5
17DA
330
1F
100
AcDbEntity
  8
0
  6
Continuous
 62
     7
370
    35
100
AcDbLine
 10
329.5300354460366
 20
140.8393569207386
 30
0.0
 11
331.7300354460364
 21
140.8393569207386
 31
0.0
  0
LWPOLYLINE
  5
17DB
330
1F
100
AcDbEntity
  8
0
 62
     2
370
    30
100
AcDbPolyline
 90
       12
 70
     1
 43
0.0
 10
324.5306519789147
 20
144.0893567307488
 42
-0.4142135623730951
 10
327.5306519789148
 20
147.0893567307489
 10
347.0518434373231
 20
147.0893567307489
 42
-0.4142135623730951
 10
349.0518434373231
 20
145.0893567307488
 10
349.0518434373231
 20
125.0663922503964
 42
0.4142135623730951
 10
351.0518434373231
 20
123.0663922503964
 10
367.2220684967677
 20
123.0663922503964
 42
-0.4142135623730914
 10
369.2220684967677
 20
121.0663922503964
 10
369.222068496768
 20
107.1663925499098
 42
-0.4142135623730982
 10
367.222068496768
 20
105.1663925499097
 10
326.5306519789147
 20
105.1663925499097
 42
-0.4142135623730956
 10
324.5306519789147
 20
107.1663925499097
  0
LINE
  5
17DC
330
1F
100
AcDbEntity
  8
0
  6
Continuous
 62
     7
370
    35
100
AcDbLine
 10
367.5220684967679
 20
110.8663925499097
 30
0.0
 11
367.5220684967679
 21
121.3663922503964
 31
0.0
  0
MTEXT
  5
17DD
102
{ACAD_XDICTIONARY
360
1F93
102
}
330
1F
100
AcDbEntity
  8
3
 62
     7
100
AcDbMText
 10
331.7394503702173
 20
112.5651250231167
 30
0.0
 40
5.0
 41
19.89282672725863
 46
0.0
 71
     5
 72
     5
  1
\A1;\pxqc;{\fMicrosoft YaHei|b1|i0|c134|p34;IN}
  7
BomFont
 73
     1
 44
1.0
  0
MTEXT
  5
17DE
102
{ACAD_XDICTIONARY
360
1F95
102
}
330
1F
100
AcDbEntity
  8
3
 62
     7
100
AcDbMText
 10
345.4518433613272
 20
125.8793063886197
 30
0.0
 40
2.5
 41
19.89282672725863
 46
0.0
 71
     5
 72
     5
  1
\A1;\pxqc;{\fMicrosoft YaHei|b1|i0|c134|p34;PD}
  7
BomFont
 73
     1
 44
1.0
  0
MTEXT
  5
17DF
102
{ACAD_XDICTIONARY
360
1F97
102
}
330
1F
100
AcDbEntity
  8
3
 62
     7
100
AcDbMText
 10
343.9482487615197
 20
108.1663925499097
 30
0.0
 40
2.5
 41
19.89282672725863
 46
0.0
 71
     5
 72
     5
  1
\A1;\pxqc;{\fMicrosoft YaHei|b1|i0|c134|p34;DC}
  7
BomFont
 73
     1
 44
1.0
  0
LWPOLYLINE
  5
17E0
330
1F
100
AcDbEntity
  8
0
100
AcDbPolyline
 90
        2
 70
     0
 43
0.39
 10
358.0782950955652
 20
108.1663925499097
 10
360.7658411570103
 20
108.1663925499097
  0
LWPOLYLINE
  5
17E1
330
1F
100
AcDbEntity
  8
0
100
AcDbPolyline
 90
        2
 70
     0
 43
0.3
 38
0.3
 10
363.2782953425519
 20
108.1663925499097
 10
365.9658414039971
 20
108.1663925499097
  0
LWPOLYLINE
  5
17E2
330
1F
100
AcDbEntity
  8
0
100
AcDbPolyline
 90
        2
 70
     0
 43
0.3
 38
0.3
 10
364.6220683732745
 20
109.5101655806322
 10
364.6220683732745
 20
106.8226195191872
  0
LWPOLYLINE
  5
17E3
330
1F
100
AcDbEntity
  8
0
370
    35
100
AcDbPolyline
 90
        8
 70
     1
 43
0.0
 10
347.0568433613268
 20
136.3568868087059
 10
347.0568433613268
 20
129.4168868087108
 42
-0.4142135623730951
 10
346.0568433613267
 20
128.4168868087109
 10
344.8468433613276
 20
128.4168868087109
 42
-0.4142135623730951
 10
343.8468433613276
 20
129.4168868087108
 10
343.8468433613276
 20
136.3568868087059
 42
-0.4142135623740594
 10
344.8468433613312
 20
137.3568868087059
 10
346.0568433613267
 20
137.3568868087059
 42
-0.4142135623730951
  0
DIMENSION
  5
1BCE
330
1F
100
AcDbEntity
  8
0
100
AcDbDimension
280
     0
  2
*D23
 10
397.8546963934108
 20
138.5199604016926
 30
0.0
 11
387.438059918603
 21
143.3671145903216
 31
0.0
 70
    35
 71
     5
 42
5.0
 73
     0
 74
     0
 75
     0
  3
4
100
AcDbDiametricDimension
 15
393.6418011296287
 25
141.2128238398198
 35
0.0
 40
0.0
1001
ACAD
1000
DSTYLE
1002
{
1070
   288
1070
     1
1002
}
1001
ACAD_DSTYLE_DIMRADIAL_EXTENSION
1070
   387
1070
     1
1070
   388
1040
0.0
1070
   390
1040
0.0
  0
DIMENSION
  5
1C7D
330
1F
100
AcDbEntity
  8
0
100
AcDbDimension
280
     0
  2
*D24
 10
418.7536890491698
 20
114.7435159127216
 30
0.0
 11
426.2283927068029
 21
119.9836048835501
 31
0.0
 70
    35
 71
     5
 42
2.999999999999943
 73
     0
 74
     0
 75
     0
  3
4
100
AcDbDiametricDimension
 15
420.7428084738698
 25
116.9892683287909
 35
0.0
 40
0.0
1001
ACAD
1000
DSTYLE
1002
{
1070
   288
1070
     1
1002
}
1001
ACAD_DSTYLE_DIMRADIAL_EXTENSION
1070
   387
1070
     1
1070
   388
1040
0.0
1070
   390
1040
0.0
  0
DIMENSION
  5
1C8A
330
1F
100
AcDbEntity
  8
0
100
AcDbDimension
280
     0
  2
*D25
 10
417.2638897046144
 20
116.1456054377255
 30
0.0
 11
429.6856849891407
 21
114.7495388528794
 31
0.0
 70
    35
 71
     5
 42
5.000000000000056
 73
     0
 74
     0
 75
     0
  3
4
100
AcDbDiametricDimension
 15
422.232607818425
 25
115.587178803787
 35
0.0
 40
0.0
1001
ACAD
1000
DSTYLE
1002
{
1070
   288
1070
     1
1002
}
1001
ACAD_DSTYLE_DIMRADIAL_EXTENSION
1070
   387
1070
     1
1070
   388
1040
0.0
1070
   390
1040
0.0
  0
DIMENSION
  5
1D15
330
1F
100
AcDbEntity
  8
0
100
AcDbDimension
280
     0
  2
*D26
 10
329.4670291936367
 20
122.3097170898658
 30
0.0
 11
339.8748273475484
 21
125.2525029589642
 31
0.0
 70
    35
 71
     5
 42
2.599999999999909
 73
     0
 74
     0
 75
     0
  3
4
100
AcDbDiametricDimension
 15
331.794274678511
 25
123.4689963716318
 35
0.0
 40
0.0
1001
ACAD
1000
DSTYLE
1002
{
1070
   288
1070
     1
1002
}
1001
ACAD_DSTYLE_DIMRADIAL_EXTENSION
1070
   387
1070
     1
1070
   388
1040
0.0
1070
   390
1040
0.0
  0
CIRCLE
  5
1FBE
330
1F
100
AcDbEntity
  8
0
  6
Continuous
 62
     7
370
    35
100
AcDbCircle
 10
464.3630702352092
 20
151.3663921207563
 30
0.0
 40
2.5
  0
CIRCLE
  5
1FBF
330
1F
100
AcDbEntity
  8
0
  6
Continuous
 62
     7
370
    35
100
AcDbCircle
 10
567.3630702352092
 20
151.3663921207563
 30
0.0
 40
2.5
  0
CIRCLE
  5
1FC0
330
1F
100
AcDbEntity
  8
0
  6
Continuous
 62
     7
370
    35
100
AcDbCircle
 10
567.3630702352092
 20
104.3663921207563
 30
0.0
 40
2.5
  0
CIRCLE
  5
1FC1
330
1F
100
AcDbEntity
  8
0
  6
Continuous
 62
     7
370
    35
100
AcDbCircle
 10
464.3630702352092
 20
104.3663921207563
 30
0.0
 40
2.5
  0
ARC
  5
1FC9
330
1F
100
AcDbEntity
  8
0
  6
Continuous
 62
     7
370
    35
100
AcDbCircle
 10
463.8630702352092
 20
103.8663921207563
 30
0.0
 40
2.5
100
AcDbArc
 50
180.0
 51
270.0
  0
LINE
  5
1FCA
330
1F
100
AcDbEntity
  8
0
  6
Continuous
 62
     7
370
    35
100
AcDbLine
 10
461.3630715465113
 20
103.86639191214
 30
0.0
 11
461.3630715465113
 21
151.8663923293725
 31
0.0
  0
ARC
  5
1FCB
330
1F
100
AcDbEntity
  8
0
  6
Continuous
 62
     7
370
    35
100
AcDbCircle
 10
463.8630702352092
 20
151.8663921207563
 30
0.0
 40
2.5
100
AcDbArc
 50
90.0
 51
180.0
  0
LINE
  5
1FCC
330
1F
100
AcDbEntity
  8
0
  6
Continuous
 62
     7
370
    35
100
AcDbLine
 10
463.8630691623255
 20
154.3663918078319
 30
0.0
 11
567.8630713080927
 21
154.3663918078319
 31
0.0
  0
ARC
  5
1FCD
330
1F
100
AcDbEntity
  8
0
  6
Continuous
 62
     7
370
    35
100
AcDbCircle
 10
567.8630702352092
 20
151.8663921207563
 30
0.0
 40
2.5
100
AcDbArc
 50
0.0
 51
90.0
  0
LINE
  5
1FCE
330
1F
100
AcDbEntity
  8
0
  6
Continuous
 62
     7
370
    35
100
AcDbLine
 10
570.3630689239069
 20
151.8663923293725
 30
0.0
 11
570.3630689239069
 21
103.86639191214
 31
0.0
  0
ARC
  5
1FCF
330
1F
100
AcDbEntity
  8
0
  6
Continuous
 62
     7
370
    35
100
AcDbCircle
 10
567.8630702352092
 20
103.8663921207563
 30
0.0
 40
2.5
100
AcDbArc
 50
270.0
 51
0.0
  0
LINE
  5
1FD0
330
1F
100
AcDbEntity
  8
0
  6
Continuous
 62
     7
370
    35
100
AcDbLine
 10
567.8630713080927
 20
101.3663924336807
 30
0.0
 11
463.8630691623255
 21
101.3663924336807
 31
0.0
  0
CIRCLE
  5
1FF5
330
1F
100
AcDbEntity
  8
0
  6
Continuous
 62
     7
370
    35
100
AcDbCircle
 10
464.3630702352092
 20
151.3663921207563
 30
0.0
 40
1.5
  0
CIRCLE
  5
1FF6
330
1F
100
AcDbEntity
  8
0
  6
Continuous
 62
     7
370
    35
100
AcDbCircle
 10
464.3630702352092
 20
104.3663921207563
 30
0.0
 40
1.5
  0
CIRCLE
  5
1FF7
330
1F
100
AcDbEntity
  8
0
  6
Continuous
 62
     7
370
    35
100
AcDbCircle
 10
567.3630702352092
 20
151.3663921207563
 30
0.0
 40
1.5
  0
CIRCLE
  5
1FF8
330
1F
100
AcDbEntity
  8
0
  6
Continuous
 62
     7
370
    35
100
AcDbCircle
 10
567.3630702352092
 20
104.3663921207563
 30
0.0
 40
1.5
  0
INSERT
  5
2007
330
1F
100
AcDbEntity
  8
中心线
 62
     1
100
AcDbBlockReference
  2
SW_CENTERMARKSYMBOL_9
 10
464.3630702352092
 20
104.3663921207563
 30
0.0
  0
INSERT
  5
2008
330
1F
100
AcDbEntity
  8
中心线
 62
     1
100
AcDbBlockReference
  2
SW_CENTERMARKSYMBOL_10
 10
567.3630702352092
 20
104.3663921207563
 30
0.0
  0
INSERT
  5
2009
330
1F
100
AcDbEntity
  8
中心线
 62
     1
100
AcDbBlockReference
  2
SW_CENTERMARKSYMBOL_11
 10
567.3630702352092
 20
151.3663921207563
 30
0.0
  0
INSERT
  5
200A
330
1F
100
AcDbEntity
  8
中心线
 62
     1
100
AcDbBlockReference
  2
SW_CENTERMARKSYMBOL_12
 10
464.3630702352092
 20
151.3663921207563
 30
0.0
  0
DIMENSION
  5
200B
330
1F
100
AcDbEntity
  8
3
100
AcDbDimension
280
     0
  2
*D27
 10
570.3630689239069
 20
167.5579677900941
 30
0.0
 11
515.8630702352091
 21
170.3079677900942
 31
0.0
 70
    32
 71
     5
 42
108.9999973773956
 73
     0
 74
     0
 75
     0
  3
4
100
AcDbAlignedDimension
 13
461.3630715465113
 23
151.8663923293725
 33
0.0
 14
570.3630689239069
 24
151.8663923293725
 34
0.0
100
AcDbRotatedDimension
  0
DIMENSION
  5
200C
330
1F
100
AcDbEntity
  8
0
100
AcDbDimension
280
     0
  2
*D28
 10
448.2266644025506
 20
101.3663924336807
 30
0.0
 11
445.4766644025506
 21
127.8663921207562
 31
0.0
 70
    32
 71
     5
 42
52.99999937415122
 73
     0
 74
     0
 75
     0
  3
4
100
AcDbAlignedDimension
 13
463.8630691623255
 23
154.3663918078319
 33
0.0
 14
463.8630691623255
 24
101.3663924336807
 34
0.0
 50
90.0
100
AcDbRotatedDimension
  0
LWPOLYLINE
  5
20AD
330
1F
100
AcDbEntity
  8
0
370
    35
100
AcDbPolyline
 90
        2
 70
     0
 43
0.0
 10
486.317758295685
 20
147.3663921207563
 10
557.617758295685
 20
147.3663921207563
  0
LINE
  5
20AE
330
1F
100
AcDbEntity
  8
中心线
 62
     1
100
AcDbLine
 10
570.3630689239069
 20
127.8663921207563
 30
0.0
 11
461.3630715465113
 21
127.8663921207563
 31
0.0
  0
CIRCLE
  5
20B1
330
1F
100
AcDbEntity
  8
0
370
    35
100
AcDbCircle
 10
472.0891789615997
 20
140.6163921207563
 30
0.0
 40
4.0
  0
LINE
  5
20B3
330
1F
100
AcDbEntity
  8
0
370
    35
100
AcDbLine
 10
486.317758295685
 20
133.8663921207563
 30
0.0
 11
482.8152863766881
 21
133.8663921207563
 31
0.0
  0
CIRCLE
  5
20B6
330
1F
100
AcDbEntity
  8
0
370
    35
100
AcDbCircle
 10
472.0891789615997
 20
115.1163921207563
 30
0.0
 40
4.0
  0
LINE
  5
20B7
330
1F
100
AcDbEntity
  8
0
370
    35
100
AcDbLine
 10
486.317758295685
 20
121.8663921207563
 30
0.0
 11
482.8152863766881
 21
121.8663921207563
 31
0.0
  0
LINE
  5
20B8
330
1F
100
AcDbEntity
  8
0
370
    35
100
AcDbLine
 10
486.317758295685
 20
121.8663921207563
 30
0.0
 11
486.317758295685
 21
108.3663921207563
 31
0.0
  0
LINE
  5
20B9
330
1F
100
AcDbEntity
  8
0
370
    35
100
AcDbLine
 10
486.317758295685
 20
133.8663921207563
 30
0.0
 11
486.317758295685
 21
147.3663921207563
 31
0.0
  0
LINE
  5
20BA
330
1F
100
AcDbEntity
  8
0
370
    35
100
AcDbLine
 10
557.617758295685
 20
133.8663921207563
 30
0.0
 11
557.617758295685
 21
147.3663921207563
 31
0.0
  0
LINE
  5
20BB
330
1F
100
AcDbEntity
  8
0
370
    35
100
AcDbLine
 10
557.617758295685
 20
121.8663921207563
 30
0.0
 11
557.617758295685
 21
108.3663921207563
 31
0.0
  0
LINE
  5
20BC
330
1F
100
AcDbEntity
  8
0
370
    35
100
AcDbLine
 10
557.617758295685
 20
133.8663921207563
 30
0.0
 11
560.8152863766881
 21
133.8663921207563
 31
0.0
  0
LINE
  5
20BD
330
1F
100
AcDbEntity
  8
0
370
    35
100
AcDbLine
 10
557.617758295685
 20
121.8663921207563
 30
0.0
 11
560.8152863766881
 21
121.8663921207563
 31
0.0
  0
LWPOLYLINE
  5
20BE
330
1F
100
AcDbEntity
  8
0
370
    35
100
AcDbPolyline
 90
        2
 70
     0
 43
0.0
 10
482.8152863766881
 20
121.8663921207563
 10
482.8152863766881
 20
133.8663921207563
  0
LWPOLYLINE
  5
20BF
330
1F
100
AcDbEntity
  8
0
370
    35
100
AcDbPolyline
 90
        2
 70
     0
 43
0.0
 10
560.8152863766881
 20
133.8663921207563
 10
560.8152863766881
 20
121.8663921207563
  0
LWPOLYLINE
  5
20C0
330
1F
100
AcDbEntity
  8
0
370
    35
100
AcDbPolyline
 90
        2
 70
     0
 43
0.0
 10
557.617758295685
 20
108.3663921207563
 10
486.317758295685
 20
108.3663921207563
  0
DIMENSION
  5
20E5
330
1F
100
AcDbEntity
  8
中心线
100
AcDbDimension
280
     0
  2
*D33
 10
477.8005701311051
 20
108.3663921207563
 30
0.0
 11
475.050570131105
 21
127.8663921207562
 31
0.0
 70
    32
 71
     5
 42
39.0
 73
     0
 74
     0
 75
     0
  3
4
100
AcDbAlignedDimension
 13
486.317758295685
 23
147.3663921207563
 33
0.0
 14
486.317758295685
 24
108.3663921207563
 34
0.0
 50
90.0
100
AcDbRotatedDimension
  0
DIMENSION
  5
20F2
330
1F
100
AcDbEntity
  8
中心线
100
AcDbDimension
280
     0
  2
*D34
 10
489.129917341663
 20
121.8663921207563
 30
0.0
 11
486.3799173416629
 21
127.8663921207562
 31
0.0
 70
    32
 71
     5
 42
12.0
 73
     0
 74
     0
 75
     0
  3
4
100
AcDbAlignedDimension
 13
482.8152863766881
 23
133.8663921207563
 33
0.0
 14
482.8152863766881
 24
121.8663921207563
 34
0.0
 50
90.0
100
AcDbRotatedDimension
  0
DIMENSION
  5
20FF
330
1F
100
AcDbEntity
  8
中心线
100
AcDbDimension
280
     0
  2
*D35
 10
557.617758295685
 20
102.7137553451321
 30
0.0
 11
521.967758295685
 21
105.4637553451321
 31
0.0
 70
    32
 71
     5
 42
71.29999999999995
 73
     0
 74
     0
 75
     0
  3
4
100
AcDbAlignedDimension
 13
486.317758295685
 23
108.3663921207563
 33
0.0
 14
557.617758295685
 24
108.3663921207563
 34
0.0
100
AcDbRotatedDimension
  0
DIMENSION
  5
210C
330
1F
100
AcDbEntity
  8
中心线
100
AcDbDimension
280
     0
  2
*D36
 10
560.8152863766881
 20
95.99562615611649
 30
0.0
 11
521.8152863766881
 21
98.74562615611649
 31
0.0
 70
    32
 71
     5
 42
78.0
 73
     0
 74
     0
 75
     0
  3
4
100
AcDbAlignedDimension
 13
482.8152863766881
 23
121.8663921207563
 33
0.0
 14
560.8152863766881
 24
121.8663921207563
 34
0.0
100
AcDbRotatedDimension
  0
DIMENSION
  5
2126
330
1F
100
AcDbEntity
  8
中心线
100
AcDbDimension
280
     0
  2
*D38
 10
473.9601286987321
 20
111.5809222678054
 30
0.0
 11
465.5138544873352
 21
122.1873318266582
 31
0.0
 70
   163
 71
     5
 42
8.000000000000028
 73
     0
 74
     0
 75
     0
  3
4
100
AcDbDiametricDimension
 15
470.2182292244676
 25
118.6518619737072
 35
0.0
 40
0.0
1001
ACAD_DSTYLE_DIMRADIAL_EXTENSION
1070
   387
1070
     1
1070
   388
1040
0.0
1070
   390
1040
0.0
  0
INSERT
  5
213A
330
1F
100
AcDbEntity
  8
中心线
 62
     1
100
AcDbBlockReference
  2
SW_CENTERMARKSYMBOL_12
 10
472.0891789615997
 20
140.6163921207563
 30
0.0
  0
INSERT
  5
213B
330
1F
100
AcDbEntity
  8
中心线
 62
     1
100
AcDbBlockReference
  2
SW_CENTERMARKSYMBOL_12
 10
472.0891789615998
 20
115.1163921207563
 30
0.0
  0
ENDSEC
  0
SECTION
  2
OBJECTS
  0
DICTIONARY
  5
C
330
0
100
AcDbDictionary
281
     1
  3
ACAD_CIP_PREVIOUS_PRODUCT_INFO
350
1FB2
  3
ACAD_COLOR
350
375
  3
ACAD_DETAILVIEWSTYLE
350
1FA5
  3
ACAD_GROUP
350
D
  3
ACAD_LAST_SAVED_VERSION_INFO
350
1FB3
  3
ACAD_LAYOUT
350
1A
  3
ACAD_MATERIAL
350
34B
  3
ACAD_MLEADERSTYLE
350
378
  3
ACAD_MLINESTYLE
350
17
  3
ACAD_PLOTSETTINGS
350
19
  3
ACAD_PLOTSTYLENAME
350
E
  3
ACAD_SCALELIST
350
47
  3
ACAD_SECTIONVIEWSTYLE
350
1FA3
  3
ACAD_TABLESTYLE
350
376
  3
ACAD_VISUALSTYLE
350
364
  3
ACDB_RECOMPOSE_DATA
350
2157
  3
AcDbVariableDictionary
350
3DC
  3
AEC_PROPERTY_SET_DEFS
350
1015
  0
DICTIONARY
  5
3A1
330
2
100
AcDbDictionary
280
     1
281
     1
  3
ACAD_LAYERSTATES
360
3A2
  0
DICTIONARY
  5
3CE
330
10
100
AcDbDictionary
280
     1
281
     1
  3
ADSK_XREC_LAYER_RECONCILED
360
3CF
  0
DICTIONARY
  5
3D0
330
73
100
AcDbDictionary
280
     1
281
     1
  3
ADSK_XREC_LAYER_RECONCILED
360
3D1
  0
DICTIONARY
  5
3D2
330
74
100
AcDbDictionary
280
     1
281
     1
  3
ADSK_XREC_LAYER_RECONCILED
360
3D3
  0
DICTIONARY
  5
3D4
330
75
100
AcDbDictionary
280
     1
281
     1
  3
ADSK_XREC_LAYER_RECONCILED
360
3D5
  0
DICTIONARY
  5
3D6
330
76
100
AcDbDictionary
280
     1
281
     1
  3
ADSK_XREC_LAYER_RECONCILED
360
3D7
  0
DICTIONARY
  5
38E
330
38D
100
AcDbDictionary
280
     1
281
     1
  3
ADSK_XREC_LAYER_RECONCILED
360
3D8
  0
DICTIONARY
  5
1000
330
1F
100
AcDbDictionary
280
     1
281
     1
  3
ACAD_SORTENTS
360
1001
  0
DICTIONARY
  5
90E
330
90D
100
AcDbDictionary
280
     1
281
     1
  3
ACAD_SORTENTS
360
90F
  0
DICTIONARY
  5
1F93
330
17DD
100
AcDbDictionary
280
     1
281
     1
  0
DICTIONARY
  5
1F95
330
17DE
100
AcDbDictionary
280
     1
281
     1
  0
DICTIONARY
  5
1F97
330
17DF
100
AcDbDictionary
280
     1
281
     1
  0
XRECORD
  5
1FB2
102
{ACAD_REACTORS
330
C
102
}
330
C
100
AcDbXrecord
280
     1
300
ACD
300
2025
300

  0
DICTIONARY
  5
375
102
{ACAD_REACTORS
330
C
102
}
330
C
100
AcDbDictionary
281
     1
  0
DICTIONARY
  5
1FA5
102
{ACAD_REACTORS
330
C
102
}
330
C
100
AcDbDictionary
281
     1
  3
Metric50
350
1FA6
  0
DICTIONARY
  5
D
102
{ACAD_REACTORS
330
C
102
}
330
C
100
AcDbDictionary
281
     1
  0
XRECORD
  5
1FB3
102
{ACAD_REACTORS
330
C
102
}
330
C
100
AcDbXrecord
280
     1
300
{E9A16872-0470-9640-8C84-8E9431059A5B}
301
{3FAD4F1B-4800-BC49-A927-E941DA0F3313}
302
{E9A16872-0470-9640-8C84-8E9431059A5B}
303
D:\Users\molun\Desktop\SK120X前后盖尺寸图.dxf
  0
DICTIONARY
  5
1A
102
{ACAD_REACTORS
330
C
102
}
330
C
100
AcDbDictionary
281
     1
  3
Layout1
350
1E
  3
Layout2
350
26
  3
Model
350
22
  0
DICTIONARY
  5
34B
102
{ACAD_REACTORS
330
C
102
}
330
C
100
AcDbDictionary
281
     1
  3
ByBlock
350
354
  3
ByLayer
350
34C
  3
Global
350
35C
  0
DICTIONARY
  5
378
102
{ACAD_REACTORS
330
C
102
}
330
C
100
AcDbDictionary
281
     1
  3
Standard
350
379
  0
DICTIONARY
  5
17
102
{ACAD_REACTORS
330
C
102
}
330
C
100
AcDbDictionary
281
     1
  3
Standard
350
18
  0
DICTIONARY
  5
19
102
{ACAD_REACTORS
330
C
102
}
330
C
100
AcDbDictionary
281
     1
  0
ACDBDICTIONARYWDFLT
  5
E
102
{ACAD_REACTORS
330
C
102
}
330
C
100
AcDbDictionary
281
     1
  3
Normal
350
F
100
AcDbDictionaryWithDefault
340
F
  0
DICTIONARY
  5
47
102
{ACAD_REACTORS
330
C
102
}
330
C
100
AcDbDictionary
281
     1
  3
A0
350
48
  3
A1
350
49
  3
A2
350
4A
  3
A3
350
4B
  3
A4
350
4C
  3
A5
350
4D
  3
A6
350
4E
  3
A7
350
4F
  3
A8
350
50
  3
A9
350
51
  3
B0
350
52
  3
B1
350
53
  3
B2
350
54
  3
B3
350
55
  3
B4
350
56
  3
B5
350
57
  3
B6
350
58
  3
B7
350
59
  3
B8
350
5A
  3
B9
350
5B
  3
C0
350
5C
  3
C1
350
5D
  3
C2
350
5E
  3
C3
350
5F
  3
C4
350
60
  3
C5
350
61
  3
C6
350
62
  3
C7
350
63
  3
C8
350
64
  3
C9
350
65
  3
D0
350
66
  3
D1
350
67
  3
D2
350
68
  0
DICTIONARY
  5
1FA3
102
{ACAD_REACTORS
330
C
102
}
330
C
100
AcDbDictionary
281
     1
  3
Metric50
350
1FA4
  0
DICTIONARY
  5
376
102
{ACAD_REACTORS
330
C
102
}
330
C
100
AcDbDictionary
281
     1
  3
Standard
350
377
  0
DICTIONARY
  5
364
102
{ACAD_REACTORS
330
C
102
}
330
C
100
AcDbDictionary
281
     1
  3
2dWireframe
350
36A
  3
3D Hidden
350
36C
  3
3dWireframe
350
36B
  3
Basic
350
369
  3
Brighten
350
370
  3
ColorChange
350
374
  3
Conceptual
350
36D
  3
Dim
350
36F
  3
EdgeColorOff
350
1FA2
  3
Facepattern
350
373
  3
Flat
350
365
  3
FlatWithEdges
350
366
  3
Gouraud
350
367
  3
GouraudWithEdges
350
368
  3
Hidden
350
1F9A
  3
JitterOff
350
1FA0
  3
Linepattern
350
372
  3
OverhangOff
350
1FA1
  3
Realistic
350
36E
  3
Shaded
350
1F9F
  3
Shaded with edges
350
1F9E
  3
Shades of Gray
350
1F9B
  3
Sketchy
350
1F9C
  3
Thicken
350
371
  3
Wireframe
350
39E
  3
X-Ray
350
1F9D
  0
XRECORD
  5
2157
102
{ACAD_REACTORS
330
C
102
}
330
C
100
AcDbXrecord
280
     1
 90
        1
330
377
  0
DICTIONARY
  5
3DC
102
{ACAD_REACTORS
330
C
102
}
330
C
100
AcDbDictionary
281
     1
  3
CANNOSCALE
350
3E0
  3
CMLEADERSTYLE
350
3DE
  3
CTABLESTYLE
350
3DD
  3
CVIEWDETAILSTYLE
350
1FB8
  3
CVIEWSECTIONSTYLE
350
1FB9
  3
LAYEREVAL
350
1FBA
  3
LAYERNOTIFY
350
1FBB
  3
LIGHTINGUNITS
350
3E1
  3
MSLTSCALE
350
3DF
  0
DICTIONARY
  5
1015
102
{ACAD_REACTORS
330
C
102
}
330
C
100
AcDbDictionary
281
     1
  0
DICTIONARY
  5
3A2
102
{ACAD_REACTORS
330
3A1
102
}
330
3A1
100
AcDbDictionary
281
     1
  0
XRECORD
  5
3CF
102
{ACAD_REACTORS
330
3CE
102
}
330
3CE
100
AcDbXrecord
280
     1
290
     1
  0
XRECORD
  5
3D1
102
{ACAD_REACTORS
330
3D0
102
}
330
3D0
100
AcDbXrecord
280
     1
290
     1
  0
XRECORD
  5
3D3
102
{ACAD_REACTORS
330
3D2
102
}
330
3D2
100
AcDbXrecord
280
     1
290
     1
  0
XRECORD
  5
3D5
102
{ACAD_REACTORS
330
3D4
102
}
330
3D4
100
AcDbXrecord
280
     1
290
     1
  0
XRECORD
  5
3D7
102
{ACAD_REACTORS
330
3D6
102
}
330
3D6
100
AcDbXrecord
280
     1
290
     1
  0
XRECORD
  5
3D8
102
{ACAD_REACTORS
330
38E
102
}
330
38E
100
AcDbXrecord
280
     1
290
     1
  0
SORTENTSTABLE
  5
1001
102
{ACAD_REACTORS
330
1000
102
}
330
1000
100
AcDbSortentsTable
330
1F
331
20AE
  5
20B3
331
20B1
  5
20B8
331
20B3
  5
20B9
331
20B6
  5
20BA
331
20B7
  5
20BB
331
20B8
  5
20BC
331
20B9
  5
20BD
331
20BA
  5
20BE
331
20BB
  5
20BF
331
20BC
  5
20C0
331
20BD
  5
20C1
331
20BE
  5
20B1
331
20BF
  5
20AE
331
20C0
  5
20B0
  0
SORTENTSTABLE
  5
90F
102
{ACAD_REACTORS
330
90E
102
}
330
90E
100
AcDbSortentsTable
330
90D
  0
ACDBDETAILVIEWSTYLE
  5
1FA6
102
{ACAD_REACTORS
330
1FA5
102
}
330
1FA5
100
AcDbModelDocViewStyle
 70
     0
  3
Metric50
290
     1
300
Metric50
 90
        0
100
AcDbDetailViewStyle
 70
     0
 71
     0
 90
        3
 71
     1
340
11
 62
   256
 40
5.0
340
0
 62
   256
 40
5.0
300

 40
0.0
280
     1
 71
     2
340
16
 90
       25
 62
   256
 71
     3
340
11
 62
   256
 40
5.0
 90
        0
 40
15.0
 90
        1
300
%<\AcVar ViewDetailId>% (%<\AcVar ViewScale \f "%sn">%)
 71
     4
340
16
 90
       25
 62
   256
340
16
 90
       25
 62
   256
280
     0
  0
LAYOUT
  5
1E
102
{ACAD_REACTORS
330
1A
102
}
330
1A
100
AcDbPlotSettings
  1

  2
none_device
  4

  6

 40
0.0
 41
0.0
 42
0.0
 43
0.0
 44
0.0
 45
0.0
 46
0.0
 47
0.0
 48
0.0
 49
0.0
140
0.0
141
0.0
142
1.0
143
1.0
 70
   688
 72
     1
 73
     0
 74
     5
  7

 75
    16
147
1.0
 76
     0
 77
     2
 78
   300
148
0.0
149
0.0
100
AcDbLayout
  1
Layout1
 70
     1
 71
     1
 10
0.0
 20
0.0
 11
420.0
 21
297.0
 12
0.0
 22
0.0
 32
0.0
 14
1.000000000000000E+20
 24
1.000000000000000E+20
 34
1.000000000000000E+20
 15
-1.000000000000000E+20
 25
-1.000000000000000E+20
 35
-1.000000000000000E+20
146
0.0
 13
0.0
 23
0.0
 33
0.0
 16
1.0
 26
0.0
 36
0.0
 17
0.0
 27
1.0
 37
0.0
 76
     0
330
1B
  0
LAYOUT
  5
26
102
{ACAD_REACTORS
330
1A
102
}
330
1A
100
AcDbPlotSettings
  1

  2
none_device
  4

  6

 40
0.0
 41
0.0
 42
0.0
 43
0.0
 44
0.0
 45
0.0
 46
0.0
 47
0.0
 48
0.0
 49
0.0
140
0.0
141
0.0
142
1.0
143
1.0
 70
   688
 72
     1
 73
     0
 74
     5
  7

 75
    16
147
1.0
 76
     0
 77
     2
 78
   300
148
0.0
149
0.0
100
AcDbLayout
  1
Layout2
 70
     1
 71
     2
 10
0.0
 20
0.0
 11
0.0
 21
0.0
 12
0.0
 22
0.0
 32
0.0
 14
0.0
 24
0.0
 34
0.0
 15
0.0
 25
0.0
 35
0.0
146
0.0
 13
0.0
 23
0.0
 33
0.0
 16
1.0
 26
0.0
 36
0.0
 17
0.0
 27
1.0
 37
0.0
 76
     0
330
23
  0
LAYOUT
  5
22
102
{ACAD_REACTORS
330
1A
102
}
330
1A
100
AcDbPlotSettings
  1

  2
none_device
  4
Letter_(8.50_x_11.00_Inches)
  6

 40
6.349999999999999
 41
6.349999999999999
 42
6.350005079999999
 43
6.350005079999999
 44
215.9
 45
279.4
 46
0.0
 47
0.0
 48
0.0
 49
0.0
140
0.0
141
0.0
142
1.0
143
1.0
 70
  1712
 72
     1
 73
     0
 74
     0
  7

 75
     0
147
1.0
 76
     0
 77
     2
 78
   300
148
0.0
149
0.0
100
AcDbLayout
  1
Model
 70
     1
 71
     0
 10
0.0
 20
0.0
 11
210.0
 21
297.0
 12
0.0
 22
0.0
 32
0.0
 14
0.0
 24
0.0
 34
0.0
 15
210.0
 25
297.0
 35
0.0
146
0.0
 13
0.0
 23
0.0
 33
0.0
 16
1.0
 26
0.0
 36
0.0
 17
0.0
 27
1.0
 37
0.0
 76
     0
330
1F
331
29
  0
MATERIAL
  5
354
102
{ACAD_XDICTIONARY
360
355
102
}
102
{ACAD_REACTORS
330
34B
102
}
330
34B
100
AcDbMaterial
  1
ByBlock
 72
     0
 43
0.0008202099737533
 43
0.0
 43
0.0
 43
0.0
 43
0.0
 43
0.0008202099737533
 43
0.0
 43
0.0
 43
0.0
 43
0.0
 43
1.0
 43
0.0
 43
0.0
 43
0.0
 43
0.0
 43
1.0
 77
     0
 47
0.0008202099737533
 47
0.0
 47
0.0
 47
0.0
 47
0.0
 47
0.0008202099737533
 47
0.0
 47
0.0
 47
0.0
 47
0.0
 47
1.0
 47
0.0
 47
0.0
 47
0.0
 47
0.0
 47
1.0
171
     0
 49
0.0008202099737533
 49
0.0
 49
0.0
 49
0.0
 49
0.0
 49
0.0008202099737533
 49
0.0
 49
0.0
 49
0.0
 49
0.0
 49
1.0
 49
0.0
 49
0.0
 49
0.0
 49
0.0
 49
1.0
175
     0
142
0.0008202099737533
142
0.0
142
0.0
142
0.0
142
0.0
142
0.0008202099737533
142
0.0
142
0.0
142
0.0
142
0.0
142
1.0
142
0.0
142
0.0
142
0.0
142
0.0
142
1.0
179
     0
144
0.0008202099737533
144
0.0
144
0.0
144
0.0
144
0.0
144
0.0008202099737533
144
0.0
144
0.0
144
0.0
144
0.0
144
1.0
144
0.0
144
0.0
144
0.0
144
0.0
144
1.0
147
0.0008202099737533
147
0.0
147
0.0
147
0.0
147
0.0
147
0.0008202099737533
147
0.0
147
0.0
147
0.0
147
0.0
147
1.0
147
0.0
147
0.0
147
0.0
147
0.0
147
1.0
  0
MATERIAL
  5
34C
102
{ACAD_XDICTIONARY
360
34D
102
}
102
{ACAD_REACTORS
330
34B
102
}
330
34B
100
AcDbMaterial
  1
ByLayer
 72
     0
 43
0.0008202099737533
 43
0.0
 43
0.0
 43
0.0
 43
0.0
 43
0.0008202099737533
 43
0.0
 43
0.0
 43
0.0
 43
0.0
 43
1.0
 43
0.0
 43
0.0
 43
0.0
 43
0.0
 43
1.0
 77
     0
 47
0.0008202099737533
 47
0.0
 47
0.0
 47
0.0
 47
0.0
 47
0.0008202099737533
 47
0.0
 47
0.0
 47
0.0
 47
0.0
 47
1.0
 47
0.0
 47
0.0
 47
0.0
 47
0.0
 47
1.0
171
     0
 49
0.0008202099737533
 49
0.0
 49
0.0
 49
0.0
 49
0.0
 49
0.0008202099737533
 49
0.0
 49
0.0
 49
0.0
 49
0.0
 49
1.0
 49
0.0
 49
0.0
 49
0.0
 49
0.0
 49
1.0
175
     0
142
0.0008202099737533
142
0.0
142
0.0
142
0.0
142
0.0
142
0.0008202099737533
142
0.0
142
0.0
142
0.0
142
0.0
142
1.0
142
0.0
142
0.0
142
0.0
142
0.0
142
1.0
179
     0
144
0.0008202099737533
144
0.0
144
0.0
144
0.0
144
0.0
144
0.0008202099737533
144
0.0
144
0.0
144
0.0
144
0.0
144
1.0
144
0.0
144
0.0
144
0.0
144
0.0
144
1.0
147
0.0008202099737533
147
0.0
147
0.0
147
0.0
147
0.0
147
0.0008202099737533
147
0.0
147
0.0
147
0.0
147
0.0
147
1.0
147
0.0
147
0.0
147
0.0
147
0.0
147
1.0
  0
MATERIAL
  5
35C
102
{ACAD_XDICTIONARY
360
35D
102
}
102
{ACAD_REACTORS
330
34B
102
}
330
34B
100
AcDbMaterial
  1
Global
 72
     0
 43
0.0008202099737533
 43
0.0
 43
0.0
 43
0.0
 43
0.0
 43
0.0008202099737533
 43
0.0
 43
0.0
 43
0.0
 43
0.0
 43
1.0
 43
0.0
 43
0.0
 43
0.0
 43
0.0
 43
1.0
 77
     0
 47
0.0008202099737533
 47
0.0
 47
0.0
 47
0.0
 47
0.0
 47
0.0008202099737533
 47
0.0
 47
0.0
 47
0.0
 47
0.0
 47
1.0
 47
0.0
 47
0.0
 47
0.0
 47
0.0
 47
1.0
171
     0
 49
0.0008202099737533
 49
0.0
 49
0.0
 49
0.0
 49
0.0
 49
0.0008202099737533
 49
0.0
 49
0.0
 49
0.0
 49
0.0
 49
1.0
 49
0.0
 49
0.0
 49
0.0
 49
0.0
 49
1.0
175
     0
142
0.0008202099737533
142
0.0
142
0.0
142
0.0
142
0.0
142
0.0008202099737533
142
0.0
142
0.0
142
0.0
142
0.0
142
1.0
142
0.0
142
0.0
142
0.0
142
0.0
142
1.0
179
     0
144
0.0008202099737533
144
0.0
144
0.0
144
0.0
144
0.0
144
0.0008202099737533
144
0.0
144
0.0
144
0.0
144
0.0
144
1.0
144
0.0
144
0.0
144
0.0
144
0.0
144
1.0
147
0.0008202099737533
147
0.0
147
0.0
147
0.0
147
0.0
147
0.0008202099737533
147
0.0
147
0.0
147
0.0
147
0.0
147
1.0
147
0.0
147
0.0
147
0.0
147
0.0
147
1.0
  0
MLEADERSTYLE
  5
379
102
{ACAD_REACTORS
330
378
102
}
330
378
100
AcDbMLeaderStyle
179
     2
170
     2
171
     1
172
     0
 90
        2
 40
0.0
 41
0.0
173
     1
 91
-1056964608
340
14
 92
       -2
290
     1
 42
2.0
291
     1
 43
0.36
  3
Standard
 44
4.0
300

342
11
174
     1
178
     6
175
     1
176
     0
 93
-1056964608
 45
4.0
292
     0
297
     0
 46
4.0
 94
-1056964608
 47
1.0
 49
1.0
140
1.0
293
     1
141
0.0
294
     1
177
     0
142
1.0
295
     1
296
     0
143
0.125
271
     0
272
     9
273
     9
298
     0
  0
MLINESTYLE
  5
18
102
{ACAD_REACTORS
330
17
102
}
330
17
100
AcDbMlineStyle
  2
STANDARD
 70
     0
  3

 62
   256
 51
90.0
 52
90.0
 71
     2
 49
0.5
 62
   256
  6
BYLAYER
 49
-0.5
 62
   256
  6
BYLAYER
  0
ACDBPLACEHOLDER
  5
F
102
{ACAD_REACTORS
330
E
102
}
330
E
  0
SCALE
  5
48
102
{ACAD_REACTORS
330
47
102
}
330
47
100
AcDbScale
 70
     0
300
1:1
140
1.0
141
1.0
290
     1
  0
SCALE
  5
49
102
{ACAD_REACTORS
330
47
102
}
330
47
100
AcDbScale
 70
     0
300
1:2
140
1.0
141
2.0
290
     0
  0
SCALE
  5
4A
102
{ACAD_REACTORS
330
47
102
}
330
47
100
AcDbScale
 70
     0
300
1:4
140
1.0
141
4.0
290
     0
  0
SCALE
  5
4B
102
{ACAD_REACTORS
330
47
102
}
330
47
100
AcDbScale
 70
     0
300
1:5
140
1.0
141
5.0
290
     0
  0
SCALE
  5
4C
102
{ACAD_REACTORS
330
47
102
}
330
47
100
AcDbScale
 70
     0
300
1:8
140
1.0
141
8.0
290
     0
  0
SCALE
  5
4D
102
{ACAD_REACTORS
330
47
102
}
330
47
100
AcDbScale
 70
     0
300
1:10
140
1.0
141
10.0
290
     0
  0
SCALE
  5
4E
102
{ACAD_REACTORS
330
47
102
}
330
47
100
AcDbScale
 70
     0
300
1:16
140
1.0
141
16.0
290
     0
  0
SCALE
  5
4F
102
{ACAD_REACTORS
330
47
102
}
330
47
100
AcDbScale
 70
     0
300
1:20
140
1.0
141
20.0
290
     0
  0
SCALE
  5
50
102
{ACAD_REACTORS
330
47
102
}
330
47
100
AcDbScale
 70
     0
300
1:30
140
1.0
141
30.0
290
     0
  0
SCALE
  5
51
102
{ACAD_REACTORS
330
47
102
}
330
47
100
AcDbScale
 70
     0
300
1:40
140
1.0
141
40.0
290
     0
  0
SCALE
  5
52
102
{ACAD_REACTORS
330
47
102
}
330
47
100
AcDbScale
 70
     0
300
1:50
140
1.0
141
50.0
290
     0
  0
SCALE
  5
53
102
{ACAD_REACTORS
330
47
102
}
330
47
100
AcDbScale
 70
     0
300
1:100
140
1.0
141
100.0
290
     0
  0
SCALE
  5
54
102
{ACAD_REACTORS
330
47
102
}
330
47
100
AcDbScale
 70
     0
300
2:1
140
2.0
141
1.0
290
     0
  0
SCALE
  5
55
102
{ACAD_REACTORS
330
47
102
}
330
47
100
AcDbScale
 70
     0
300
4:1
140
4.0
141
1.0
290
     0
  0
SCALE
  5
56
102
{ACAD_REACTORS
330
47
102
}
330
47
100
AcDbScale
 70
     0
300
8:1
140
8.0
141
1.0
290
     0
  0
SCALE
  5
57
102
{ACAD_REACTORS
330
47
102
}
330
47
100
AcDbScale
 70
     0
300
10:1
140
10.0
141
1.0
290
     0
  0
SCALE
  5
58
102
{ACAD_REACTORS
330
47
102
}
330
47
100
AcDbScale
 70
     0
300
100:1
140
100.0
141
1.0
290
     0
  0
SCALE
  5
59
102
{ACAD_REACTORS
330
47
102
}
330
47
100
AcDbScale
 70
     0
300
1/128" = 1'-0"
140
0.0078125
141
12.0
290
     0
  0
SCALE
  5
5A
102
{ACAD_REACTORS
330
47
102
}
330
47
100
AcDbScale
 70
     0
300
1/64" = 1'-0"
140
0.015625
141
12.0
290
     0
  0
SCALE
  5
5B
102
{ACAD_REACTORS
330
47
102
}
330
47
100
AcDbScale
 70
     0
300
1/32" = 1'-0"
140
0.03125
141
12.0
290
     0
  0
SCALE
  5
5C
102
{ACAD_REACTORS
330
47
102
}
330
47
100
AcDbScale
 70
     0
300
1/16" = 1'-0"
140
0.0625
141
12.0
290
     0
  0
SCALE
  5
5D
102
{ACAD_REACTORS
330
47
102
}
330
47
100
AcDbScale
 70
     0
300
3/32" = 1'-0"
140
0.09375
141
12.0
290
     0
  0
SCALE
  5
5E
102
{ACAD_REACTORS
330
47
102
}
330
47
100
AcDbScale
 70
     0
300
1/8" = 1'-0"
140
0.125
141
12.0
290
     0
  0
SCALE
  5
5F
102
{ACAD_REACTORS
330
47
102
}
330
47
100
AcDbScale
 70
     0
300
3/16" = 1'-0"
140
0.1875
141
12.0
290
     0
  0
SCALE
  5
60
102
{ACAD_REACTORS
330
47
102
}
330
47
100
AcDbScale
 70
     0
300
1/4" = 1'-0"
140
0.25
141
12.0
290
     0
  0
SCALE
  5
61
102
{ACAD_REACTORS
330
47
102
}
330
47
100
AcDbScale
 70
     0
300
3/8" = 1'-0"
140
0.375
141
12.0
290
     0
  0
SCALE
  5
62
102
{ACAD_REACTORS
330
47
102
}
330
47
100
AcDbScale
 70
     0
300
1/2" = 1'-0"
140
0.5
141
12.0
290
     0
  0
SCALE
  5
63
102
{ACAD_REACTORS
330
47
102
}
330
47
100
AcDbScale
 70
     0
300
3/4" = 1'-0"
140
0.75
141
12.0
290
     0
  0
SCALE
  5
64
102
{ACAD_REACTORS
330
47
102
}
330
47
100
AcDbScale
 70
     0
300
1" = 1'-0"
140
1.0
141
12.0
290
     0
  0
SCALE
  5
65
102
{ACAD_REACTORS
330
47
102
}
330
47
100
AcDbScale
 70
     0
300
1-1/2" = 1'-0"
140
1.5
141
12.0
290
     0
  0
SCALE
  5
66
102
{ACAD_REACTORS
330
47
102
}
330
47
100
AcDbScale
 70
     0
300
3" = 1'-0"
140
3.0
141
12.0
290
     0
  0
SCALE
  5
67
102
{ACAD_REACTORS
330
47
102
}
330
47
100
AcDbScale
 70
     0
300
6" = 1'-0"
140
6.0
141
12.0
290
     0
  0
SCALE
  5
68
102
{ACAD_REACTORS
330
47
102
}
330
47
100
AcDbScale
 70
     0
300
1'-0" = 1'-0"
140
12.0
141
12.0
290
     0
  0
ACDBSECTIONVIEWSTYLE
  5
1FA4
102
{ACAD_REACTORS
330
1FA3
102
}
330
1FA3
100
AcDbModelDocViewStyle
 70
     0
  3
Metric50
290
     1
300
Metric50
 90
        0
100
AcDbSectionViewStyle
 70
     0
 71
     0
 90
      102
 71
     1
340
11
 62
   256
 40
5.0
340
0
340
0
 62
   256
 40
5.0
300
I, O, Q, S, X, Z
 40
10.0
 90
        0
 40
2.5
 90
        0
 71
     2
340
16
 90
       25
 62
   256
340
16
 90
       50
 62
   256
 40
5.0
 40
2.5
 40
5.0
 71
     3
340
11
 62
   256
 40
5.0
 90
        0
 40
15.0
 90
        1
300
%<\AcVar ViewSectionStartId>%-%<\AcVar ViewSectionEndId>% (%<\AcVar ViewScale \f "%sn">%)
 71
     4
 62
   256
 62
   257
300
ANSI31
 40
1.0
 90
        0
290
     0
290
     0
 90
        6
 40
0.0
 40
1.570796326794896
 40
0.2617993877991494
 40
1.308996938995747
 40
-0.2617993877991494
 40
1.832595714594046
  0
TABLESTYLE
  5
377
102
{ACAD_XDICTIONARY
360
3D9
102
}
102
{ACAD_REACTORS
330
376
102
}
330
376
100
AcDbTableStyle
280
     0
  3
Standard
 70
     0
 71
     0
 40
1.5
 41
1.5
280
     0
281
     0
  7
STANDARD
140
4.5
170
     2
 62
     0
 63
     7
283
     0
 90
      512
 91
        0
  1

274
    -2
284
     1
 64
     0
275
    -2
285
     1
 65
     0
276
    -2
286
     1
 66
     0
277
    -2
287
     1
 67
     0
278
    -2
288
     1
 68
     0
279
    -2
289
     1
 69
     0
  7
STANDARD
140
6.0
170
     5
 62
     0
 63
     7
283
     0
 90
      512
 91
        0
  1

274
    -2
284
     1
 64
     0
275
    -2
285
     1
 65
     0
276
    -2
286
     1
 66
     0
277
    -2
287
     1
 67
     0
278
    -2
288
     1
 68
     0
279
    -2
289
     1
 69
     0
  7
STANDARD
140
4.5
170
     5
 62
     0
 63
     7
283
     0
 90
      512
 91
        0
  1

274
    -2
284
     1
 64
     0
275
    -2
285
     1
 65
     0
276
    -2
286
     1
 66
     0
277
    -2
287
     1
 67
     0
278
    -2
288
     1
 68
     0
279
    -2
289
     1
 69
     0
  0
VISUALSTYLE
  5
36A
102
{ACAD_REACTORS
330
364
102
}
330
364
100
AcDbVisualStyle
  2
2dWireframe
 70
     4
177
     3
291
     0
 70
    58
 90
        0
176
     1
 90
        2
176
     1
 90
        0
176
     1
 90
        0
176
     1
 40
0.6
176
     1
 40
30.0
176
     1
 62
     7
420
 16777215
176
     1
 90
        1
176
     1
 90
        4
176
     1
 62
     7
176
     1
 62
   257
176
     1
 90
        1
176
     1
 90
        1
176
     1
 40
1.0
176
     1
 90
        0
176
     1
 62
   257
176
     1
 40
1.0
176
     1
 90
        1
176
     1
 90
        6
176
     1
 90
        2
176
     1
 62
     7
176
     1
 90
        5
176
     1
 90
        0
176
     1
 90
        0
176
     1
290
     0
176
     1
 90
        1
176
     1
 40
0.0
176
     1
 90
        0
176
     1
290
     1
176
     1
290
     1
176
     1
290
     0
176
     1
290
     0
176
     1
290
     0
176
     1
290
     0
176
     1
290
     0
176
     1
290
     0
176
     1
290
     0
176
     1
 90
       50
176
     1
 40
0.0
176
     1
 40
1.0
176
     1
 90
        0
176
     1
 62
    18
420
        0
176
     1
 90
       50
176
     1
 90
        3
176
     1
 62
     5
420
      255
176
     1
290
     0
176
     1
 90
       50
176
     1
 90
       50
176
     1
 90
       50
176
     1
290
     0
176
     1
 90
       50
176
     1
 62
   256
176
     0
 40
1.0
176
     0
 90
        2
176
     1
  1
strokes_ogs.tif
176
     1
290
     0
176
     1
 40
1.0
176
     1
 40
1.0
176
     1
  0
VISUALSTYLE
  5
36C
102
{ACAD_REACTORS
330
364
102
}
330
364
100
AcDbVisualStyle
  2
3D Hidden
 70
     6
177
     3
291
     0
 70
    58
 90
        1
176
     1
 90
        2
176
     1
 90
        2
176
     1
 90
        0
176
     1
 40
0.6
176
     1
 40
30.0
176
     1
 62
     7
420
 16777215
176
     1
 90
        2
176
     1
 90
        2
176
     1
 62
     7
176
     1
 62
   257
176
     1
 90
        2
176
     1
 90
        1
176
     1
 40
40.0
176
     1
 90
        0
176
     1
 62
   257
176
     1
 40
1.0
176
     1
 90
        1
176
     1
 90
        6
176
     1
 90
        2
176
     1
 62
     7
176
     1
 90
        3
176
     1
 90
        0
176
     1
 90
        0
176
     1
290
     0
176
     1
 90
        1
176
     1
 40
0.0
176
     1
 90
        0
176
     1
290
     0
176
     1
290
     1
176
     1
290
     1
176
     1
290
     0
176
     1
290
     0
176
     1
290
     0
176
     1
290
     0
176
     1
290
     0
176
     1
290
     0
176
     1
 90
       50
176
     1
 40
0.0
176
     1
 40
1.0
176
     1
 90
        0
176
     1
 62
    18
420
        0
176
     1
 90
       50
176
     1
 90
        3
176
     1
 62
     5
420
      255
176
     1
290
     0
176
     1
 90
       50
176
     1
 90
       50
176
     1
 90
       50
176
     1
290
     0
176
     1
 90
       50
176
     1
 62
   256
176
     0
 40
1.0
176
     0
 90
        2
176
     1
  1
strokes_ogs.tif
176
     1
290
     0
176
     1
 40
1.0
176
     1
 40
1.0
176
     1
  0
VISUALSTYLE
  5
36B
102
{ACAD_REACTORS
330
364
102
}
330
364
100
AcDbVisualStyle
  2
3dWireframe
 70
     5
177
     3
291
     0
 70
    58
 90
        0
176
     1
 90
        2
176
     1
 90
        0
176
     1
 90
        0
176
     1
 40
0.6
176
     1
 40
30.0
176
     1
 62
     7
420
 16777215
176
     1
 90
        1
176
     1
 90
        4
176
     1
 62
     7
176
     1
 62
   257
176
     1
 90
        1
176
     1
 90
        1
176
     1
 40
1.0
176
     1
 90
        0
176
     1
 62
   257
176
     1
 40
1.0
176
     1
 90
        1
176
     1
 90
        6
176
     1
 90
        2
176
     1
 62
     7
176
     1
 90
        5
176
     1
 90
        0
176
     1
 90
        0
176
     1
290
     0
176
     1
 90
        1
176
     1
 40
0.0
176
     1
 90
        0
176
     1
290
     0
176
     1
290
     1
176
     1
290
     1
176
     1
290
     0
176
     1
290
     0
176
     1
290
     0
176
     1
290
     0
176
     1
290
     0
176
     1
290
     0
176
     1
 90
       50
176
     1
 40
0.0
176
     1
 40
1.0
176
     1
 90
        0
176
     1
 62
    18
420
        0
176
     1
 90
       50
176
     1
 90
        3
176
     1
 62
     5
420
      255
176
     1
290
     0
176
     1
 90
       50
176
     1
 90
       50
176
     1
 90
       50
176
     1
290
     0
176
     1
 90
       50
176
     1
 62
   256
176
     0
 40
1.0
176
     0
 90
        2
176
     1
  1
strokes_ogs.tif
176
     1
290
     0
176
     1
 40
1.0
176
     1
 40
1.0
176
     1
  0
VISUALSTYLE
  5
369
102
{ACAD_REACTORS
330
364
102
}
330
364
100
AcDbVisualStyle
  2
Basic
 70
     7
177
     3
291
     1
 70
    58
 90
        1
176
     1
 90
        0
176
     1
 90
        1
176
     1
 90
        0
176
     1
 40
0.6
176
     1
 40
30.0
176
     1
 62
     7
420
 16777215
176
     1
 90
        0
176
     1
 90
        4
176
     1
 62
     7
176
     1
 62
   257
176
     1
 90
        1
176
     1
 90
        1
176
     1
 40
1.0
176
     1
 90
        8
176
     1
 62
     7
176
     1
 40
1.0
176
     1
 90
        1
176
     1
 90
        6
176
     1
 90
        2
176
     1
 62
     7
176
     1
 90
        5
176
     1
 90
        0
176
     1
 90
        0
176
     1
290
     0
176
     1
 90
        1
176
     1
 40
0.0
176
     1
 90
        0
176
     1
290
     0
176
     1
290
     1
176
     1
290
     1
176
     1
290
     0
176
     1
290
     0
176
     1
290
     0
176
     1
290
     0
176
     1
290
     0
176
     1
290
     0
176
     1
 90
       50
176
     1
 40
0.0
176
     1
 40
1.0
176
     1
 90
        0
176
     1
 62
    18
420
        0
176
     1
 90
       50
176
     1
 90
        3
176
     1
 62
     5
420
      255
176
     1
290
     0
176
     1
 90
       50
176
     1
 90
       50
176
     1
 90
       50
176
     1
290
     0
176
     1
 90
       50
176
     1
 62
   256
176
     0
 40
1.0
176
     0
 90
        2
176
     1
  1
strokes_ogs.tif
176
     1
290
     0
176
     1
 40
1.0
176
     1
 40
1.0
176
     1
  0
VISUALSTYLE
  5
370
102
{ACAD_REACTORS
330
364
102
}
330
364
100
AcDbVisualStyle
  2
Brighten
 70
    12
177
     3
291
     1
 70
    58
 90
        2
176
     1
 90
        2
176
     1
 90
        0
176
     1
 90
        0
176
     1
 40
0.6
176
     1
 40
30.0
176
     1
 62
     7
420
 16777215
176
     1
 90
        1
176
     1
 90
        4
176
     1
 62
     7
176
     1
 62
   257
176
     1
 90
        1
176
     1
 90
        1
176
     1
 40
1.0
176
     1
 90
        8
176
     1
 62
     7
176
     1
 40
1.0
176
     1
 90
        1
176
     1
 90
        6
176
     1
 90
        2
176
     1
 62
     7
176
     1
 90
        5
176
     1
 90
        0
176
     1
 90
        0
176
     1
290
     0
176
     1
 90
        1
176
     1
 40
50.0
176
     1
 90
        0
176
     1
290
     0
176
     1
290
     1
176
     1
290
     1
176
     1
290
     0
176
     1
290
     0
176
     1
290
     0
176
     1
290
     0
176
     1
290
     0
176
     1
290
     0
176
     1
 90
       50
176
     1
 40
0.0
176
     1
 40
1.0
176
     1
 90
        0
176
     1
 62
    18
420
        0
176
     1
 90
       50
176
     1
 90
        3
176
     1
 62
     5
420
      255
176
     1
290
     0
176
     1
 90
       50
176
     1
 90
       50
176
     1
 90
       50
176
     1
290
     0
176
     1
 90
       50
176
     1
 62
   256
176
     0
 40
1.0
176
     0
 90
        2
176
     1
  1
strokes_ogs.tif
176
     1
290
     0
176
     1
 40
1.0
176
     1
 40
1.0
176
     1
  0
VISUALSTYLE
  5
374
102
{ACAD_REACTORS
330
364
102
}
330
364
100
AcDbVisualStyle
  2
ColorChange
 70
    16
177
     3
291
     1
 70
    58
 90
        2
176
     1
 90
        2
176
     1
 90
        3
176
     1
 90
        0
176
     1
 40
0.6
176
     1
 40
30.0
176
     1
 62
     8
420
  8421504
176
     1
 90
        1
176
     1
 90
        4
176
     1
 62
     7
176
     1
 62
   257
176
     1
 90
        1
176
     1
 90
        1
176
     1
 40
1.0
176
     1
 90
        8
176
     1
 62
     8
420
  8421504
176
     1
 40
1.0
176
     1
 90
        1
176
     1
 90
        6
176
     1
 90
        2
176
     1
 62
     7
176
     1
 90
        5
176
     1
 90
        0
176
     1
 90
        0
176
     1
290
     0
176
     1
 90
        1
176
     1
 40
0.0
176
     1
 90
        0
176
     1
290
     0
176
     1
290
     1
176
     1
290
     1
176
     1
290
     0
176
     1
290
     0
176
     1
290
     0
176
     1
290
     0
176
     1
290
     0
176
     1
290
     0
176
     1
 90
       50
176
     1
 40
0.0
176
     1
 40
1.0
176
     1
 90
        0
176
     1
 62
    18
420
        0
176
     1
 90
       50
176
     1
 90
        3
176
     1
 62
     5
420
      255
176
     1
290
     0
176
     1
 90
       50
176
     1
 90
       50
176
     1
 90
       50
176
     1
290
     0
176
     1
 90
       50
176
     1
 62
   256
176
     0
 40
1.0
176
     0
 90
        2
176
     1
  1
strokes_ogs.tif
176
     1
290
     0
176
     1
 40
1.0
176
     1
 40
1.0
176
     1
  0
VISUALSTYLE
  5
36D
102
{ACAD_REACTORS
330
364
102
}
330
364
100
AcDbVisualStyle
  2
Conceptual
 70
     9
177
     3
291
     0
 70
    58
 90
        3
176
     1
 90
        2
176
     1
 90
        0
176
     1
 90
        0
176
     1
 40
0.6
176
     1
 40
30.0
176
     1
 62
     7
420
 16777215
176
     1
 90
        2
176
     1
 90
        2
176
     1
 62
     7
176
     1
 62
   257
176
     1
 90
        1
176
     1
 90
        1
176
     1
 40
40.0
176
     1
 90
        8
176
     1
 62
     7
176
     1
 40
1.0
176
     1
 90
        1
176
     1
 90
        6
176
     1
 90
        2
176
     1
 62
     7
176
     1
 90
        3
176
     1
 90
        0
176
     1
 90
        0
176
     1
290
     0
176
     1
 90
        1
176
     1
 40
0.0
176
     1
 90
        0
176
     1
290
     0
176
     1
290
     1
176
     1
290
     1
176
     1
290
     0
176
     1
290
     0
176
     1
290
     0
176
     1
290
     0
176
     1
290
     0
176
     1
290
     0
176
     1
 90
       50
176
     1
 40
0.0
176
     1
 40
1.0
176
     1
 90
        0
176
     1
 62
    18
420
        0
176
     1
 90
       50
176
     1
 90
        3
176
     1
 62
     5
420
      255
176
     1
290
     0
176
     1
 90
       50
176
     1
 90
       50
176
     1
 90
       50
176
     1
290
     0
176
     1
 90
       50
176
     1
 62
   256
176
     0
 40
1.0
176
     0
 90
        2
176
     1
  1
strokes_ogs.tif
176
     1
290
     0
176
     1
 40
1.0
176
     1
 40
1.0
176
     1
  0
VISUALSTYLE
  5
36F
102
{ACAD_REACTORS
330
364
102
}
330
364
100
AcDbVisualStyle
  2
Dim
 70
    11
177
     3
291
     1
 70
    58
 90
        2
176
     1
 90
        2
176
     1
 90
        0
176
     1
 90
        0
176
     1
 40
0.6
176
     1
 40
30.0
176
     1
 62
     7
420
 16777215
176
     1
 90
        1
176
     1
 90
        4
176
     1
 62
     7
176
     1
 62
   257
176
     1
 90
        1
176
     1
 90
        1
176
     1
 40
1.0
176
     1
 90
        8
176
     1
 62
     7
176
     1
 40
1.0
176
     1
 90
        1
176
     1
 90
        6
176
     1
 90
        2
176
     1
 62
     7
176
     1
 90
        5
176
     1
 90
        0
176
     1
 90
        0
176
     1
290
     0
176
     1
 90
        1
176
     1
 40
-50.0
176
     1
 90
        0
176
     1
290
     0
176
     1
290
     1
176
     1
290
     1
176
     1
290
     0
176
     1
290
     0
176
     1
290
     0
176
     1
290
     0
176
     1
290
     0
176
     1
290
     0
176
     1
 90
       50
176
     1
 40
0.0
176
     1
 40
1.0
176
     1
 90
        0
176
     1
 62
    18
420
        0
176
     1
 90
       50
176
     1
 90
        3
176
     1
 62
     5
420
      255
176
     1
290
     0
176
     1
 90
       50
176
     1
 90
       50
176
     1
 90
       50
176
     1
290
     0
176
     1
 90
       50
176
     1
 62
   256
176
     0
 40
1.0
176
     0
 90
        2
176
     1
  1
strokes_ogs.tif
176
     1
290
     0
176
     1
 40
1.0
176
     1
 40
1.0
176
     1
  0
VISUALSTYLE
  5
1FA2
102
{ACAD_REACTORS
330
364
102
}
330
364
100
AcDbVisualStyle
  2
EdgeColorOff
 70
    22
177
     3
291
     1
 70
    58
 90
        2
176
     0
 90
        2
176
     0
 90
        0
176
     0
 90
        0
176
     0
 40
0.6
176
     0
 40
30.0
176
     0
 62
     7
420
 16777215
176
     0
 90
        1
176
     0
 90
        4
176
     0
 62
     7
176
     0
 62
   257
176
     0
 90
        1
176
     0
 90
        1
176
     0
 40
1.0
176
     0
 90
        8
176
     2
 62
     7
176
     0
 40
1.0
176
     0
 90
        1
176
     0
 90
        6
176
     0
 90
        2
176
     0
 62
     7
176
     0
 90
        5
176
     0
 90
        0
176
     0
 90
        0
176
     0
290
     0
176
     0
 90
        1
176
     0
 40
0.0
176
     0
 90
        0
176
     0
290
     0
176
     0
290
     1
176
     0
290
     1
176
     0
290
     0
176
     0
290
     0
176
     0
290
     0
176
     0
290
     0
176
     0
290
     0
176
     0
290
     0
176
     0
 90
       50
176
     0
 40
0.0
176
     0
 40
1.0
176
     0
 90
        0
176
     0
 62
    18
420
        0
176
     0
 90
       50
176
     0
 90
        3
176
     0
 62
     5
420
      255
176
     0
290
     0
176
     0
 90
       50
176
     0
 90
       50
176
     0
 90
       50
176
     0
290
     0
176
     0
 90
       50
176
     0
 62
   256
176
     0
 40
1.0
176
     0
 90
        2
176
     0
  1
strokes_ogs.tif
176
     0
290
     0
176
     0
 40
1.0
176
     0
 40
1.0
176
     0
  0
VISUALSTYLE
  5
373
102
{ACAD_REACTORS
330
364
102
}
330
364
100
AcDbVisualStyle
  2
Facepattern
 70
    15
177
     3
291
     1
 70
    58
 90
        2
176
     1
 90
        2
176
     1
 90
        0
176
     1
 90
        0
176
     1
 40
0.6
176
     1
 40
30.0
176
     1
 62
     7
420
 16777215
176
     1
 90
        1
176
     1
 90
        4
176
     1
 62
     7
176
     1
 62
   257
176
     1
 90
        1
176
     1
 90
        1
176
     1
 40
1.0
176
     1
 90
        8
176
     1
 62
     7
176
     1
 40
1.0
176
     1
 90
        1
176
     1
 90
        6
176
     1
 90
        2
176
     1
 62
     7
176
     1
 90
        5
176
     1
 90
        0
176
     1
 90
        0
176
     1
290
     0
176
     1
 90
        1
176
     1
 40
0.0
176
     1
 90
        0
176
     1
290
     0
176
     1
290
     1
176
     1
290
     1
176
     1
290
     0
176
     1
290
     0
176
     1
290
     0
176
     1
290
     0
176
     1
290
     0
176
     1
290
     0
176
     1
 90
       50
176
     1
 40
0.0
176
     1
 40
1.0
176
     1
 90
        0
176
     1
 62
    18
420
        0
176
     1
 90
       50
176
     1
 90
        3
176
     1
 62
     5
420
      255
176
     1
290
     0
176
     1
 90
       50
176
     1
 90
       50
176
     1
 90
       50
176
     1
290
     0
176
     1
 90
       50
176
     1
 62
   256
176
     0
 40
1.0
176
     0
 90
        2
176
     1
  1
strokes_ogs.tif
176
     1
290
     0
176
     1
 40
1.0
176
     1
 40
1.0
176
     1
  0
VISUALSTYLE
  5
365
102
{ACAD_REACTORS
330
364
102
}
330
364
100
AcDbVisualStyle
  2
Flat
 70
     0
177
     3
291
     1
 70
    58
 90
        2
176
     1
 90
        1
176
     1
 90
        1
176
     1
 90
        2
176
     1
 40
0.6
176
     1
 40
30.0
176
     1
 62
     7
420
 16777215
176
     1
 90
        0
176
     1
 90
        4
176
     1
 62
     7
176
     1
 62
   257
176
     1
 90
        1
176
     1
 90
        1
176
     1
 40
1.0
176
     1
 90
        8
176
     1
 62
     7
176
     1
 40
1.0
176
     1
 90
        1
176
     1
 90
        6
176
     1
 90
        2
176
     1
 62
     7
176
     1
 90
        5
176
     1
 90
        0
176
     1
 90
        0
176
     1
290
     0
176
     1
 90
       13
176
     1
 40
0.0
176
     1
 90
        0
176
     1
290
     0
176
     1
290
     1
176
     1
290
     1
176
     1
290
     0
176
     1
290
     0
176
     1
290
     0
176
     1
290
     0
176
     1
290
     0
176
     1
290
     0
176
     1
 90
       50
176
     1
 40
0.0
176
     1
 40
1.0
176
     1
 90
        0
176
     1
 62
    18
420
        0
176
     1
 90
       50
176
     1
 90
        3
176
     1
 62
     5
420
      255
176
     1
290
     0
176
     1
 90
       50
176
     1
 90
       50
176
     1
 90
       50
176
     1
290
     0
176
     1
 90
       50
176
     1
 62
   256
176
     0
 40
1.0
176
     0
 90
        2
176
     1
  1
strokes_ogs.tif
176
     1
290
     0
176
     1
 40
1.0
176
     1
 40
1.0
176
     1
  0
VISUALSTYLE
  5
366
102
{ACAD_REACTORS
330
364
102
}
330
364
100
AcDbVisualStyle
  2
FlatWithEdges
 70
     1
177
     3
291
     1
 70
    58
 90
        2
176
     1
 90
        1
176
     1
 90
        1
176
     1
 90
        2
176
     1
 40
0.6
176
     1
 40
30.0
176
     1
 62
     7
420
 16777215
176
     1
 90
        1
176
     1
 90
        4
176
     1
 62
     7
176
     1
 62
   257
176
     1
 90
        1
176
     1
 90
        1
176
     1
 40
1.0
176
     1
 90
        0
176
     1
 62
   257
176
     1
 40
1.0
176
     1
 90
        1
176
     1
 90
        6
176
     1
 90
        2
176
     1
 62
     7
176
     1
 90
        5
176
     1
 90
        0
176
     1
 90
        0
176
     1
290
     0
176
     1
 90
       13
176
     1
 40
0.0
176
     1
 90
        0
176
     1
290
     0
176
     1
290
     1
176
     1
290
     1
176
     1
290
     0
176
     1
290
     0
176
     1
290
     0
176
     1
290
     0
176
     1
290
     0
176
     1
290
     0
176
     1
 90
       50
176
     1
 40
0.0
176
     1
 40
1.0
176
     1
 90
        0
176
     1
 62
    18
420
        0
176
     1
 90
       50
176
     1
 90
        3
176
     1
 62
     5
420
      255
176
     1
290
     0
176
     1
 90
       50
176
     1
 90
       50
176
     1
 90
       50
176
     1
290
     0
176
     1
 90
       50
176
     1
 62
   256
176
     0
 40
1.0
176
     0
 90
        2
176
     1
  1
strokes_ogs.tif
176
     1
290
     0
176
     1
 40
1.0
176
     1
 40
1.0
176
     1
  0
VISUALSTYLE
  5
367
102
{ACAD_REACTORS
330
364
102
}
330
364
100
AcDbVisualStyle
  2
Gouraud
 70
     2
177
     3
291
     1
 70
    58
 90
        2
176
     1
 90
        2
176
     1
 90
        1
176
     1
 90
        2
176
     1
 40
0.6
176
     1
 40
30.0
176
     1
 62
     7
420
 16777215
176
     1
 90
        0
176
     1
 90
        4
176
     1
 62
     7
176
     1
 62
   257
176
     1
 90
        1
176
     1
 90
        1
176
     1
 40
1.0
176
     1
 90
        0
176
     1
 62
     7
176
     1
 40
1.0
176
     1
 90
        1
176
     1
 90
        6
176
     1
 90
        2
176
     1
 62
     7
176
     1
 90
        5
176
     1
 90
        0
176
     1
 90
        0
176
     1
290
     0
176
     1
 90
       13
176
     1
 40
0.0
176
     1
 90
        0
176
     1
290
     0
176
     1
290
     1
176
     1
290
     1
176
     1
290
     0
176
     1
290
     0
176
     1
290
     0
176
     1
290
     0
176
     1
290
     0
176
     1
290
     0
176
     1
 90
       50
176
     1
 40
0.0
176
     1
 40
1.0
176
     1
 90
        0
176
     1
 62
    18
420
        0
176
     1
 90
       50
176
     1
 90
        3
176
     1
 62
     5
420
      255
176
     1
290
     0
176
     1
 90
       50
176
     1
 90
       50
176
     1
 90
       50
176
     1
290
     0
176
     1
 90
       50
176
     1
 62
   256
176
     0
 40
1.0
176
     0
 90
        2
176
     1
  1
strokes_ogs.tif
176
     1
290
     0
176
     1
 40
1.0
176
     1
 40
1.0
176
     1
  0
VISUALSTYLE
  5
368
102
{ACAD_REACTORS
330
364
102
}
330
364
100
AcDbVisualStyle
  2
GouraudWithEdges
 70
     3
177
     3
291
     1
 70
    58
 90
        2
176
     1
 90
        2
176
     1
 90
        1
176
     1
 90
        2
176
     1
 40
0.6
176
     1
 40
30.0
176
     1
 62
     7
420
 16777215
176
     1
 90
        1
176
     1
 90
        4
176
     1
 62
     7
176
     1
 62
   257
176
     1
 90
        1
176
     1
 90
        1
176
     1
 40
1.0
176
     1
 90
        0
176
     1
 62
   257
176
     1
 40
1.0
176
     1
 90
        1
176
     1
 90
        6
176
     1
 90
        2
176
     1
 62
     7
176
     1
 90
        5
176
     1
 90
        0
176
     1
 90
        0
176
     1
290
     0
176
     1
 90
       13
176
     1
 40
0.0
176
     1
 90
        0
176
     1
290
     0
176
     1
290
     1
176
     1
290
     1
176
     1
290
     0
176
     1
290
     0
176
     1
290
     0
176
     1
290
     0
176
     1
290
     0
176
     1
290
     0
176
     1
 90
       50
176
     1
 40
0.0
176
     1
 40
1.0
176
     1
 90
        0
176
     1
 62
    18
420
        0
176
     1
 90
       50
176
     1
 90
        3
176
     1
 62
     5
420
      255
176
     1
290
     0
176
     1
 90
       50
176
     1
 90
       50
176
     1
 90
       50
176
     1
290
     0
176
     1
 90
       50
176
     1
 62
   256
176
     0
 40
1.0
176
     0
 90
        2
176
     1
  1
strokes_ogs.tif
176
     1
290
     0
176
     1
 40
1.0
176
     1
 40
1.0
176
     1
  0
VISUALSTYLE
  5
1F9A
102
{ACAD_REACTORS
330
364
102
}
330
364
100
AcDbVisualStyle
  2
Hidden
 70
     6
177
     3
291
     0
 70
    58
 90
        1
176
     1
 90
        2
176
     1
 90
        2
176
     1
 90
        0
176
     1
 40
0.6
176
     1
 40
30.0
176
     1
 62
     7
420
 16777215
176
     1
 90
        2
176
     1
 90
        2
176
     1
 62
     7
176
     1
 62
   257
176
     1
 90
        2
176
     1
 90
        1
176
     1
 40
40.0
176
     1
 90
        0
176
     1
 62
   257
176
     1
 40
1.0
176
     1
 90
        1
176
     1
 90
        6
176
     1
 90
        2
176
     1
 62
     7
176
     1
 90
        3
176
     1
 90
        0
176
     1
 90
        0
176
     1
290
     0
176
     1
 90
        1
176
     1
 40
0.0
176
     1
 90
        0
176
     1
290
     0
176
     1
290
     1
176
     1
290
     1
176
     1
290
     0
176
     1
290
     0
176
     1
290
     0
176
     1
290
     0
176
     1
290
     0
176
     1
290
     0
176
     1
 90
       50
176
     1
 40
0.0
176
     1
 40
1.0
176
     1
 90
        0
176
     1
 62
    18
420
        0
176
     1
 90
       50
176
     1
 90
        3
176
     1
 62
     5
420
      255
176
     1
290
     0
176
     1
 90
       50
176
     1
 90
       50
176
     1
 90
       50
176
     1
290
     0
176
     1
 90
       50
176
     1
 62
   256
176
     0
 40
1.0
176
     0
 90
        2
176
     1
  1
strokes_ogs.tif
176
     1
290
     0
176
     1
 40
1.0
176
     1
 40
1.0
176
     1
  0
VISUALSTYLE
  5
1FA0
102
{ACAD_REACTORS
330
364
102
}
330
364
100
AcDbVisualStyle
  2
JitterOff
 70
    20
177
     3
291
     1
 70
    58
 90
        2
176
     0
 90
        2
176
     0
 90
        0
176
     0
 90
        0
176
     0
 40
0.6
176
     0
 40
30.0
176
     0
 62
     7
420
 16777215
176
     0
 90
        1
176
     0
 90
        4
176
     0
 62
     7
176
     0
 62
   257
176
     0
 90
        1
176
     0
 90
        1
176
     0
 40
1.0
176
     0
 90
       10
176
     2
 62
     7
176
     0
 40
1.0
176
     0
 90
        1
176
     0
 90
        6
176
     0
 90
        2
176
     0
 62
     7
176
     0
 90
        5
176
     0
 90
        0
176
     0
 90
        0
176
     0
290
     0
176
     0
 90
        1
176
     0
 40
0.0
176
     0
 90
        0
176
     0
290
     0
176
     0
290
     1
176
     0
290
     1
176
     0
290
     0
176
     0
290
     0
176
     0
290
     0
176
     0
290
     0
176
     0
290
     0
176
     0
290
     0
176
     0
 90
       50
176
     0
 40
0.0
176
     0
 40
1.0
176
     0
 90
        0
176
     0
 62
    18
420
        0
176
     0
 90
       50
176
     0
 90
        3
176
     0
 62
     5
420
      255
176
     0
290
     0
176
     0
 90
       50
176
     0
 90
       50
176
     0
 90
       50
176
     0
290
     0
176
     0
 90
       50
176
     0
 62
   256
176
     0
 40
1.0
176
     0
 90
        2
176
     0
  1
strokes_ogs.tif
176
     0
290
     0
176
     0
 40
1.0
176
     0
 40
1.0
176
     0
  0
VISUALSTYLE
  5
372
102
{ACAD_REACTORS
330
364
102
}
330
364
100
AcDbVisualStyle
  2
Linepattern
 70
    14
177
     3
291
     1
 70
    58
 90
        2
176
     1
 90
        2
176
     1
 90
        0
176
     1
 90
        0
176
     1
 40
0.6
176
     1
 40
30.0
176
     1
 62
     7
420
 16777215
176
     1
 90
        1
176
     1
 90
        4
176
     1
 62
     7
176
     1
 62
   257
176
     1
 90
        7
176
     1
 90
        7
176
     1
 40
1.0
176
     1
 90
        8
176
     1
 62
     7
176
     1
 40
1.0
176
     1
 90
        1
176
     1
 90
        6
176
     1
 90
        2
176
     1
 62
     7
176
     1
 90
        5
176
     1
 90
        0
176
     1
 90
        0
176
     1
290
     0
176
     1
 90
        1
176
     1
 40
0.0
176
     1
 90
        0
176
     1
290
     0
176
     1
290
     1
176
     1
290
     1
176
     1
290
     0
176
     1
290
     0
176
     1
290
     0
176
     1
290
     0
176
     1
290
     0
176
     1
290
     0
176
     1
 90
       50
176
     1
 40
0.0
176
     1
 40
1.0
176
     1
 90
        0
176
     1
 62
    18
420
        0
176
     1
 90
       50
176
     1
 90
        3
176
     1
 62
     5
420
      255
176
     1
290
     0
176
     1
 90
       50
176
     1
 90
       50
176
     1
 90
       50
176
     1
290
     0
176
     1
 90
       50
176
     1
 62
   256
176
     0
 40
1.0
176
     0
 90
        2
176
     1
  1
strokes_ogs.tif
176
     1
290
     0
176
     1
 40
1.0
176
     1
 40
1.0
176
     1
  0
VISUALSTYLE
  5
1FA1
102
{ACAD_REACTORS
330
364
102
}
330
364
100
AcDbVisualStyle
  2
OverhangOff
 70
    21
177
     3
291
     1
 70
    58
 90
        2
176
     0
 90
        2
176
     0
 90
        0
176
     0
 90
        0
176
     0
 40
0.6
176
     0
 40
30.0
176
     0
 62
     7
420
 16777215
176
     0
 90
        1
176
     0
 90
        4
176
     0
 62
     7
176
     0
 62
   257
176
     0
 90
        1
176
     0
 90
        1
176
     0
 40
1.0
176
     0
 90
        9
176
     2
 62
     7
176
     0
 40
1.0
176
     0
 90
        1
176
     0
 90
        6
176
     0
 90
        2
176
     0
 62
     7
176
     0
 90
        5
176
     0
 90
        0
176
     0
 90
        0
176
     0
290
     0
176
     0
 90
        1
176
     0
 40
0.0
176
     0
 90
        0
176
     0
290
     0
176
     0
290
     1
176
     0
290
     1
176
     0
290
     0
176
     0
290
     0
176
     0
290
     0
176
     0
290
     0
176
     0
290
     0
176
     0
290
     0
176
     0
 90
       50
176
     0
 40
0.0
176
     0
 40
1.0
176
     0
 90
        0
176
     0
 62
    18
420
        0
176
     0
 90
       50
176
     0
 90
        3
176
     0
 62
     5
420
      255
176
     0
290
     0
176
     0
 90
       50
176
     0
 90
       50
176
     0
 90
       50
176
     0
290
     0
176
     0
 90
       50
176
     0
 62
   256
176
     0
 40
1.0
176
     0
 90
        2
176
     0
  1
strokes_ogs.tif
176
     0
290
     0
176
     0
 40
1.0
176
     0
 40
1.0
176
     0
  0
VISUALSTYLE
  5
36E
102
{ACAD_REACTORS
330
364
102
}
330
364
100
AcDbVisualStyle
  2
Realistic
 70
     8
177
     3
291
     0
 70
    58
 90
        2
176
     1
 90
        2
176
     1
 90
        0
176
     1
 90
        0
176
     1
 40
0.6
176
     1
 40
30.0
176
     1
 62
     7
420
 16777215
176
     1
 90
        1
176
     1
 90
        0
176
     1
 62
     7
176
     1
 62
   257
176
     1
 90
        1
176
     1
 90
        1
176
     1
 40
1.0
176
     1
 90
        8
176
     1
 62
     8
420
  7895160
176
     1
 40
1.0
176
     1
 90
        1
176
     1
 90
        6
176
     1
 90
        2
176
     1
 62
     7
176
     1
 90
        5
176
     1
 90
        0
176
     1
 90
        0
176
     1
290
     0
176
     1
 90
       13
176
     1
 40
0.0
176
     1
 90
        0
176
     1
290
     0
176
     1
290
     1
176
     1
290
     1
176
     1
290
     0
176
     1
290
     0
176
     1
290
     0
176
     1
290
     0
176
     1
290
     0
176
     1
290
     0
176
     1
 90
       50
176
     1
 40
0.0
176
     1
 40
1.0
176
     1
 90
        0
176
     1
 62
    18
420
        0
176
     1
 90
       50
176
     1
 90
        3
176
     1
 62
     5
420
      255
176
     1
290
     0
176
     1
 90
       50
176
     1
 90
       50
176
     1
 90
       50
176
     1
290
     0
176
     1
 90
       50
176
     1
 62
   256
176
     0
 40
1.0
176
     0
 90
        2
176
     1
  1
strokes_ogs.tif
176
     1
290
     0
176
     1
 40
1.0
176
     1
 40
1.0
176
     1
  0
VISUALSTYLE
  5
1F9F
102
{ACAD_REACTORS
330
364
102
}
330
364
100
AcDbVisualStyle
  2
Shaded
 70
    27
177
     3
291
     0
 70
    58
 90
        2
176
     1
 90
        2
176
     1
 90
        1
176
     1
 90
        2
176
     1
 40
0.6
176
     1
 40
30.0
176
     1
 62
     7
420
 16777215
176
     1
 90
        0
176
     1
 90
        4
176
     1
 62
     7
176
     1
 62
   257
176
     1
 90
        1
176
     1
 90
        1
176
     1
 40
1.0
176
     1
 90
        8
176
     1
 62
   257
176
     1
 40
1.0
176
     1
 90
        1
176
     1
 90
        6
176
     1
 90
        2
176
     1
 62
     8
420
  7895160
176
     1
 90
        3
176
     1
 90
        0
176
     1
 90
        0
176
     1
290
     0
176
     1
 90
        5
176
     1
 40
0.0
176
     1
 90
        0
176
     1
290
     0
176
     1
290
     1
176
     1
290
     1
176
     1
290
     0
176
     1
290
     0
176
     1
290
     0
176
     1
290
     0
176
     1
290
     0
176
     1
290
     0
176
     1
 90
       50
176
     1
 40
0.0
176
     1
 40
1.0
176
     1
 90
        0
176
     1
 62
    18
420
        0
176
     1
 90
       50
176
     1
 90
        3
176
     1
 62
     5
420
      255
176
     1
290
     0
176
     1
 90
       50
176
     1
 90
       50
176
     1
 90
       50
176
     1
290
     0
176
     1
 90
       50
176
     1
 62
   256
176
     0
 40
1.0
176
     0
 90
        2
176
     1
  1
strokes_ogs.tif
176
     1
290
     0
176
     1
 40
1.0
176
     1
 40
1.0
176
     1
  0
VISUALSTYLE
  5
1F9E
102
{ACAD_REACTORS
330
364
102
}
330
364
100
AcDbVisualStyle
  2
Shaded with edges
 70
    26
177
     3
291
     0
 70
    58
 90
        2
176
     1
 90
        2
176
     1
 90
        1
176
     1
 90
        2
176
     1
 40
0.6
176
     1
 40
30.0
176
     1
 62
     7
420
 16777215
176
     1
 90
        1
176
     1
 90
        2
176
     1
 62
     7
176
     1
 62
   257
176
     1
 90
        2
176
     1
 90
        1
176
     1
 40
1.0
176
     1
 90
        8
176
     1
 62
   257
176
     1
 40
1.0
176
     1
 90
        1
176
     1
 90
        6
176
     1
 90
        2
176
     1
 62
     7
176
     1
 90
        3
176
     1
 90
        0
176
     1
 90
        0
176
     1
290
     0
176
     1
 90
        5
176
     1
 40
0.0
176
     1
 90
        0
176
     1
290
     0
176
     1
290
     1
176
     1
290
     1
176
     1
290
     0
176
     1
290
     0
176
     1
290
     0
176
     1
290
     0
176
     1
290
     0
176
     1
290
     0
176
     1
 90
       50
176
     1
 40
0.0
176
     1
 40
1.0
176
     1
 90
        0
176
     1
 62
    18
420
        0
176
     1
 90
       50
176
     1
 90
        3
176
     1
 62
     5
420
      255
176
     1
290
     0
176
     1
 90
       50
176
     1
 90
       50
176
     1
 90
       50
176
     1
290
     0
176
     1
 90
       50
176
     1
 62
   256
176
     0
 40
1.0
176
     0
 90
        2
176
     1
  1
strokes_ogs.tif
176
     1
290
     0
176
     1
 40
1.0
176
     1
 40
1.0
176
     1
  0
VISUALSTYLE
  5
1F9B
102
{ACAD_REACTORS
330
364
102
}
330
364
100
AcDbVisualStyle
  2
Shades of Gray
 70
    23
177
     3
291
     0
 70
    58
 90
        2
176
     1
 90
        2
176
     1
 90
        3
176
     1
 90
        0
176
     1
 40
0.6
176
     1
 40
30.0
176
     1
 62
     7
420
 16777215
176
     1
 90
        2
176
     1
 90
        2
176
     1
 62
     7
176
     1
 62
     7
176
     1
 90
        1
176
     1
 90
        1
176
     1
 40
40.0
176
     1
 90
        8
176
     1
 62
     7
176
     1
 40
1.0
176
     1
 90
        1
176
     1
 90
        6
176
     1
 90
        2
176
     1
 62
     7
176
     1
 90
        3
176
     1
 90
        0
176
     1
 90
        0
176
     1
290
     0
176
     1
 90
        1
176
     1
 40
0.0
176
     1
 90
        0
176
     1
290
     0
176
     1
290
     1
176
     1
290
     1
176
     1
290
     0
176
     1
290
     0
176
     1
290
     0
176
     1
290
     0
176
     1
290
     0
176
     1
290
     0
176
     1
 90
       50
176
     1
 40
0.0
176
     1
 40
1.0
176
     1
 90
        0
176
     1
 62
    18
420
        0
176
     1
 90
       50
176
     1
 90
        3
176
     1
 62
     5
420
      255
176
     1
290
     0
176
     1
 90
       50
176
     1
 90
       50
176
     1
 90
       50
176
     1
290
     0
176
     1
 90
       50
176
     1
 62
   256
176
     0
 40
1.0
176
     0
 90
        2
176
     1
  1
strokes_ogs.tif
176
     1
290
     0
176
     1
 40
1.0
176
     1
 40
1.0
176
     1
  0
VISUALSTYLE
  5
1F9C
102
{ACAD_REACTORS
330
364
102
}
330
364
100
AcDbVisualStyle
  2
Sketchy
 70
    24
177
     3
291
     0
 70
    58
 90
        1
176
     1
 90
        2
176
     1
 90
        2
176
     1
 90
        0
176
     1
 40
0.6
176
     1
 40
30.0
176
     1
 62
     7
420
 16777215
176
     1
 90
        2
176
     1
 90
        2
176
     1
 62
     7
176
     1
 62
     7
176
     1
 90
        1
176
     1
 90
        1
176
     1
 40
40.0
176
     1
 90
       11
176
     1
 62
     7
176
     1
 40
1.0
176
     1
 90
        1
176
     1
 90
        6
176
     1
 90
        2
176
     1
 62
     7
176
     1
 90
        6
176
     1
 90
        0
176
     1
 90
        0
176
     1
290
     0
176
     1
 90
        1
176
     1
 40
0.0
176
     1
 90
        0
176
     1
290
     0
176
     1
290
     1
176
     1
290
     1
176
     1
290
     0
176
     1
290
     0
176
     1
290
     0
176
     1
290
     0
176
     1
290
     0
176
     1
290
     0
176
     1
 90
       50
176
     1
 40
0.0
176
     1
 40
1.0
176
     1
 90
        0
176
     1
 62
    18
420
        0
176
     1
 90
       50
176
     1
 90
        3
176
     1
 62
     5
420
      255
176
     1
290
     0
176
     1
 90
       50
176
     1
 90
       50
176
     1
 90
       50
176
     1
290
     0
176
     1
 90
       50
176
     1
 62
   256
176
     0
 40
1.0
176
     0
 90
        2
176
     1
  1
strokes_ogs.tif
176
     1
290
     0
176
     1
 40
1.0
176
     1
 40
1.0
176
     1
  0
VISUALSTYLE
  5
371
102
{ACAD_REACTORS
330
364
102
}
330
364
100
AcDbVisualStyle
  2
Thicken
 70
    13
177
     3
291
     1
 70
    58
 90
        2
176
     1
 90
        2
176
     1
 90
        0
176
     1
 90
        0
176
     1
 40
0.6
176
     1
 40
30.0
176
     1
 62
     7
420
 16777215
176
     1
 90
        1
176
     1
 90
        4
176
     1
 62
     7
176
     1
 62
   257
176
     1
 90
        1
176
     1
 90
        1
176
     1
 40
1.0
176
     1
 90
       12
176
     1
 62
     7
176
     1
 40
1.0
176
     1
 90
        1
176
     1
 90
        6
176
     1
 90
        2
176
     1
 62
     7
176
     1
 90
        5
176
     1
 90
        0
176
     1
 90
        0
176
     1
290
     0
176
     1
 90
        1
176
     1
 40
0.0
176
     1
 90
        0
176
     1
290
     0
176
     1
290
     1
176
     1
290
     1
176
     1
290
     0
176
     1
290
     0
176
     1
290
     0
176
     1
290
     0
176
     1
290
     0
176
     1
290
     0
176
     1
 90
       50
176
     1
 40
0.0
176
     1
 40
1.0
176
     1
 90
        0
176
     1
 62
    18
420
        0
176
     1
 90
       50
176
     1
 90
        3
176
     1
 62
     5
420
      255
176
     1
290
     0
176
     1
 90
       50
176
     1
 90
       50
176
     1
 90
       50
176
     1
290
     0
176
     1
 90
       50
176
     1
 62
   256
176
     0
 40
1.0
176
     0
 90
        2
176
     1
  1
strokes_ogs.tif
176
     1
290
     0
176
     1
 40
1.0
176
     1
 40
1.0
176
     1
  0
VISUALSTYLE
  5
39E
102
{ACAD_REACTORS
330
364
102
}
330
364
100
AcDbVisualStyle
  2
Wireframe
 70
     5
177
     3
291
     0
 70
    58
 90
        0
176
     1
 90
        2
176
     1
 90
        0
176
     1
 90
        0
176
     1
 40
0.6
176
     1
 40
30.0
176
     1
 62
     7
420
 16777215
176
     1
 90
        1
176
     1
 90
        4
176
     1
 62
     7
176
     1
 62
   257
176
     1
 90
        1
176
     1
 90
        1
176
     1
 40
1.0
176
     1
 90
        0
176
     1
 62
   257
176
     1
 40
1.0
176
     1
 90
        1
176
     1
 90
        6
176
     1
 90
        2
176
     1
 62
     7
176
     1
 90
        3
176
     1
 90
        0
176
     1
 90
        0
176
     1
290
     0
176
     1
 90
        1
176
     1
 40
0.0
176
     1
 90
        0
176
     1
290
     0
176
     1
290
     1
176
     1
290
     1
176
     1
290
     0
176
     1
290
     0
176
     1
290
     0
176
     1
290
     0
176
     1
290
     0
176
     1
290
     0
176
     1
 90
       50
176
     1
 40
0.0
176
     1
 40
1.0
176
     1
 90
        0
176
     1
 62
    18
420
        0
176
     1
 90
       50
176
     1
 90
        3
176
     1
 62
     5
420
      255
176
     1
290
     0
176
     1
 90
       50
176
     1
 90
       50
176
     1
 90
       50
176
     1
290
     0
176
     1
 90
       50
176
     1
 62
   256
176
     0
 40
1.0
176
     0
 90
        2
176
     1
  1
strokes_ogs.tif
176
     1
290
     0
176
     1
 40
1.0
176
     1
 40
1.0
176
     1
  0
VISUALSTYLE
  5
1F9D
102
{ACAD_REACTORS
330
364
102
}
330
364
100
AcDbVisualStyle
  2
X-Ray
 70
    25
177
     3
291
     0
 70
    58
 90
        2
176
     1
 90
        2
176
     1
 90
        1
176
     1
 90
        1
176
     1
 40
0.5
176
     1
 40
30.0
176
     1
 62
     7
420
 16777215
176
     1
 90
        1
176
     1
 90
        0
176
     1
 62
     7
176
     1
 62
   257
176
     1
 90
        1
176
     1
 90
        1
176
     1
 40
1.0
176
     1
 90
        8
176
     1
 62
     7
176
     1
 40
1.0
176
     1
 90
        1
176
     1
 90
        6
176
     1
 90
        2
176
     1
 62
     7
176
     1
 90
        3
176
     1
 90
        0
176
     1
 90
        0
176
     1
290
     0
176
     1
 90
       13
176
     1
 40
0.0
176
     1
 90
        0
176
     1
290
     0
176
     1
290
     1
176
     1
290
     1
176
     1
290
     0
176
     1
290
     0
176
     1
290
     0
176
     1
290
     0
176
     1
290
     0
176
     1
290
     0
176
     1
 90
       50
176
     1
 40
0.0
176
     1
 40
1.0
176
     1
 90
        0
176
     1
 62
    18
420
        0
176
     1
 90
       50
176
     1
 90
        3
176
     1
 62
     5
420
      255
176
     1
290
     0
176
     1
 90
       50
176
     1
 90
       50
176
     1
 90
       50
176
     1
290
     0
176
     1
 90
       50
176
     1
 62
   256
176
     0
 40
1.0
176
     0
 90
        2
176
     1
  1
strokes_ogs.tif
176
     1
290
     0
176
     1
 40
1.0
176
     1
 40
1.0
176
     1
  0
DICTIONARYVAR
  5
3E0
102
{ACAD_REACTORS
330
3DC
102
}
330
3DC
100
DictionaryVariables
280
     0
  1
1:1
  0
DICTIONARYVAR
  5
3DE
102
{ACAD_REACTORS
330
3DC
102
}
330
3DC
100
DictionaryVariables
280
     0
  1
STANDARD
  0
DICTIONARYVAR
  5
3DD
102
{ACAD_REACTORS
330
3DC
102
}
330
3DC
100
DictionaryVariables
280
     0
  1
STANDARD
  0
DICTIONARYVAR
  5
1FB8
102
{ACAD_REACTORS
330
3DC
102
}
330
3DC
100
DictionaryVariables
280
     0
  1
Metric50
  0
DICTIONARYVAR
  5
1FB9
102
{ACAD_REACTORS
330
3DC
102
}
330
3DC
100
DictionaryVariables
280
     0
  1
Metric50
  0
DICTIONARYVAR
  5
1FBA
102
{ACAD_REACTORS
330
3DC
102
}
330
3DC
100
DictionaryVariables
280
     0
  1
1
  0
DICTIONARYVAR
  5
1FBB
102
{ACAD_REACTORS
330
3DC
102
}
330
3DC
100
DictionaryVariables
280
     0
  1
15
  0
DICTIONARYVAR
  5
3E1
102
{ACAD_REACTORS
330
3DC
102
}
330
3DC
100
DictionaryVariables
280
     0
  1
0
  0
DICTIONARYVAR
  5
3DF
102
{ACAD_REACTORS
330
3DC
102
}
330
3DC
100
DictionaryVariables
280
     0
  1
0
  0
DICTIONARY
  5
355
330
354
100
AcDbDictionary
280
     1
281
     1
  3
BUMPTILE
360
357
  3
DIFFUSETILE
360
356
  3
OPACITYTILE
360
35A
  3
REFLECTIONTILE
360
359
  3
REFRACTIONTILE
360
35B
  3
SPECULARTILE
360
358
  0
DICTIONARY
  5
34D
330
34C
100
AcDbDictionary
280
     1
281
     1
  3
BUMPTILE
360
34F
  3
DIFFUSETILE
360
34E
  3
OPACITYTILE
360
352
  3
REFLECTIONTILE
360
351
  3
REFRACTIONTILE
360
353
  3
SPECULARTILE
360
350
  0
DICTIONARY
  5
35D
330
35C
100
AcDbDictionary
280
     1
281
     1
  3
BUMPTILE
360
35F
  3
DIFFUSETILE
360
35E
  3
OPACITYTILE
360
362
  3
REFLECTIONTILE
360
361
  3
REFRACTIONTILE
360
363
  3
SPECULARTILE
360
360
  0
DICTIONARY
  5
3D9
330
377
100
AcDbDictionary
280
     1
281
     1
  3
ACAD_ROUNDTRIP_2008_TABLESTYLE_CELLSTYLEMAP
360
2156
  0
XRECORD
  5
357
102
{ACAD_REACTORS
330
355
102
}
330
355
100
AcDbXrecord
280
     1
270
     1
271
     1
  0
XRECORD
  5
356
102
{ACAD_REACTORS
330
355
102
}
330
355
100
AcDbXrecord
280
     1
270
     1
271
     1
  0
XRECORD
  5
35A
102
{ACAD_REACTORS
330
355
102
}
330
355
100
AcDbXrecord
280
     1
270
     1
271
     1
  0
XRECORD
  5
359
102
{ACAD_REACTORS
330
355
102
}
330
355
100
AcDbXrecord
280
     1
270
     1
271
     1
  0
XRECORD
  5
35B
102
{ACAD_REACTORS
330
355
102
}
330
355
100
AcDbXrecord
280
     1
270
     1
271
     1
  0
XRECORD
  5
358
102
{ACAD_REACTORS
330
355
102
}
330
355
100
AcDbXrecord
280
     1
270
     1
271
     1
  0
XRECORD
  5
34F
102
{ACAD_REACTORS
330
34D
102
}
330
34D
100
AcDbXrecord
280
     1
270
     1
271
     1
  0
XRECORD
  5
34E
102
{ACAD_REACTORS
330
34D
102
}
330
34D
100
AcDbXrecord
280
     1
270
     1
271
     1
  0
XRECORD
  5
352
102
{ACAD_REACTORS
330
34D
102
}
330
34D
100
AcDbXrecord
280
     1
270
     1
271
     1
  0
XRECORD
  5
351
102
{ACAD_REACTORS
330
34D
102
}
330
34D
100
AcDbXrecord
280
     1
270
     1
271
     1
  0
XRECORD
  5
353
102
{ACAD_REACTORS
330
34D
102
}
330
34D
100
AcDbXrecord
280
     1
270
     1
271
     1
  0
XRECORD
  5
350
102
{ACAD_REACTORS
330
34D
102
}
330
34D
100
AcDbXrecord
280
     1
270
     1
271
     1
  0
XRECORD
  5
35F
102
{ACAD_REACTORS
330
35D
102
}
330
35D
100
AcDbXrecord
280
     1
270
     1
271
     1
  0
XRECORD
  5
35E
102
{ACAD_REACTORS
330
35D
102
}
330
35D
100
AcDbXrecord
280
     1
270
     1
271
     1
  0
XRECORD
  5
362
102
{ACAD_REACTORS
330
35D
102
}
330
35D
100
AcDbXrecord
280
     1
270
     1
271
     1
  0
XRECORD
  5
361
102
{ACAD_REACTORS
330
35D
102
}
330
35D
100
AcDbXrecord
280
     1
270
     1
271
     1
  0
XRECORD
  5
363
102
{ACAD_REACTORS
330
35D
102
}
330
35D
100
AcDbXrecord
280
     1
270
     1
271
     1
  0
XRECORD
  5
360
102
{ACAD_REACTORS
330
35D
102
}
330
35D
100
AcDbXrecord
280
     1
270
     1
271
     1
  0
CELLSTYLEMAP
  5
2156
102
{ACAD_REACTORS
330
3D9
102
}
330
3D9
100
AcDbCellStyleMap
 90
        3
300
CELLSTYLE
  1
TABLEFORMAT_BEGIN
 90
        5
170
     1
 91
        0
 92
    32768
 62
   257
 93
        1
300
CONTENTFORMAT
  1
CONTENTFORMAT_BEGIN
 90
        0
 91
        0
 92
      512
 93
        0
300

 40
0.0
140
1.0
 94
        5
 62
     0
340
11
144
6.0
309
CONTENTFORMAT_END
171
     1
301
MARGIN
  1
CELLMARGIN_BEGIN
 40
1.5
 40
1.5
 40
1.5
 40
1.5
 40
4.5
 40
4.5
309
CELLMARGIN_END
 94
        6
 95
        1
302
GRIDFORMAT
  1
GRIDFORMAT_BEGIN
 90
        0
 91
        1
 62
     0
 92
       -2
340
0
 93
        0
 40
1.125
309
GRIDFORMAT_END
 95
        2
302
GRIDFORMAT
  1
GRIDFORMAT_BEGIN
 90
        0
 91
        1
 62
     0
 92
       -2
340
0
 93
        0
 40
1.125
309
GRIDFORMAT_END
 95
        4
302
GRIDFORMAT
  1
GRIDFORMAT_BEGIN
 90
        0
 91
        1
 62
     0
 92
       -2
340
0
 93
        0
 40
1.125
309
GRIDFORMAT_END
 95
        8
302
GRIDFORMAT
  1
GRIDFORMAT_BEGIN
 90
        0
 91
        1
 62
     0
 92
       -2
340
0
 93
        0
 40
1.125
309
GRIDFORMAT_END
 95
       16
302
GRIDFORMAT
  1
GRIDFORMAT_BEGIN
 90
        0
 91
        1
 62
     0
 92
       -2
340
0
 93
        0
 40
1.125
309
GRIDFORMAT_END
 95
       32
302
GRIDFORMAT
  1
GRIDFORMAT_BEGIN
 90
        0
 91
        1
 62
     0
 92
       -2
340
0
 93
        0
 40
1.125
309
GRIDFORMAT_END
309
TABLEFORMAT_END
  1
CELLSTYLE_BEGIN
 90
        1
 91
        1
300
_TITLE
309
CELLSTYLE_END
300
CELLSTYLE
  1
TABLEFORMAT_BEGIN
 90
        5
170
     1
 91
        0
 92
        0
 62
   257
 93
        1
300
CONTENTFORMAT
  1
CONTENTFORMAT_BEGIN
 90
        0
 91
        0
 92
      512
 93
        0
300

 40
0.0
140
1.0
 94
        5
 62
     0
340
11
144
4.5
309
CONTENTFORMAT_END
171
     1
301
MARGIN
  1
CELLMARGIN_BEGIN
 40
1.5
 40
1.5
 40
1.5
 40
1.5
 40
4.5
 40
4.5
309
CELLMARGIN_END
 94
        6
 95
        1
302
GRIDFORMAT
  1
GRIDFORMAT_BEGIN
 90
        0
 91
        1
 62
     0
 92
       -2
340
0
 93
        0
 40
1.125
309
GRIDFORMAT_END
 95
        2
302
GRIDFORMAT
  1
GRIDFORMAT_BEGIN
 90
        0
 91
        1
 62
     0
 92
       -2
340
0
 93
        0
 40
1.125
309
GRIDFORMAT_END
 95
        4
302
GRIDFORMAT
  1
GRIDFORMAT_BEGIN
 90
        0
 91
        1
 62
     0
 92
       -2
340
0
 93
        0
 40
1.125
309
GRIDFORMAT_END
 95
        8
302
GRIDFORMAT
  1
GRIDFORMAT_BEGIN
 90
        0
 91
        1
 62
     0
 92
       -2
340
0
 93
        0
 40
1.125
309
GRIDFORMAT_END
 95
       16
302
GRIDFORMAT
  1
GRIDFORMAT_BEGIN
 90
        0
 91
        1
 62
     0
 92
       -2
340
0
 93
        0
 40
1.125
309
GRIDFORMAT_END
 95
       32
302
GRIDFORMAT
  1
GRIDFORMAT_BEGIN
 90
        0
 91
        1
 62
     0
 92
       -2
340
0
 93
        0
 40
1.125
309
GRIDFORMAT_END
309
TABLEFORMAT_END
  1
CELLSTYLE_BEGIN
 90
        2
 91
        1
300
_HEADER
309
CELLSTYLE_END
300
CELLSTYLE
  1
TABLEFORMAT_BEGIN
 90
        5
170
     1
 91
        0
 92
        0
 62
   257
 93
        1
300
CONTENTFORMAT
  1
CONTENTFORMAT_BEGIN
 90
        0
 91
        0
 92
      512
 93
        0
300

 40
0.0
140
1.0
 94
        2
 62
     0
340
11
144
4.5
309
CONTENTFORMAT_END
171
     1
301
MARGIN
  1
CELLMARGIN_BEGIN
 40
1.5
 40
1.5
 40
1.5
 40
1.5
 40
4.5
 40
4.5
309
CELLMARGIN_END
 94
        6
 95
        1
302
GRIDFORMAT
  1
GRIDFORMAT_BEGIN
 90
        0
 91
        1
 62
     0
 92
       -2
340
0
 93
        0
 40
1.125
309
GRIDFORMAT_END
 95
        2
302
GRIDFORMAT
  1
GRIDFORMAT_BEGIN
 90
        0
 91
        1
 62
     0
 92
       -2
340
0
 93
        0
 40
1.125
309
GRIDFORMAT_END
 95
        4
302
GRIDFORMAT
  1
GRIDFORMAT_BEGIN
 90
        0
 91
        1
 62
     0
 92
       -2
340
0
 93
        0
 40
1.125
309
GRIDFORMAT_END
 95
        8
302
GRIDFORMAT
  1
GRIDFORMAT_BEGIN
 90
        0
 91
        1
 62
     0
 92
       -2
340
0
 93
        0
 40
1.125
309
GRIDFORMAT_END
 95
       16
302
GRIDFORMAT
  1
GRIDFORMAT_BEGIN
 90
        0
 91
        1
 62
     0
 92
       -2
340
0
 93
        0
 40
1.125
309
GRIDFORMAT_END
 95
       32
302
GRIDFORMAT
  1
GRIDFORMAT_BEGIN
 90
        0
 91
        1
 62
     0
 92
       -2
340
0
 93
        0
 40
1.125
309
GRIDFORMAT_END
309
TABLEFORMAT_END
  1
CELLSTYLE_BEGIN
 90
        3
 91
        2
300
_DATA
309
CELLSTYLE_END
  0
ENDSEC
  0
SECTION
  2
ACDSDATA
 70
     2
 71
     8
  0
ACDSSCHEMA
 90
        0
  1
AcDb_Thumbnail_Schema
  2
AcDbDs::ID
280
    10
 91
        8
  2
Thumbnail_Data
280
    15
 91
        0
101
ACDSRECORD
 95
        0
 90
        1
  2
AcDbDs::TreatedAsObjectData
280
     1
291
     1
101
ACDSRECORD
 95
        0
 90
        2
  2
AcDbDs::Legacy
280
     1
291
     1
101
ACDSRECORD
  1
AcDbDs::ID
 90
        3
  2
AcDs:Indexable
280
     1
291
     1
101
ACDSRECORD
  1
AcDbDs::ID
 90
        4
  2
AcDbDs::HandleAttribute
280
     7
282
     1
  0
ACDSSCHEMA
 90
        1
  1
AcDbDs::TreatedAsObjectDataSchema
  2
AcDbDs::TreatedAsObjectData
280
     1
 91
        0
  0
ACDSSCHEMA
 90
        2
  1
AcDbDs::LegacySchema
  2
AcDbDs::Legacy
280
     1
 91
        0
  0
ACDSSCHEMA
 90
        3
  1
AcDbDs::IndexedPropertySchema
  2
AcDs:Indexable
280
     1
 91
        0
  0
ACDSSCHEMA
 90
        4
  1
AcDbDs::HandleAttributeSchema
  2
AcDbDs::HandleAttribute
280
     7
 91
        1
284
     1
  0
ACDSRECORD
 90
        0
  2
AcDbDs::ID
280
    10
320
22
  2
Thumbnail_Data
280
    15
 94
     1694
310
89504E470D0A1A0A0000000D49484452000001000000007508030000009634CF9200000300504C5445212830FFFFFF2128300000000000000000000000000000000000000000000000000000330000660000990000CC0000FF0033000033330033660033990033CC0033FF0066000066330066660066990066CC0066FF0099
310
000099330099660099990099CC0099FF00CC0000CC3300CC6600CC9900CCCC00CCFF00FF0000FF3300FF6600FF9900FFCC00FFFF3300003300333300663300993300CC3300FF3333003333333333663333993333CC3333FF3366003366333366663366993366CC3366FF3399003399333399663399993399CC3399FF33CC00
310
33CC3333CC6633CC9933CCCC33CCFF33FF0033FF3333FF6633FF9933FFCC33FFFF6600006600336600666600996600CC6600FF6633006633336633666633996633CC6633FF6666006666336666666666996666CC6666FF6699006699336699666699996699CC6699FF66CC0066CC3366CC6666CC9966CCCC66CCFF66FF0066
310
FF3366FF6666FF9966FFCC66FFFF9900009900339900669900999900CC9900FF9933009933339933669933999933CC9933FF9966009966339966669966999966CC9966FF9999009999339999669999999999CC9999FF99CC0099CC3399CC6699CC9999CCCC99CCFF99FF0099FF3399FF6699FF9999FFCC99FFFFCC0000CC00
310
33CC0066CC0099CC00CCCC00FFCC3300CC3333CC3366CC3399CC33CCCC33FFCC6600CC6633CC6666CC6699CC66CCCC66FFCC9900CC9933CC9966CC9999CC99CCCC99FFCCCC00CCCC33CCCC66CCCC99CCCCCCCCCCFFCCFF00CCFF33CCFF66CCFF99CCFFCCCCFFFFFF0000FF0033FF0066FF0099FF00CCFF00FFFF3300FF3333
310
FF3366FF3399FF33CCFF33FFFF6600FF6633FF6666FF6699FF66CCFF66FFFF9900FF9933FF9966FF9999FF99CCFF99FFFFCC00FFCC33FFCC66FFCC99FFCCCCFFCCFFFFFF00FFFF33FFFF66FFFF99FFFFCCFFFFFF0000000D0D0D1A1A1A2828283535354343435050505D5D5D6B6B6B787878868686939393A1A1A1AEAEAEBB
310
BBBBC9C9C9D6D6D6E4E4E4F1F1F1FFFFFF0000000000000000000000000000000000000000000000000000000000002E4550F10000033D4944415478DAED9A4D96AB201085594EED7FF086ACC4491651F387805808283611C5DCEFF44972EC58CAB5A81F88520000000000000000000000000000000000000000A00A323CDD
310
220468BCA1B6DBA51E162F7FC60DF0D72DD2A33CE02FA7D3AD370401200004800027AFC70DE405F8B6C58BB35FC3DD6AA60B2D5EAD807FFFE886DBFD47DFB6F8A1BE93DF5CD2F0370BF399CC89456AB398ABAD2E15C088CE93A0DEC2ECB01901AC45F9ADEAE99F58EC244034FE8202D912B528008BA0C0A714B84300354DBB
310
0AD8F1146AF4BC00FED59E722A036C2DF611C08E395C3651C027A77934F1CCD63B02585F56746640B70A602FEB23D7460076F3D23AB3E62088778C8200CB49C308101C3011C0C479AD5D583703FAB092198B8B02B873C612E0E3AF9FF70097A388438A77437C8F0768278079E52406E8E5D6CC33A72A0F182E0684A7CC9C08
310
A07C56F3398A44D57A9005E603FC0201D6E09FAB5C0A0284B6A87A916B76BE470A2002A41876B5005CDDDD704F01C27391029843940810D72821542602488BEB8133FDEDED022C85EB9E00EA93F8426251FB1C68706FFA1C770B30ED7A00D77880FDE83DA07E9D9BFBC600DAD601B40A20DB0221402606C88D818D004B0C50
310
0F15200A82DA643712AD81878302852C10EF8CE405E01104A07059ADD6E670FE9F5299F9201CE05000227E7E1A5C1B3D5FF4B0AF65AD003A6AFFA3E5BB59807592CB2C40DA154274A210A21BBB4137CA50F7DBE6503901D642702E7EA5002ECD650508A5F0300244CF5D0AB02E7085F6C7854CFB5710606D860611C04D693F
310
422D05587AE1C5034250B44551BC9F9B6B87871220F280250688254E8E6A143A5810A1F13C208A0121088A61EBE8F4C325311A4E00B5CDF8878BE47BED302D41B096BB05F0997FA901A6A42A3EBD2CCEF965F1D26A39DDB42CAEA7A8F4A9D82438B131422AAB00678F76DD1891BDDB5464D7C4A6778BBA41214046FA6C8764
310
8EF5EB06C3F3321568D356261F5824AEFFBD1525162F7500FECA66F691C582B36743006D2CF6A2E9E70C4716F3F2E65527EE1701BB915D0EA1C251F5421A7F74F902012EFAEE0DB707015EEAA0DCC8D0A3276EAA024657806CE2F9650F20FAED18F0F3020000000000000000000000000000000000000083F31F04BACDB89C
310
CCB5540000000049454E44AE42608200000000F053FC07964503FB4165C30C0000000049454E44AE426082
  0
ENDSEC
  0
EOF
